<?xml version="1.0" encoding="utf-8"?>
<!-- Generator: Adobe Illustrator 25.4.1, SVG Export Plug-In . SVG Version: 6.00 Build 0)  -->
<svg version="1.1" id="Ebene_1" xmlns="http://www.w3.org/2000/svg" xmlns:xlink="http://www.w3.org/1999/xlink" x="0px" y="0px"
	 viewBox="0 0 100 100" style="enable-background:new 0 0 100 100;" xml:space="preserve">
<style type="text/css">
	.st0{fill:#1D1F30;}
</style>
<g>
	<path class="st0" d="M49.1,69.4c0.1,0.2,0.4,0.2,0.5-0.2l-0.4-0.4L49.1,69.4z"/>
	<path class="st0" d="M50.1,66.4c0.2,0.6,0,0.6,0.3,1.3c-0.1,0.4-0.4,0.5-0.6,0.4c0.1,0.2-0.3,0.5-0.1,0.8c0.5-0.3,0.7-0.9,0.8-1.6
		c0.1-0.1,0.2,0.1,0.3,0.2C50.8,67,50.7,66.3,50.1,66.4z"/>
	<path class="st0" d="M79.2,44.4c0-0.1,0-0.1,0-0.2C79.2,44.3,79.1,44.4,79.2,44.4z"/>
	<path class="st0" d="M68.3,44.2l0.2-0.6C68.3,43.6,68.4,44,68.3,44.2z"/>
	<path class="st0" d="M52.7,62.5c-0.1,0.1-0.1,0.2-0.1,0.4C52.6,62.8,52.7,62.7,52.7,62.5C52.7,62.6,52.7,62.6,52.7,62.5z"/>
	<path class="st0" d="M35.8,42C35.8,42,35.8,42,35.8,42C35.8,42,35.8,42,35.8,42z"/>
	<path class="st0" d="M33.3,50.4l0.3,0.1l0-0.1C33.4,50.4,33.3,50.4,33.3,50.4z"/>
	<path class="st0" d="M78.7,51.1C78.6,50.9,78.6,51,78.7,51.1C78.7,51.1,78.7,51.1,78.7,51.1z"/>
	<path class="st0" d="M47.5,92.3c0.7,0.4-1.2,0.4-0.2,0.9C47.3,93.1,48.4,92.7,47.5,92.3z"/>
	<path class="st0" d="M52.9,62.4c0.1-0.1,0.2-0.2,0.2-0.2C53,62.3,52.9,62.4,52.9,62.4z"/>
	<path class="st0" d="M77.1,66.4c0,0-0.1,0-0.2,0.1C77,66.5,77,66.4,77.1,66.4z"/>
	<path class="st0" d="M79.2,55.4c0.1-0.1,0.1-0.2,0.1-0.3L79.2,55.4z"/>
	<path class="st0" d="M76,72.8c0-0.1,0-0.2,0.1-0.3C76,72.6,75.9,72.6,76,72.8C75.9,72.8,76,72.8,76,72.8z"/>
	<path class="st0" d="M74,78.1c0-0.1,0-0.1,0.1-0.2l-0.2,0.3C73.9,78.2,73.9,78.2,74,78.1z"/>
	<path class="st0" d="M29.6,22.9c0.1,0.2,0.2,0.3,0.2,0.5C29.8,23.1,31,23.4,29.6,22.9z"/>
	<path class="st0" d="M52.9,62.7c0-0.1,0-0.2,0-0.3c0,0.1-0.1,0.1-0.1,0.2C52.8,62.7,52.8,62.7,52.9,62.7z"/>
	<path class="st0" d="M79.2,73.7l-0.4,1C78.9,74.4,79.1,74,79.2,73.7z"/>
	<path class="st0" d="M19.8,65.3l0-0.2C19.8,65.1,19.8,65.2,19.8,65.3z"/>
	<path class="st0" d="M75.7,82c0,0,0,0.1,0,0.1C75.6,82.1,75.6,82.1,75.7,82z"/>
	<path class="st0" d="M82.3,52.6c0-0.2-0.2-0.5-0.4-0.5c0.1-0.3,0.2-0.4,0.4-0.1c-0.1-1.2-0.5-0.8-0.4-1.9c0.1,0,0.2,0.2,0.4,0.3
		c-0.3-0.6-0.6-1.1-0.4-2c0.1,0.1,0.2-0.1,0.2,0.2c0-1.6-0.8-2.7-0.6-4.4c0.7,0.5,0.2-0.6,0.7-0.7l-0.2-1L81.8,43
		c-0.1-0.9-0.6-1.6-0.7-2.4c0.2,0.2,0.3,0.4,0.5,0.6c-0.1-0.3-0.2-0.6-0.4-0.9l-0.4-0.6c0,0.3,0.1,0.5,0.2,0.9
		c-0.3-0.4-0.5-0.2-0.6-0.2c-0.1,0-0.2,0-0.3-0.5c0.1,0.2-0.3-0.7-0.2-1.2c0.1,0.1,0.3,0.2,0.4,0.4c-0.1-0.3-0.2-0.5-0.4-0.4
		c0,0,0,0,0,0c-0.3-0.3-0.7-0.6-0.8-1.2c0.1-0.2,0.6-0.2,0.7-0.3c-0.3-0.1-0.6-0.5-0.9-0.9c-0.4-0.4-0.8-0.8-1.2-0.8
		c0.2,0,0.4-0.2,0.4-0.3c-0.2,0-0.4,0-0.5,0c-0.3-0.3-0.3-0.4-0.1-0.6c-0.6-0.4-0.6-0.1-0.6,0c0,0.2,0,0.3-0.6-0.1
		c0.1,0,0.1-0.1,0.3,0c-0.7-0.4-1.5-0.4-2.1-0.4c-0.7,0-1.4,0.2-2.1,0.3c-0.3-0.2,0-0.3,0.3-0.5c0.3-0.1,0.6-0.2,0.3-0.3
		c-1.1,0.2-2.1,1-2.8,1.8c-0.1,0.1-0.1,0.2-0.2,0.3c-0.1,0-0.4,0-0.5-0.1c0.2,0,0.2,0,0.3,0.1c0.1,0,0.2,0,0.2,0
		c0,0-0.1,0.1-0.1,0.1c0,0,0,0-0.1,0c0,0,0,0,0,0c0,0.1-0.1,0.1-0.1,0.2c-0.6-0.1,0.2-0.2,0-0.3c-0.5,0-0.2-0.2-0.4-0.4
		c0.2,0,0.3-0.3,0.5-0.4l0.1,0c-0.5,0-0.4-0.2-0.5-0.3c0.3,0,0.5,0,0.6,0.1v-0.1c-0.2,0-0.3-0.1-0.3-0.1l0.4,0
		c0-0.1-0.5-0.3-0.2-0.4c-0.4,0-1.1,0.1-1.3-0.1c0.2,0,0.6,0,0.7,0.1c0,0-0.2-0.1-0.1-0.1l0.3,0.1c0.2-0.1-0.3,0-0.3-0.1
		c0.3,0,0.2,0,0.5,0c0,0-0.1,0.1,0,0.1c0.1-0.1,0.2-0.1,0.5-0.2c-0.2,0-0.4,0-0.4-0.1c0-0.1,0.4,0,0.5-0.1c-0.2,0,0-0.1-0.4-0.1
		c0,0,0.2,0,0.3,0c-0.2-0.1,0-0.3-0.5-0.3l0,0c0,0,0,0,0,0c-0.4-0.2,0.3-0.5,0.1-0.7h0.2c-0.2-0.1-0.1-0.3-0.4-0.4
		c0,0,0.3-0.1,0.4-0.1c-0.1-0.1-0.3-0.1,0-0.3c0.3,0.1,0.2,0,0.2,0.1c0.1-0.1,0.4-0.2,0-0.3c0.4,0.1,0.5-0.1,0.4-0.2l-0.3,0.1
		c0-0.1,0-0.1,0-0.2l0.5,0c0.6-0.3-1-0.5,0-0.7c-0.3-0.1-0.2,0.1-0.7,0.1c0.1-0.1,0.8-0.2,0.8-0.3c0.3-0.2-0.7-0.2-0.5-0.3
		c-0.2,0-0.7,0-0.8-0.1c0.1-0.1,0.5-0.1,0.7-0.1c0,0,0,0,0,0c0,0,0,0,0,0c0.1,0,0.1,0,0.1,0c0,0,0,0-0.1,0c0.1,0,0.1,0.1,0.3,0
		l-0.2,0c0.2-0.1,0.2-0.2,0.5-0.2c-0.2-0.1-0.3,0-0.4,0c0.3-0.2,0-0.2,0.2-0.4c-0.1,0-0.3,0-0.3,0c0.2-0.2-0.3-0.1-0.4-0.3
		c0.3-0.1,0.7,0,0.4-0.1c0.2-0.1,0.5,0,0.6,0c-0.3-0.2,0.2-0.3,0.3-0.4l0.1,0.1c-0.1,0-0.1-0.1-0.1-0.1l-0.4,0
		c0.1-0.1,0.1-0.1,0.2-0.1c-0.2,0-0.6,0-0.9-0.1c0.2-0.1-0.2-0.2,0.3-0.2c-0.2,0.2,0.5,0,0.6,0.2c-0.1,0-0.1-0.1,0-0.1
		c0,0,0.1,0,0.1,0c0.4-0.2-0.5-0.1-0.5-0.3c0.3,0,0.5,0,0.5-0.1c0,0.1-0.4,0-0.7,0c0.2-0.1-0.1-0.1-0.1-0.2L70,27.8
		c-0.3,0-0.2-0.1-0.3-0.2c0.1,0,0.1,0,0.1,0c-0.1-0.1,0.6-0.2,0.3-0.3c0.2-0.1,0.5,0,0.6-0.1c-0.3-0.2,0.4-0.2,0.1-0.3
		c-0.4,0-0.3,0-0.6-0.1l0.2,0.3L69.9,27c0,0.1,0.2,0.2,0.2,0.2c-0.3-0.1-0.2-0.1-0.5,0c0.5-0.1-0.3-0.2,0-0.3h0.9
		c0.4-0.2-0.5-0.3-0.2-0.6l-0.2,0.1c-0.3,0,0-0.2-0.2-0.2c0.3,0,0.4,0,0.6-0.1c-0.2,0,0-0.2-0.6-0.2l0.4-0.1
		c0.2-0.2-0.9-0.2-0.8-0.4c0.3,0,0.5,0,0.8,0.1c0-0.1,0.1-0.1-0.1-0.1c0.2,0-0.4-0.2-0.1-0.2c-0.1,0-0.4,0-0.4-0.1
		c0.1,0,0.2,0,0.2,0c-0.2,0-0.2-0.1-0.5,0c0.9-0.2-0.1-0.5,0.7-0.7c-0.1-0.1-0.2-0.3-0.2-0.4c0.1,0,0.1,0,0.1,0
		c0.3-0.2-0.9-0.1-0.6-0.3c0.5-0.1,0.3,0.1,0.4,0c1,0-0.1-0.2,0.4-0.4l0.1,0c0.3-0.1-0.4-0.2-0.3-0.4c0,0,0.1,0,0.1,0
		c-0.5-0.1-0.7-0.3-0.8-0.5c0.4,0,0.2,0.1,0.6,0c-0.1-0.1-0.6,0-0.7-0.1c0.2,0,0.4-0.2,0.8-0.2l0,0.1c0.5-0.1,0-0.2,0.1-0.2h0.2
		c-0.1-0.2-0.7-0.2-0.6-0.4l-0.2,0c-0.6-0.1,0.3-0.1-0.1-0.2l0.6,0c-0.1-0.1-0.6-0.3-0.7-0.4c0.4,0.1,0.7,0.2,0.9,0.3
		c0-0.1,0-0.3-0.3-0.3c0.1,0,0.2,0.1,0.1,0.1c-0.5-0.1-0.7-0.2-0.7-0.4c1.2,0,0.3-0.4,1.2-0.6c-0.4-0.2,0.2-0.6,0.1-0.9
		c-0.9,0.2,0-0.1-0.9,0c-0.1-0.1-0.1-0.1,0-0.1l0.1,0c0.2,0,0.6,0.1,0.8-0.1c-0.3,0.1-0.5-0.1-0.8,0l0.4-0.2c0.3-0.1,0.2,0.1,0.4,0
		c0.1-0.2,0.4-0.1,0.6-0.2c-0.3,0-0.5,0-0.4-0.1l-0.4,0.2c-0.5-0.2,0.8-0.3,0.2-0.5l0.3,0c-0.2-0.1,0-0.5-0.8-0.5
		c0.1,0,0.3-0.1,0.4,0c0.1-0.3-0.8-0.6-0.4-0.8h0.2c-0.1,0-0.4,0-0.2-0.1c0.1,0,0.2,0,0.2,0c-0.1,0-0.4-0.1-0.3-0.2l0.3,0
		c0.3-0.3-0.7-0.4-0.8-0.6c0.7-0.1,0.8-0.3,0.9-0.5l0.1,0c0-0.3-0.6-0.5-0.9-0.8c0.7-0.3,0.2-0.7,0.5-1.1c-0.1,0.1-0.5,0.1-0.6,0
		c0.1-0.1-0.5-0.1,0.1-0.2l0,0c0.6-0.2,0.4-0.3,0.4-0.4l-0.8,0.1c0.5-0.3,0.4-0.5,0.2-0.6c-0.1-0.1-0.2-0.2-0.2-0.3
		c0-0.1,0-0.2,0.3-0.4c-0.2,0-0.3-0.2-0.5-0.2l0.4-0.2c0-0.2,0-0.3-0.1-0.5c-0.1-0.1-0.2-0.3-0.3-0.4l0.3-0.1
		c-0.2-0.2-1.1,0.6-1.3,0.5l0.4-0.5c-0.3-0.2-0.4-0.9-1-0.6c0-0.1,0.1-0.2,0.2-0.2c-0.2-0.1-0.3-0.6-0.6,0.2c0.2-0.5-0.2-0.2-0.5,0
		l0.2-0.4C66.3,9.8,66.2,9.9,66,10c0-0.1,0.1-0.3,0.1-0.2c0-0.2-0.2,0.3-0.3,0.1l0.2-0.2c-0.1-0.1-0.2,0.1-0.3,0.3
		c-0.1,0.1-0.2-0.2-0.1-0.5c-0.1,0.2-0.2,0.5-0.3,0.4c0-0.1,0.1-0.2,0.1-0.3c-0.2-0.3-0.5,0.4-0.5,0c0-0.1,0-0.2,0-0.2
		c0.2,0,0.4,0.1,0.3,0.1c0.1-0.4-0.1-0.5,0.2-1c-0.2,0.2-0.6,0.8-0.7,0.6c0,0,0-0.1,0-0.1l0,0c0,0-0.1,0-0.1,0.1
		c0-0.1-0.1-0.1-0.1-0.1c0-0.3-0.2-0.2-0.2-0.2c0,0.4-0.1,0.3-0.1,0.7c0,0,0,0,0.1-0.1c0,0,0,0,0,0c0,0,0,0.1,0,0.1l0-0.1h0h0
		c0,0,0,0,0,0l0,0c0,0,0.1,0,0.2,0c-0.1,0.2-0.1,0.4-0.2,0.1C64.1,9.5,64,9.8,64,9.9c0-0.6-0.2-0.9-0.2-1.3
		c-0.2,0.2-0.6,0.1-0.7,0.9c-0.1,0.1-0.1-0.2-0.1-0.4C63,9.1,63,9.1,63,9c-0.1,0.2-0.4,0.1-0.4,0.7c-0.2-0.2,0-0.5-0.2-0.4l0-0.2
		c-0.3-0.4-0.5,0-0.6,0.3c-0.1,0.4-0.2,0.7-0.7,0.3c0.1,0,0.1,0.1,0.1,0.1c-0.4-0.1-0.6,0.2-0.8,0.4c-0.2,0.2-0.4,0.4-0.9,0.3
		c-0.1,0-0.1,0-0.1,0c0-0.1-0.1-0.1-0.2,0c0.2-0.3-0.2-0.5,0-0.8c0,0,0.1,0,0.1,0l0.2-0.2c-0.1,0.1-0.2,0.1-0.3,0.2c0,0,0,0,0,0
		c-0.5-0.1,0.2-0.5-0.5-0.5c0.7-0.1,0.5-0.7,0.1-0.8c0.2,0,0.2-0.3,0.5-0.2c-0.1-0.3-0.3-0.5-0.6-0.3c0.6-0.7-0.9-0.5,0-1.1
		c-0.6-0.5-1.2-0.9-1.7-1.3C57.6,5,57.5,6,58,5.5c-0.6-0.4-1.2-0.3-1.6-0.8c0-0.2,0.3-0.2,0.4-0.2c-0.6-0.2-0.9-0.9-1.6-0.8
		c0,0,0.1-0.1,0.2-0.1c-0.1,0-0.2-0.2-0.3,0.1l0.1,0c-0.1,0.5-0.8,0.7-0.9,0.9c0.5-0.7-0.4-0.4,0.3-1.3c-0.1,0.1-0.2,0.2-0.3,0.4
		c-0.1-0.1-0.1-0.2,0.1-0.4c-0.4,0-0.4,0.4-0.7,0.3c0-0.1,0.1-0.2,0.2-0.3c-0.2,0.2-0.5,0.5-0.7,0.3c0-0.1,0-0.2,0.1-0.2
		c-0.5-0.1-0.9,0.6-1.3,0.3C52.3,2.9,52,3.3,52,2.8l-0.3,0.1l0.1,0.3c-0.2,0-0.4,0.4-0.6,0.2l0.2-0.2l-0.4,0.1l0.2,0.2
		c-0.2,0.3,0,0.7-0.2,0.6c0-0.1-0.2,0-0.3-0.3c-0.1,0.2-0.2,0.4-0.3,0.2c-0.1-0.2,0-0.6-0.1-0.7c-0.1,0.5-0.5,0.2-0.6,0.7
		c0-0.1,0-0.4,0-0.5l0,0.4c-0.1-0.1-0.2-0.2-0.2-0.4c-0.3,0,0.2,0.7-0.2,0.4c0,0,0-0.1,0-0.2c-0.4-0.1-0.6,0.5-1,0.4
		c-0.3-0.5,0.2-0.2,0-0.6c-0.2,0.1-0.4,0.4-0.6,0.7c-0.2,0.3-0.3,0.5-0.6,0.6l0.1,0c0.4,0.7-0.5-0.1-0.5,0.4c0-0.1-0.2-0.4-0.2-0.3
		C46,5,46,5.5,45.9,6.1l-0.1-0.2c-0.3,0-0.4,0.4-0.6,0.5c0.1,0.2,0,0.2,0.3,0.3c-0.7,0-0.7,0.4-0.6,0.7c0,0.3,0.1,0.7-0.4,0.8
		c0-0.1-0.1-0.2-0.1-0.2l0,0.5c0.3,0.1,0.2,0,0.5,0c0.2,0.1,0.3,0.3,0.2,0.4c-0.2-0.2-0.5-0.2-0.7-0.1c0.1,0,0.2,0.1,0.3,0.1
		C44,9,45.3,9.2,44.9,9.3l-0.2-0.1c0.1,0.1,0.3,0.3,0.2,0.4c-0.4,0-0.2-0.2-0.5-0.2c0,0.2,0.7,0.5,0.2,0.6c-0.1-0.1-0.1-0.2-0.2-0.3
		C44,9.8,44.1,9.9,44,10l0,0l0,0.1l-0.1,0.1c0,0,0.1-0.1,0.1-0.1l-0.2,0.2l0.1-0.1c1,0.4,0.1,0.5,0.8,0.9c-0.6-0.4-0.4-0.1-0.8-0.2
		c-0.1,0.1-0.3,0.2-0.4,0.1c0.4,0.2-0.3,0.2,0.2,0.5c-0.2,0,0,0.2-0.4,0.1c0.1,0.2,0.3,0,0.4,0c0.3,0.2,0,0.4-0.1,0.7
		c-0.3,0-0.6,0-0.9-0.1c0-0.4-0.2-0.6-0.5-0.8c-0.3-0.2-0.7-0.3-1-0.6c0.1,0.1-0.1,0.5-0.3,0.5c-0.1-0.2-0.5,0.4-0.3-0.2l0,0
		c0-0.6-0.4-0.5-0.6-0.5l-0.1,0.8c-0.3-0.6-0.7-0.5-1.1-0.3c-0.3,0.2-0.6,0.4-0.9-0.1c-0.1,0.2-0.3,0.3-0.3,0.5l-0.1-0.4
		c-0.4,0-0.6,0.1-1,0.4l0-0.3c-0.3,0.1,0.3,1.2,0.1,1.4l-0.4-0.5c-0.4,0.2-1.1,0.1-1.1,0.8c0-0.1-0.2-0.2-0.1-0.3
		c-0.2,0.1-0.9,0.2-0.2,0.8c-0.4-0.4-0.4,0.3-0.3,0.6L34,13.8c0.3,0.5,0.4,0.6,0.3,0.9c-0.1,0-0.3-0.2-0.2-0.2
		c-0.3,0,0.2,0.4-0.1,0.4l-0.1-0.2c-0.2,0.2,0,0.2,0.1,0.5c0.1,0.2-0.3,0.3-0.6,0.1c0.2,0.2,0.4,0.4,0.2,0.5
		c-0.1-0.1-0.2-0.1-0.2-0.2c-0.4,0.2,0.2,0.7-0.3,0.7c-0.1-0.1-0.2-0.1-0.2-0.1c0.1-0.2,0.3-0.4,0.3-0.4c-0.3-0.2-0.5,0-0.9-0.4
		c0.1,0.3,0.6,0.9,0.3,1c0,0-0.1,0-0.1,0l0,0c-0.1,0,0,0.1,0,0.2c-0.1,0-0.1,0.1-0.2,0.1C32,16.4,32,16.7,32,16.8
		c0.4,0.2,0.3,0.3,0.7,0.3c0,0,0,0,0-0.1c0,0,0,0,0-0.1l0,0c0-0.1,0-0.2,0.1-0.3c0.2,0.2,0.3,0.3,0,0.3c0.2,0.2,0.5,0.3,0.6,0.4
		c-0.6-0.1-1,0.1-1.3,0c0.1,0.4-0.1,0.8,0.6,1.2c0.1,0.1-0.2,0-0.4,0c-0.1-0.1,0-0.1-0.1-0.2c0.1,0.2-0.1,0.6,0.5,0.7
		C32.2,19.4,32,19,32,19.3l-0.2-0.1c-1,0.5,1.2,1.3,0,1.7c0.1,0,0.1-0.1,0.2,0c-0.6,0.7,0.3,1.6-0.5,2.3c-0.2,0.2,0.2,0.2,0.4,0.4
		l-0.5,0l0.5,0.2c0.2,0.1,0,0.3-0.2,0.4c-0.5-0.4-1.2-0.7-1.8-0.7c0-0.1-0.1-0.1-0.1-0.2c0.1,0.3,0,0.6-0.1,0.8
		c-0.5-0.2-0.9,0-1-0.4c0.3,0.1,0.3,0,0.5-0.1c-0.2,0-0.4,0-0.5,0c-0.2-0.3,0-0.3,0.3-0.3c0.2,0,0.5,0.1,0.6,0
		c-0.5-0.1-1.1-0.1-1.7,0c-0.5,0.1-1,0.2-1.4,0.2c-0.1-0.2,0.3-0.4,0.7-0.4c0.4,0,0.7-0.1,0.1-0.3c0.5,0,0.9,0.1,1.3,0.3
		c-0.4-0.5-0.3-0.4,0-0.4c0.2,0,0.5,0.1,0-0.4c-1-0.2-1.6-0.1-2.1,0c-0.6,0.2-1.1,0.3-2,0.7c-0.2,0.4,0.3,0.3,0.1,0.7
		c-0.9,0.9-1.3,1-1.9,1.1c-0.5,0.1-1,0.2-1.1,1.2c0.1,0.6,0.5,1-0.2,1.9c-0.1-0.2-0.2-0.4-0.4-0.6c-0.3,0.7-0.2,1-0.1,1.2
		c0.1,0.3,0.1,0.5-0.2,1.2c-0.2-0.3,0.1-1.2,0-1c-0.7,0.9,0.1,0.8-0.1,1.5l-0.5,0c-0.2,1.6,0,3.2,0,4.8c-0.2-0.1-0.3-0.4-0.5,0
		c0.1,2.1-0.2,4.3-0.4,6.3l0.5,0.7c0,0.2-0.2,0.3-0.3,0.1c-0.1,0.8,0.3,0,0.5,0.4c0,0.4-0.2,0.6-0.4,0.3c0.4,1.3,1,3.7,0.6,5.1
		L19.8,48c-0.1,1.1,1,1.2,0.6,2.2l-0.1-0.2c0,2.3,0.5,4.9-0.2,6.7c0.7,0.3-0.3,2.3,0.6,2.4c-0.5,1.3-0.6,0.9-1,2.8
		c-0.1,0.5,0.5,0.8,0.6,1.4l-0.5,0l0.4,0.9l-0.6,0.4l0.1,0.6c0-0.2,0.2-0.5,0.4-0.5c0.2,0.9-0.4,2.3-0.6,2.3
		c0.1,0.8,0.3,1.5,0.4,2.2c-0.2,0-0.3-0.4-0.4-0.7c0.5,1.2-0.5,0.2,0,1.3c0.1-0.2,0.3,0.1,0.4,0.1c-0.2,0.6-0.1,1.9,0.2,2.8
		l-0.4-0.1c0.2,1.8,1,3.6,1.8,5.3c-0.1-0.7,0.4-0.8,0.7-0.3L21.9,78c0.4,0.2-0.1-0.6,0.6-0.1c0.2,0.7-0.3,0.7-0.6,0.4
		c0.2,0.2,0.4,0.5,0.5,0.7c-0.1,0.1-0.3,0-0.5,0c0.4,0.2,0.3,1.6,1,1.8l-0.1,0.1c1,1.7,1.7,2.3,2.6,3.5c0.3-0.2,0.7,0.3,1.2,0.4
		c0.7,0.9,1.3,2.1,2.3,3c0.9,0.5,0.5-0.1,0.9,0c-0.2,0.3,0.9,1.2,0.2,0.9c1.4,1,1.7,1.2,3.6,2.1c-0.1-0.2-0.3-0.5-0.1-0.5
		c0.3,0.1,0.6,0.6,0.5,0.7l-0.1,0c1.1,0.4,2.1,1.3,3.1,2.1c1,0.8,2.2,1.5,3.2,1.4l-0.1,0c0.7,0.1,1.3,0.1,2,0.1
		c0.9,0.3-0.6,0.2,0,0.5c2.2-0.2,3.2,0.7,5,0.4c1.2,1.2,4.5,0.2,6.3,0.9l-0.1-0.3c0.5-0.3,0.6,0.1,0.9,0.2c0-0.2-0.5-0.2-0.2-0.4
		c1.9-0.2,3.9-0.2,6-0.4c2.1-0.2,4.2-0.6,6.3-1.7c0.8-0.4,0.7-0.9,0.8-1.2c0-0.4,0.2-0.7,1.1-1.1c0,0.2,0,0.5-0.1,0.7
		c2-2.5,4.2-4.7,5.3-7.3c0,0.2,0.1,0.3,0,0.5c0.6-0.3,1.2-1.9,0.9-2c0.3-0.4,0.3,0,0.6-0.1c0.5-0.4,0.3-1.5,0.8-1.7
		c0.1,0,0,0.1,0,0.2c0.1-0.5,0.8-1.5,0.3-1.4c0.7-0.9,0.7-1.9,1.3-2.6c0,0,0,0,0,0c0,0,0,0.1,0,0.1l0.5-0.6
		c-0.2,0.1-0.4,0.3-0.5,0.4c-0.1-0.7,0.9-1.6,0.3-2c0.6,0.3,1.2-1.6,1.1-2.3c0.1,0.3,0.4-0.5,0.6-0.2l0,0.1l0-0.1c0,0,0,0,0,0
		c0.2-0.8,0.3-1.5-0.1-1.4c1.2-1.2,0.1-2.9,1.2-3.5c0.1-2.3,0.2-4.3,0.4-6.3c0.7,0.2-0.3,2.2,0.4,2.2c0.1-1.9-0.3-3.1,0.1-5
		c0.2-0.5,0.3,0.3,0.3,0.5c0-1.9,0.5-3.7,0.3-5.4c0.1,0,0.1,0.2,0.2,0.4c0-0.3,0.2-0.8-0.1-0.8l0.1,0.3c-0.5,0.5-0.8-1.4-1-1.5
		C81.8,53.9,81.3,51.6,82.3,52.6z M32.2,16.7c0-0.1,0.1-0.1,0.1-0.1c0,0,0,0.1,0,0.1l0,0C32.3,16.8,32.2,16.8,32.2,16.7z M20,37.1
		c0-0.2,0-0.5,0.1-0.8c0.1-0.1,0.3,0,0.3,0.2C20.2,36.4,20.1,36.8,20,37.1z M68.6,37.6l-0.2-0.1l0.1-0.1c0,0,0.1,0,0.1,0
		C68.6,37.5,68.6,37.6,68.6,37.6z M68.4,37.5l-0.2-0.1C68.2,37.5,68.3,37.5,68.4,37.5C68.4,37.5,68.4,37.5,68.4,37.5z M68.9,36.9
		c-0.2,0-0.3,0-0.6-0.1l0.7,0C68.9,36.8,68.9,36.8,68.9,36.9z M69,36.6L69,36.6C68.9,36.6,69,36.6,69,36.6C69,36.6,69,36.6,69,36.6z
		 M69.2,36.2c-0.3-0.1-0.3,0.1-0.5,0c0.8,0-0.1-0.2,0.2-0.2c0.4,0,0.2,0.1,0.5,0.1c-0.1,0.2-0.3,0.4-0.4,0.6c-0.2,0-0.1,0-0.4,0
		C69.1,36.4,68.5,36.2,69.2,36.2z M64.4,11.2c0,0.1,0,0.2,0,0.3c0,0,0,0-0.1,0C64.4,11.4,64.4,11.2,64.4,11.2z M64.2,8.7L64.2,8.7
		c0,0,0-0.1,0-0.2C64.3,8.5,64.3,8.6,64.2,8.7C64.3,8.7,64.3,8.7,64.2,8.7z M59.7,11.1l-0.2-0.2c0.1,0,0.1,0,0.1,0.1
		c-0.1,0-0.1-0.1-0.1-0.2C59.6,10.8,59.6,10.9,59.7,11.1z M58.3,37.3c-0.2,0-0.3,0-0.3-0.1c0.1,0,0.2-0.1,0.3-0.2
		C58.3,37.1,58.3,37.2,58.3,37.3z M59.4,10.9l0.2,0.4c0,0,0,0,0,0C59.6,11.1,59.2,10.9,59.4,10.9z M59.6,11.3
		C59.6,11.3,59.6,11.3,59.6,11.3C59.6,11.3,59.6,11.3,59.6,11.3z M44,14c0,0,0.1-0.1,0.1-0.1c0,0,0.1,0.1,0.1,0.1
		C44.2,13.9,44.1,13.9,44,14C44.1,14,44.1,14,44,14z M44.5,13.3c0.1,0.1,0.2,0.1,0.3,0.2c-0.1,0.1-0.2,0-0.4,0
		C44.5,13.5,44.5,13.4,44.5,13.3z M35.2,17.1c0,0-0.1,0.1-0.1,0.1c-0.1,0-0.3-0.1-0.2-0.2C34.9,17.2,35.1,17.1,35.2,17.1z
		 M79.7,46.7c-0.2,0.7-0.5,0.1-0.6-0.1c0.4,1-0.2,1.9-0.3,2.4l-0.1-0.5c0.1,0.3,0.1,0.6,0.1,0.8L79,49c-0.1,0.3-0.1,0.6-0.2,0.6
		c0.2,0.3,0.6-0.2,0.9,0.4c-0.2,0.4,0.1,1.3-0.3,1.4c0.2-1.3-0.5,0.1-0.5-1c0,0.2,0,0.5,0,0.8c0,0-0.1,0-0.1-0.1
		c-0.5,1.2,0.5,0.6,0.4,1.9c-0.2-0.2-0.5,0.3-0.5,0.5c0.1-0.5,0.5-0.2,0.6,0.3c-0.3,0.8,0.1,0.9,0,1.3l0.1-0.5
		c0.2,0.2,0.2,0.6,0.2,1.2c-0.2,0-0.1-0.5-0.2-0.3c0.4,0.7-0.6,1.4-0.4,2.3c-0.2,0.4-0.5,0-0.7,0.3c0.2,1-0.5,1-0.4,2.1
		c0.4-0.2,0.3-0.3,0.5,0.5V59l0.4,1.2c0.1-0.5-0.1-1.1,0-1.4c0.2,0.6,0.1,0.5,0.5,0.3c-0.6,0.6,0.1,1.5-0.4,2.2l-0.9-0.2
		c-0.6,1.2,0.1,2.3-0.4,3.9l0.2-0.5c0.3,0.3-0.1,1-0.1,1.5c-0.3-0.1-0.5,0.2-0.7,0.4c0.2,0-0.2,1.2,0.3,1.4l-0.5,0.6
		c-0.4,1.2,0.5,1.6,0.1,2.8c-0.2-0.5-0.6,0-0.6-0.8c-0.1,0.4-0.3,0.7-0.1,0.8c-0.2,0.2,0.1,1.2-0.3,1.5c0.1,0.2,0.3,0.4,0.2,0.8
		c-0.1,0-0.1,0-0.1,0c0.1,0,0,0.8,0.4,0.5c-1.3,0.9-1.2,3.4-2.4,4.1c-0.3,0.9-0.7,1.9-1.1,2.6c0-0.1-0.1-0.1,0-0.2
		c-0.8,0.9,0.4,1-0.5,2c-0.8,0.3,0.1-0.7-0.2-0.5c-0.9-0.3-0.7,1.4-1.7,1.8l0.1-0.2c-0.6,0.4-0.6,1.6-1.3,2.4c0,0,0-0.1-0.1-0.1
		c0,0.9-0.8,2.1-1.4,3c0-0.5,0.2-0.5-0.2-0.6c-0.3,0.4,0.6,0.3,0,1.1c-0.4,0.1-1,0.4-1.3,0.1c0.2-0.2,0.4-0.4,0.6-0.6
		c-0.7-0.1-0.8,0.8-1.2,1l-0.1-0.2c-0.5,0.4-0.6,0.7-0.8,1c-0.2,0.3-0.4,0.6-1.1,0.9l0.2,0.1c-0.5,0.9-0.7,0-1.3,0.7L62,92.1
		c-0.4,0.3-1.5,1.1-2.5,1.3c0.5-0.6,1.5-1,2-1.5c-0.5,0.2-1.6,0.5-1.8,0.8c0.2-0.1,0.4-0.3,0.6-0.2c-0.5,0.6-1.3,1-2.3,1.1
		c0-0.6-0.6-0.6-1.4-0.5c-0.8,0-1.7,0-2.1-0.4c-1.8,0.5-3.6-0.2-5.8-0.3c0.7,0.9-0.6,0-0.6,0.9c-0.5,0-0.7,0-0.7-0.1
		c-0.5-0.2-1-0.5-1.5-0.7c-0.3-0.3,0.5-0.1,0.5-0.4c-1-0.2-0.4-0.4-1-0.8c0.1,0.3-0.4,0.4-1,0.2c0.2,0.2,0.5,0.4,0.8,0.6
		c-1.5,0.2-1.1-1-2.6-0.8l0.5-0.2c-0.8,0-2.5-0.8-3.5-0.4c-0.1-0.2-0.1-0.5,0.2-0.4c-0.8-0.4-1.8-0.7-2.7-1
		c-0.9-0.4-1.8-0.8-2.2-1.4l0.2-0.1c-0.3-0.1-0.7,0-1-0.4c0.1-0.1,0.2-0.1,0.1-0.2c-0.2,0-1-0.2-1.3-0.6l0.5,0
		c-1.2-1.3-2.5-1.2-3.7-2.2c0.5-0.5-0.3-1.6-0.7-2.2l0.1,0c-1.2-1.6-2.5-2.4-3.7-4c0-0.7-0.3-1.6-0.7-2.6c-0.4-1-0.7-2.1-0.7-3.1
		c0,0.3-0.5,0.1-0.6-0.3c0-0.5-0.7-1.2,0-1.2l0,0.2c0.5-0.4,0.3-1.3,0.3-2l-0.8-0.1c0.5-1,0.4-2.2,0.3-3.4c-0.1-1.2-0.2-2.2,0.4-2.8
		c-0.2-0.5-0.1-1.1-0.3-1.6l0.4,0c0.2-1.3,0.3-2,0.2-3.8l0.3,0.3c0-1-1.2-1.2-1.3-2.1l0.6-0.3c-0.1-1.6,0.4-3.4-0.2-4.9
		c0.1,0,0.3,0.1,0.3,0.3c0-0.8,0.2-3-0.6-2.7c0.6-0.1-0.1-1.7-0.4-2.5L23,46c-0.6-0.7-0.7-0.7-0.9-1.7c0-0.2,0.3-0.2,0.2,0.1
		c0.2-0.8-0.4-0.6-0.2-1.6l0.3,0.3c0-0.8-0.1-0.8-0.5-1.2c-0.2-0.5,0.1-1.6,0.4-1.7c-0.2-0.1-0.5-0.6-0.4-1c0.1-0.1,0.2,0.1,0.3,0.2
		c0.3-1.4-0.5-2.1,0-3c0.1,0,0.2-0.1,0.3-0.2c-0.1,1.1-0.1,2-0.1,1.9c0.4,0,0.5-0.9,1-0.2c-0.3-0.7-0.9-1.9-0.6-2.8
		c0,0,0.1-0.1,0.1-0.1l0,0.1c0.1-0.2,0-0.4,0-0.5c0.1-0.3,0.2-0.4,0.2-0.7c0.3-0.1,0.3-1,0.4-1.4c-0.4,0-0.3-0.6-0.7-0.1
		c0-0.1,0,0.1,0,0.4c0,0.1,0,0.1,0,0.2l0,0c0,0.3-0.1,0.7-0.1,1.1c-0.2-0.3-0.3-0.7,0-1.2c0,0,0.1,0.1,0.1,0.1c0-0.1,0-0.1,0-0.2
		c0,0,0-0.1,0-0.1c0,0-0.1,0.1-0.1,0.1c-0.2-0.3-0.5-0.5-0.6-0.7c0.6-0.5,1.2-1.5,1.6-1.6c0-0.6,0.2-1.3,0.4-2
		c0.2-0.6,0.3-1.2,0.2-1.7c0.1-0.3,0.4-0.2,0.6-0.2c-0.1,0.2-0.2,0.4-0.2,0.5c0.1-0.3,0.4-0.7,0.7-1c0.3-0.3,0.5-0.5,0.5-0.8
		c0.8-0.1-0.2,0.6,0.8,0.1l-0.1,0.2c0.5,0,0.9,0,1.3,0c0.4-0.1,0.8-0.1,1.3-0.1c0.9,0,2.2,0.6,2.5,2c0-0.2-0.1-0.3,0-0.4
		c0.7,1.3,1.3,2.7,1.6,4.4c0.3,1.6,0.3,3.3-0.2,5c-0.2,0.9,0.2,1,0.4,1.6l-0.5,0.2l0.5,1c0.3,1.4-1.2,2.4-0.5,4.2l0.3-0.2
		c-0.1,0.6,0.1,2-0.2,1.9c0,0.1,0.3,0.2,0.2,0.5l-0.2,0l0.4,1.6c-0.2,1.2-0.9-0.2-1,1.5c0.1,0.7,0.6,1.9,0.8,1.6
		c0-0.3,0.2-0.7,0.4-0.7l0.1,0.6c0.7,0.1,1.4,0.6,1.9-0.9l-0.4-1l0.3-0.3V49c0.3-0.5,0.1-0.8-0.1-1.1c0.2-0.1,0.3-0.2,0.4-0.4
		l-0.7-1c0.3-0.1,0.5,0.5,0.7-0.2c-0.3-0.5-0.6,0.4-0.8-0.4c0.3-0.5,0.6-0.3,0.3-0.9c0.2-0.1,0.3,0,0.4,0.3
		c-0.2-0.5-0.1-1.4-0.4-1.6c0.4-0.5,0-1.7,0.6-1.7c-0.2-0.2-0.5-0.9-0.5-1.4c0.8,0.9,0.1-1.8,0.9-1.5c-0.7-0.7-0.2-2.3-0.6-3.5
		c0.1,0.1,0.2,0.2,0.1,0.3c0.1-0.6,0.3-0.8,0.4-1.3c-0.6-0.1-0.7-1.1-1.1-1.7c0.5-0.8,0.7,0.5,1.2,0.2c-0.5,0.1-0.6-1.4-1-1.1
		c0.3-0.7,0.1-0.6,0.5-1c-0.7,0-0.2-0.6-0.8-1.1c0.1-1,0.6-0.4,0.1-1.4c0-0.6,0.6,0.3,0.6,0.3c-0.4-1.1-0.7-0.3-1.1-0.5
		c-0.6-1.2,0.1-0.7,0.2-1.3c-0.3-0.4-0.6-0.7-0.9-0.9c0.1,0,0.2-0.1,0.3-0.1L33.8,26l0.3-0.1l0,0.2c0.3-0.1,0-0.2-0.1-0.3
		c0.2,0,0.3,0,0.4-0.1l-0.7-0.2c0.3,0,0.5,0.1,0.7,0c-0.3-0.1-0.6,0.1-0.8-0.1c0.3-0.1,0.6-0.1,0.3-0.2c0.2,0,0.3,0,0.4,0.1
		c-0.2-0.1-0.1-0.3-0.5-0.4c0.4-0.1-0.1-0.4,0.6-0.4c-0.2,0-0.5-0.2-0.5-0.3c0.8,0.2,0.1-0.4,0.9-0.3c-0.7-0.2-0.3-0.5-0.7-0.8
		c0.1,0,0.2,0.1,0.1,0.1c0.1-0.1,0.3-0.2,0.4-0.2c-0.6-0.1-0.7-0.3-1.1-0.4c0.6-0.1,0.7,0.1,1.2,0.1c-0.5,0-0.5-0.3-0.8-0.3
		c0.4-0.1,0.2-0.1,0.7-0.1c-0.7-0.1-0.1-0.1-0.5-0.3c0.3-0.1,0.6,0,0.5-0.1c-0.1,0-0.3,0-0.4-0.1c-0.1-0.3,0.4-0.1,0.7-0.1
		c-0.1-0.2-0.6-0.3-0.6-0.5c0.1,0,0.1,0,0.2,0c-0.4-0.2,0.1-0.5-0.5-0.7c0,0,0.1,0,0.1,0c-0.3,0-0.6-0.1-0.8-0.1
		c0-0.1-0.3-0.2,0-0.2c0,0.1,0.1,0.1,0.2,0.1l-0.1-0.1c0.5,0,0.2,0.2,0.5,0.2c-0.1-0.2-0.5-0.5-0.3-0.6c0.5,0.1,0.1,0.4,0.6,0.3
		l-0.2,0.2c0.8,0-0.1,0.1,0.8,0.1c0.2-0.2-0.2-0.3,0-0.6c-0.3-0.1-0.4-0.1-0.7-0.2c-0.4-0.5,1.3,0,0.7-0.4c-0.3-0.2-0.9-0.4-0.5-0.5
		l0.5,0.2c0.1-0.2-0.7-0.4-0.3-0.5c0.2,0.1,0.1,0.3,0.2,0.2c0.5,0-0.3-0.2-0.2-0.4l0.5,0.1c0-0.3-0.2-0.7-0.2-1
		c0.1,0.1,0.2,0.2,0.4,0.2c-0.1-0.5,0.4-0.7,0.8-0.7l-0.3-0.4c0,0,0.2,0.1,0.2,0.2c0.2,0-0.2-0.2-0.3-0.3c0-0.1,0.3,0.1,0.3,0.2
		c-0.2-0.4-0.2-1.1,0.3-0.9l0.1,0.1c0.3,0-0.5-0.8,0-0.6l0,0.1c0.4-0.1,0.6-0.8,1.2-0.3c-0.2-0.6,0.5,0.1,0.1-0.7
		c0.4,0.3,0.4,0.5,0.8,0.6c0.1,0-0.1-0.5,0-0.7l0.1,0.5c0-0.2,0-0.3,0-0.5l0.2,0.5l0.1-0.1c0,0-0.1-0.2-0.1-0.3
		c0.1-0.2,0.4,0.3,0.4,0.5c0.1-0.1,0.2-0.3,0.3-0.4c0,0.2-0.1,0.2-0.1,0.4c0.1-0.5,0,0.5,0.1,0.1c0-0.1,0-0.3,0-0.4
		c0,0.3,0.2,0.3,0.3,0.2l-0.1,0.3c0.1,0.1,0.4-0.1,0.6,0c0-0.2,0.2-0.7,0.4-0.7l-0.2,0.5c0.2-0.2,0-0.2,0.3-0.5
		c0.1,0.1-0.2,0.5-0.3,0.6l0.2-0.1c-0.1,0.1-0.1,0.2-0.2,0.3c0.2-0.2-0.2,0.5,0.2,0.1l-0.1,0.1c0.1,0.1,0.3,0.1,0.5,0.2
		c0.3-0.3,0.3-0.2,0.6-0.3c0,0.2-0.2,0.6,0,0.7c0.3,0,0.3-0.2,0.6-0.2c-0.3,0.2-0.2,0.4-0.5,0.4c0.2,0.2,0.2,0.2,0.6,0.4
		c0.1-0.1,0.2-0.2,0.3-0.2c0.1,0-0.1,0.2-0.3,0.2h0c0.3,0.1,0.1,0.4-0.1,0.7c-0.2,0.3-0.4,0.5,0,0.6l0,0c0.1,0.1,0.3,0.2,0.5,0.3
		c0,0.2-0.3-0.1-0.5,0.1c0.7,0.3,0,0.6,0.4,0.9c-1.1,0.2,0.1,0.9-0.7,1.2l0.3,0c0.3,0.1-0.2,0.1-0.2,0.2c0.2,0,0.2-0.1,0.4,0
		c0.3,0.8-0.5,1.6-0.8,2.4c-0.1,0.3,1.4,0.3,0.7,0.6l-0.5-0.2c0.5,0.7-0.1,1.3,0.3,1.9c-0.1-0.1-0.3-0.1-0.2-0.1
		c-0.4,0.1-0.1,0.5,0.2,0.5c0,0.1-0.3,0-0.4,0c-0.2,0.1,0.4,0.4,0.1,0.4c-0.1,0-0.1,0-0.1-0.1c0.2,0.1-0.1,0.4,0.3,0.3
		c-0.2,0.2,0.2,0.5-0.1,0.6c0.5,0.2-0.3,0.4,0.4,0.5c-0.7-0.1-0.6,0.3-0.3,0.5c-0.2-0.1-0.2,0.1-0.5,0c0,0.2,0.1,0.3,0.5,0.3
		c-0.8,0.2,0.6,0.7-0.5,0.8c0.3,0.5,0.5,1,0.7,1.4c-0.7-0.1,0-0.5-0.7-0.5c0.2,0.5,0.8,0.7,0.6,1.1c-0.1,0.1-0.3-0.1-0.4-0.1
		c0.2,0.4-0.1,0.8,0.2,1.2c-0.1,0-0.1,0-0.2-0.1c0,0.1-0.1,0.2,0.2,0.2L42,32.2c0.5-0.1,0.9,0.4,1.2,0.4c-0.9-0.2-0.2,0.4-1.3,0.1
		c0,0,0.2,0.1,0.4,0.1c-0.1,0.1-0.2,0.1-0.4,0c0.2,0.3,0.5,0.2,0.5,0.4c-0.2,0-0.2-0.1-0.4-0.1c0.3,0.1,0.6,0.3,0.4,0.5
		c-0.1,0-0.2,0-0.2-0.1c0,0.4,0.8,0.6,0.5,1c-0.6-0.1-0.2,0.1-0.8,0.1l0.2,0.2l0.3-0.1c0,0.2,0.4,0.4,0.2,0.5l-0.2-0.1l0.1,0.3
		l0.2-0.2c0.3,0.2,0.7,0,0.5,0.2c-0.1,0,0,0.2-0.3,0.3c0.2,0.1,0.4,0.2,0.2,0.3c-0.2,0-0.6,0-0.7,0c0.5,0.1,0.1,0.4,0.6,0.5
		c-0.1,0-0.4,0-0.5,0l0.4,0.1c-0.1,0.1-0.2,0.1-0.4,0.1c-0.1,0.2,0.7-0.1,0.4,0.2c0,0-0.1,0-0.2-0.1c-0.2,0.3,0.2,0.6,0.1,0.9
		c-0.6,0.1-0.1-0.2-0.6-0.1c0.1,0.4,0.7,0.8,0.6,1.2l0.1-0.1c0.8,0-0.4,0.3,0,0.5c-0.1-0.1-0.4,0-0.4,0c-0.1,0.3,0.2,0.5,0.5,0.9
		l-0.2,0c-0.2,0.2-0.1,0.4-0.2,0.6c0.2,0,0.2,0.1,0.5,0c-1.1,0.6,0.7,0.9-0.2,1.5c0,0-0.2-0.1-0.2-0.1l0.2,0.4
		c0.3-0.1,0.2-0.1,0.5-0.2c0.2,0,0.4,0.1,0.4,0.2c-0.2-0.2-0.5,0.1-0.7,0.2c0.1,0,0.2,0,0.3,0c-0.6,0.3,0.7,0,0.3,0.3l-0.2,0
		c0.1,0.1,0.4,0.2,0.3,0.3c-0.4,0.1-0.2-0.1-0.5,0c0,0.2,0.8,0.2,0.4,0.4c-0.1,0-0.1-0.1-0.2-0.2c-0.5,0.2-0.3,0.2-0.4,0.3l0,0
		l-0.1,0.1L42.7,44c0,0,0,0,0.1-0.1l-0.1,0.1l0.1-0.1c1.1,0,0.3,0.4,1,0.5c-0.7-0.1-0.4,0-0.8,0.1c-0.1,0.1-0.2,0.2-0.4,0.2
		c0.4,0.1-0.2,0.3,0.3,0.3c-0.1,0,0,0.1-0.4,0.2c0.1,0.1,0.2-0.1,0.4-0.1c0.5,0.2-0.5,0.7,0.3,0.9c0.4,0.2,0.8,0.2,1.1,0.4
		c-0.2,0.1-0.5,0-0.5,0c-0.2,0.2-0.1,0.3,0.1,0.4c-0.1,0-0.2,0.1-0.4,0.1c0.1,0.1,0.5-0.1,0.4,0.1c-0.2,0-0.4,0.1-0.6,0
		c0.2,0.1,0.5,0.2,0.6,0.3c-0.2,0.1-0.4,0-0.6,0c0.2,0.1,0.3,0.4,0.7,0.3l0.1-0.1c0,0-0.3,0.1-0.4,0.1c-0.3,0,0.1-0.2,0.2-0.3
		l0.1,0.1c0.8-0.3-0.2-0.4-0.3-0.6l0.6-0.1L44,47c0.2-0.1,0.5-0.2,0.6-0.1c0.3-0.2-0.2-0.1,0.1-0.3c0,0,0.1,0,0.1,0l-0.2-0.1
		c0.1,0,0.4-0.1,0.3,0c0.3-0.3-0.5-0.3-0.1-0.5l0,0c-0.3-0.3-0.5,0.1-1-0.1l1.1-0.4l-0.5,0.1c0,0,0-0.1,0.2-0.1
		c-0.3-0.1-0.2,0.1-0.5,0c0.4-0.2-0.3-0.5,0.4-0.6c-0.4,0-0.2,0.2-0.5,0.1c0.8-0.2-0.2-0.2,0.2-0.4c0.4,0,0.2,0.2,0.6-0.1
		c-0.6,0-0.1-0.2,0-0.4c0.1,0,0.2,0,0.3-0.1c0,0-0.1,0-0.3,0c0,0,0,0,0,0c-0.5,0.1-0.3-0.2-0.5-0.5c0.2,0,0.2-0.5,0.4-0.7l0.1,0
		c-0.5,0-0.5-0.2-0.6-0.3c0.3,0,0.5,0,0.6,0l0-0.1l0,0c0.1,0,0.1,0,0.2,0l-0.2,0l0,0c-0.2,0-0.3,0-0.4-0.1l0.4,0
		c-0.1-0.2-0.5-0.3-0.3-0.6c-0.4,0-1,0.3-1.3,0.1c0.2,0,0.6-0.1,0.7,0c0,0-0.2-0.1-0.1-0.1l0.4,0.1c0.1-0.1-0.3,0-0.3-0.1
		c0.3,0,0.2-0.1,0.4-0.1c0,0-0.1,0.1,0,0.1c0-0.1,0.2-0.2,0.4-0.3c-0.2,0-0.4,0-0.4,0c0-0.2,0.3-0.1,0.5-0.2c-0.2,0,0-0.2-0.5-0.1
		c0-0.1,0.2-0.1,0.3-0.1c-0.2-0.1-0.1-0.5-0.6-0.3l0,0c0,0,0,0,0,0c-0.5-0.3,0.2-0.7,0-1l0.2,0c-0.2-0.2-0.1-0.4-0.5-0.6
		c0-0.1,0.3-0.2,0.4-0.1c-0.1-0.2-0.3-0.2,0-0.4c0.3,0.2,0.2-0.1,0.2,0.2c0.1-0.2,0.4-0.2,0-0.5c0.4,0.1,0.5-0.2,0.4-0.2l-0.3,0.1
		c-0.1-0.1,0-0.2,0-0.3l0.5,0c0.6-0.4-1-0.7,0-1c-0.4-0.1-0.2,0.2-0.7,0.1c0.1-0.2,0.8-0.4,0.8-0.4c0.3-0.2-0.7-0.2-0.5-0.5
		c-0.2,0-0.6,0-0.8-0.2c0.1-0.2,0.8-0.2,0.9-0.1c0,0,0,0.1-0.1,0.1c0.1,0.1,0.1,0.1,0.3,0.1l-0.2,0c0.2-0.1,0.2-0.3,0.5-0.3
		c-0.2-0.2-0.3-0.1-0.4,0c0.3-0.2,0-0.4,0.2-0.6c-0.1,0-0.3,0.1-0.3,0c0.2-0.4-0.3-0.2-0.4-0.4c0.3-0.1,0.7,0.1,0.4-0.2
		c0.2-0.1,0.5,0,0.6,0.1c-0.3-0.2,0.2-0.4,0.3-0.5l0.1,0.1c-0.1-0.1-0.1-0.1-0.1-0.2l-0.4,0c0.1-0.1,0.1-0.1,0.2-0.1
		c-0.2-0.1-0.6,0-0.9-0.1c0.2-0.1-0.2-0.3,0.3-0.3c-0.2,0.3,0.5,0,0.5,0.2c-0.1,0-0.1-0.1,0-0.2c0,0,0.1,0,0.1,0
		c0.4-0.3-0.5-0.2-0.5-0.5c0.3,0,0.5,0,0.5-0.1c0,0.1-0.5,0-0.6-0.1c0.2-0.2-0.1-0.2-0.1-0.3l-0.1,0.1c-0.3,0-0.2-0.2-0.3-0.3
		c0.1,0,0.1,0,0.1,0c-0.1-0.1,0.6-0.3,0.3-0.5c0.2-0.1,0.5,0,0.6,0c-0.3-0.2,0.4-0.2,0.1-0.5c-0.4,0-0.3,0.1-0.6-0.1l0.2,0.4
		l-0.5-0.3c0,0.1,0.2,0.3,0.1,0.3c-0.3-0.1-0.2-0.1-0.5-0.1c0.5-0.1-0.3-0.3,0.1-0.5l0.9,0.1c0.4-0.2-0.4-0.5-0.2-0.9l-0.2,0.1
		c-0.4-0.1,0-0.2-0.2-0.4c0.3,0,0.4,0,0.6-0.1c-0.2,0,0-0.3-0.5-0.3l0.4-0.1c0.2-0.3-0.8-0.4-0.7-0.7c0.3,0.1,0.5,0,0.8,0.2
		c0-0.1,0.1-0.2-0.1-0.2c0.2,0-0.4-0.3-0.1-0.4c-0.1,0-0.4-0.1-0.4-0.2c0.1,0,0.1,0,0.1,0c-0.1,0-0.2-0.2-0.5-0.1c1-0.2,0-0.8,0.8-1
		c-0.1-0.2-0.2-0.5-0.2-0.7c0.1,0,0.2,0,0.1,0c0.3-0.2-0.8-0.2-0.5-0.5c0.5-0.1,0.2,0.2,0.4,0.1c1,0-0.1-0.4,0.5-0.5l0,0.1
		c0.3-0.1-0.3-0.4-0.2-0.7c0,0,0.1,0,0.2,0c-0.5-0.2-0.6-0.5-0.7-0.8c0.4,0.1,0.2,0.1,0.6,0.1c0-0.1-0.6,0-0.7-0.2
		c0.2,0,0.4-0.2,0.8-0.2l0,0.2c0.5-0.1,0-0.3,0.1-0.4l0.2,0c-0.1-0.3-0.6-0.4-0.6-0.7l-0.2,0c-0.6-0.2,0.3-0.1-0.1-0.3l0.6,0
		c-0.1-0.1-0.5-0.5-0.6-0.7c0.4,0.2,0.6,0.4,0.9,0.6c0-0.1,0-0.4-0.3-0.5c0,0,0.2,0.1,0.1,0.2c-0.5-0.2-0.7-0.4-0.6-0.6
		c1.1,0.1,0.3-0.6,1.2-0.7c-0.4-0.5,0.2-0.9,0.2-1.4c-0.9,0.2,0-0.2-0.9-0.1c-0.1-0.1,0-0.2,0-0.2l0.5-0.4c0.3-0.1,0.2,0.1,0.4,0.1
		c0.1-0.3,0.4-0.1,0.6-0.3c-0.3,0.1-0.5-0.1-0.4-0.2l-0.4,0.3c-0.5-0.3,0.7-0.4,0.2-0.8l0.3,0.1c-0.2-0.2-0.1-0.8-0.9-0.9
		c0.1-0.1,0.3-0.2,0.4-0.1c0-0.6-1-0.9-0.8-1.5l0.2,0c-0.1-0.1-0.5,0-0.3-0.2c0.1,0,0.2,0,0.2-0.1c-0.1,0-0.5-0.1-0.4-0.3l0.3,0
		c0-0.6-0.7-0.5-1.1-0.6c0,0,0,0,0,0l0.6,0.1l-0.5-0.2c0.2-0.1,0.5-0.1,0.6,0c0.3-0.2-0.2-0.1,0.1-0.3c0,0,0.1,0,0.1,0L45,13.4
		c0.1,0,0.4,0,0.3,0.1c0.4-0.3-0.5-0.4,0-0.6l0,0c-0.2-0.4-0.5,0-1-0.3l1.1-0.2L45,12.3c0,0,0-0.1,0.2-0.1c-0.3-0.2-0.2,0-0.5-0.1
		c0.4-0.2-0.2-0.6,0.6-0.6c-0.3-0.1-0.3,0.2-0.5-0.1c0.8,0-0.1-0.3,0.3-0.4c0.4,0.1,0.2,0.2,0.5,0.1c-0.6-0.2,0.1-0.3,0.1-0.5
		c0.1,0,0.2,0,0.3,0c0,0-0.4-0.1-0.6-0.1c-0.1-0.1,0.1-0.3,0-0.5c0.2,0,0.4-0.4,0.6-0.6l0.1,0c-0.5-0.2-0.4-0.4-0.4-0.6
		c0.3,0.1,0.4,0.2,0.5,0.3c0,0,0-0.1,0-0.1c0,0,0.1,0.1,0.2,0.1l-0.2-0.1l0,0C46.1,9.1,46,9,46,8.9L46.4,9c0-0.2-0.3-0.6,0-0.7
		c-0.3-0.2-1.1-0.2-1.2-0.6c0.2,0.1,0.5,0.2,0.6,0.3c0,0-0.1-0.1,0-0.2l0.3,0.2c0.2,0-0.2-0.2-0.2-0.3c0.3,0.1,0.2,0,0.4,0.1
		c0,0-0.1,0-0.1,0.1C46.4,8,46.6,8,46.8,8.1c-0.2-0.1-0.4-0.2-0.4-0.3c0.1-0.2,0.4,0.1,0.5,0.1c-0.2-0.1,0.1-0.1-0.3-0.4
		c0,0,0.2,0,0.3,0.1c-0.1-0.2,0.2-0.4-0.2-0.6l0,0c0,0,0,0,0,0c0,0,0,0,0,0l0,0c0,0,0,0,0,0c-0.1-0.6,0.7-0.4,0.7-0.8l0.1,0.1
		c0-0.2,0.3-0.4,0.2-0.7c0.1,0,0.3,0.1,0.4,0.3c0.1-0.2,0-0.3,0.3-0.2c0,0.3,0.2,0.2,0,0.2c0.2,0,0.4,0.2,0.3-0.2
		C48.8,6.1,49,6.1,49.1,6l-0.2-0.2c0.1-0.1,0.2-0.1,0.3-0.1l0.1,0.5c0.3,0.2,0.3-0.1,0.4-0.3c0.1-0.2,0.2-0.4,0.5,0.1
		c0-0.4-0.2-0.2-0.2-0.6c0.2,0,0.5,0.7,0.5,0.7c0.2,0.2,0.2-0.7,0.5-0.6c0-0.2-0.1-0.6,0.1-0.8c0.2,0.1,0.3,0.8,0.1,0.9
		c0,0-0.1,0-0.1-0.1C51,5.4,50.9,5.5,51,5.7l0-0.2c0.1,0.2,0.4,0.2,0.3,0.5c0.1-0.2,0.1-0.3,0-0.4c0.2,0.2,0.4,0,0.6,0.2
		c0-0.1-0.1-0.3,0-0.3c0.3,0.2,0.2-0.3,0.5-0.4c0.1,0.3-0.1,0.6,0.1,0.4c0.1,0.2,0,0.5-0.1,0.6c0.3-0.3,0.3,0.3,0.4,0.4l-0.1,0.2
		c0.1-0.1,0.1-0.1,0.2,0l0-0.4c0,0.1,0.1,0.1,0,0.2C53,6.3,53,5.9,53.2,5.7c0,0.2,0.3-0.1,0.2,0.4c-0.2-0.2-0.1,0.5-0.3,0.5
		c0,0,0.1,0,0.1,0.1c0,0,0,0.1-0.1,0.1c0,0.5,0.3-0.5,0.5-0.4c-0.1,0.2-0.2,0.5-0.1,0.4c-0.1,0,0.1-0.4,0.3-0.6c0,0.3,0.2-0.1,0.3,0
		c0-0.1,0-0.1,0-0.1c0.2-0.2,0.2-0.2,0.4-0.2C54.3,6,54.2,5.9,54.2,6c0.4-0.3,0,0.6,0.3,0.4c0,0.2-0.3,0.4-0.3,0.5
		c0.4-0.2-0.1,0.4,0.2,0.3C54.6,7,54.5,7,54.9,6.9l-0.4,0c0.2-0.1,0.3-0.2,0.5-0.2c-0.1-0.1-0.3,0-0.3-0.1c0.3-0.2,0.2-0.1,0.4-0.3
		c-0.3,0.5,0.5,0,0.3,0.4l-0.7,0.6c-0.2,0.4,0.6,0,0.6,0.5l0.1-0.2c0.3-0.2,0.1,0.2,0.3,0.2c-0.3,0.2-0.3,0.3-0.5,0.4
		c0.2-0.1,0.1,0.2,0.6,0l-0.3,0.3c0,0.3,0.9,0,0.9,0.3c-0.3,0-0.5,0.2-0.8,0.1c0,0.1,0,0.2,0.2,0.1c-0.2,0.1,0.4,0.1,0.2,0.2
		c0.1,0,0.4-0.1,0.4,0c-0.1,0-0.1,0-0.1,0c0.1,0,0.2,0.1,0.5,0c-0.4,0.2-0.4,0.4-0.3,0.6c0,0.2,0.1,0.4-0.3,0.6l0,0l-0.1,0.1
		c0,0,0.1,0,0.1,0c0.1,0.2,0.2,0.5,0.2,0.7c-0.1,0-0.1,0-0.1,0c-0.3,0.3,0.9,0.2,0.5,0.5c-0.5,0.2-0.3-0.2-0.4-0.1
		c-1,0,0.1,0.4-0.5,0.6l-0.1,0c-0.3,0.2,0.3,0.4,0.3,0.7c0,0-0.1,0-0.1,0c0.5,0.2,0.6,0.6,0.8,0.9c-0.4-0.1-0.2-0.1-0.6-0.1
		c0,0.1,0.6,0,0.7,0.2c-0.2,0.1-0.4,0.2-0.8,0.2l0-0.2c-0.5,0.1,0,0.3-0.1,0.4l-0.2,0c0.1,0.4,0.7,0.4,0.6,0.8l0.2,0
		c0.6,0.2-0.3,0.2,0.1,0.4l-0.6,0c0.1,0.2,0.6,0.5,0.7,0.8c-0.4-0.1-0.7-0.5-0.9-0.6c0,0.1,0,0.5,0.3,0.6c-0.1-0.1-0.2-0.1-0.1-0.2
		c0.5,0.2,0.7,0.4,0.7,0.7c-1.2,0-0.3,0.7-1.2,0.9c0.4,0.5-0.1,0.9-0.1,1.5c0.9-0.2,0,0.2,0.9,0.1c0.1,0.1,0,0.2,0,0.2L56,19.5
		c-0.3,0.1-0.2-0.1-0.4-0.1c-0.1,0.3-0.4,0.1-0.6,0.3c0.3,0,0.5,0.1,0.3,0.2l0.4-0.2c0.5,0.4-0.8,0.3-0.3,0.7l-0.3-0.1
		c0.2,0.2,0,0.8,0.8,0.9c-0.1,0-0.4,0.1-0.4,0c-0.1,0.5,0.8,1.1,0.4,1.5l-0.2,0c0.1,0.1,0.4,0.2,0.2,0.3c-0.1,0-0.2,0-0.2,0
		c0.1,0.1,0.4,0.2,0.3,0.4l-0.2-0.1c-0.3,0.5,0.6,0.7,0.8,1.1c-0.7,0-0.9,0.4-1,0.6l-0.1,0c-0.1,0.5,0.5,0.9,0.8,1.4
		c-0.7,0.3-0.3,1.1-0.7,1.6c0.1-0.1,0.5,0,0.6,0.1c-0.1,0.1,0.5,0.3-0.1,0.3l0,0c-0.6,0.1-0.4,0.3-0.5,0.5l0.8,0
		c-1.2,0.5,0.4,1.3-0.6,1.6c0.2,0.1,0.2,0.3,0.4,0.4l-0.4,0c-0.1,0.3-0.2,0.5-0.1,0.9l-0.3-0.1c0,0.2,1.2,0.3,1.2,0.5l-0.6,0.1
		c0,0.4-0.6,0.8,0,1.2c-0.1,0-0.3,0-0.3-0.1c0,0.2-0.5,0.7,0.4,0.7c-0.6,0-0.1,0.4,0.2,0.7l-0.4,0c0.5,0.2,0.7,0.2,0.8,0.5
		c-0.1,0.1-0.3,0-0.2,0c-0.2,0.2,0.4,0.2,0.2,0.4l-0.3-0.1c0,0.2,0.1,0.2,0.4,0.3c0.2,0.1-0.1,0.4-0.5,0.4c0.2,0,0.5,0.2,0.4,0.3
		c-0.1,0-0.2,0-0.3-0.1c-0.3,0.3,0.5,0.5,0.1,0.8c-0.1,0-0.2,0-0.2,0c0-0.3,0-0.5,0.1-0.5c-0.4,0-0.5,0.2-1,0
		c0.3,0.2,0.9,0.5,0.7,0.7c0,0-0.1,0-0.1,0l0,0c0,0,0,0.1,0.1,0.1c-0.1,0.1-0.1,0.1-0.1,0.2c0,0,0,0,0,0c0,0,0,0.1,0,0.1l0,0
		c-0.1,0-0.1,0-0.2,0c0,0,0,0,0,0c-0.1,0.1-0.1,0.2-0.1,0.3c0.4,0,0.3,0.1,0.7,0c0,0-0.1,0-0.1-0.1c0,0,0,0,0,0l0,0l0,0c0,0,0,0,0,0
		c0,0,0.1,0,0.1,0l-0.1,0c0-0.1,0-0.1,0-0.2c0.2,0.1,0.4,0.2,0.1,0.3c0.3,0.1,0.5,0.2,0.7,0.2c-0.6,0.1-0.9,0.4-1.3,0.4
		c0.2,0.4,0.1,0.8,0.9,1.1C56.5,40,56.2,40,56,40c-0.1-0.1-0.1-0.1-0.2-0.2c0.2,0.2,0.1,0.6,0.6,0.7c-0.3,0.2-0.5-0.2-0.4,0.2
		l-0.2,0c-0.9,0.6,1.4,1.2,0.2,1.8c0.1-0.1,0.1-0.1,0.2-0.1c-0.5,0.8,0.4,1.8-0.5,2.6c-0.2,0.2,0.2,0.3,0.4,0.4l-0.5,0l0.5,0.3
		c0.4,0.4-1.2,0.5-0.5,1l0.3,0c-0.1,0.2,0.1,0.5-0.2,0.5c0,0,0.3,0.1,0.2,0.1l-0.2,0l0.4,0.4c-0.2,0.3-0.9-0.1-1,0.3
		c0.1,0.2,0.7,0.5,0.8,0.5c0-0.1,0.2-0.2,0.4-0.1l0.1,0.1l-0.2,0l0.2,0.1l0,0c0.7,0.1,1.4,0.2,1.9-0.1L58,48.1l0.3-0.1l0,0.2
		c0.3-0.1,0-0.2-0.1-0.3c0.2,0,0.3,0,0.4-0.1L58,47.6c0.3,0,0.5,0.2,0.7,0c-0.3-0.1-0.6,0.1-0.8-0.1c0.3-0.1,0.6,0,0.3-0.2
		c0.2,0,0.3,0,0.4,0.1c-0.2-0.1-0.1-0.4-0.4-0.4c0.4-0.1-0.1-0.5,0.6-0.4c-0.2,0-0.5-0.3-0.5-0.4c0.8,0.3,0.1-0.4,0.9-0.3
		c-0.7-0.2-0.3-0.6-0.7-0.9c0.1,0,0.2,0.1,0.1,0.1c0.1-0.2,0.3-0.2,0.4-0.3c-0.6-0.1-0.7-0.3-1.1-0.5c0.6-0.2,0.7,0.2,1.2,0.1
		c-0.5,0-0.5-0.4-0.9-0.3c0.4-0.1,0.2-0.1,0.7-0.2c-0.7-0.1-0.1-0.2-0.6-0.3c0.4-0.2,0.7,0,0.5-0.3c0.2-0.2,0.5,0.1,0.5,0.1
		c0-0.2-0.5-0.1-0.8-0.2c-0.1-0.3,0.4-0.1,0.7-0.2c-0.1-0.2-0.6-0.4-0.6-0.5c0.1,0,0.1,0,0.2,0c-0.4-0.2,0-0.6-0.5-0.8
		c0,0,0.1,0,0.1,0c-0.3,0-0.6,0-0.8,0c0-0.1-0.3-0.2,0-0.2c0,0.1,0.1,0.1,0.2,0.1l-0.2-0.1c0.5-0.1,0.2,0.2,0.6,0.2
		c-0.2-0.2-0.6-0.5-0.4-0.7c0.5,0,0.2,0.4,0.6,0.2l-0.2,0.3c0.8-0.2-0.1,0.2,0.8,0c0.2-0.3-0.2-0.4-0.1-0.8c-0.3-0.1-0.4,0-0.7-0.1
		c-0.5-0.5,1.3-0.3,0.6-0.7c-0.3-0.1-1-0.2-0.6-0.4l0.6,0.1c0.1-0.3-0.8-0.2-0.4-0.6c0.2,0.1,0.2,0.3,0.2,0.2
		c0.5-0.2-0.3-0.2-0.3-0.3l0.5,0c-0.1-0.4-0.4-0.8-0.5-1.2c0.1,0,0.3,0.1,0.5,0C58.7,37,59,36.5,59.4,36l-0.4-0.2c0,0,0.2-0.1,0.3,0
		c0.2-0.2-0.3,0-0.5-0.1c0-0.1,0.3-0.1,0.4-0.1c-0.4-0.3-0.8-1-0.3-1.3l0.1,0.1c0.2-0.3-0.9-0.3-0.5-0.6l0.1,0
		c0.2-0.6-0.2-1.2,0.5-1.7c-0.6-0.1,0.3-0.6-0.6-0.6c0.4-0.3,0.6-0.2,0.9-0.7c0-0.1-0.5-0.2-0.6-0.4h0.5l-0.5-0.2l0.5-0.1L59.2,30
		c0,0,0,0,0-0.1l0,0c0,0.1-0.2,0.1-0.3,0.1c-0.2-0.2,0.3-0.6,0.6-0.6L59,29c0.2,0,0.2,0.1,0.4,0.2c-0.5-0.3,0.5,0,0.1-0.3
		c-0.1,0-0.3,0-0.4,0c0.3-0.1,0.3-0.4,0.2-0.7l0.3,0c0.1-0.4-0.1-0.9-0.1-1.3c-0.1,0.2-0.7,0.1-0.8,0l0.5,0c-0.3-0.1-0.2,0.1-0.6,0
		c0.1-0.2,0.6-0.1,0.7,0l-0.2-0.2c0.1,0,0.2,0,0.4,0.1c-0.3-0.1,0.5-0.4,0-0.5l0.1,0c0-0.5-0.2-0.7-0.2-1c-0.4,0-0.3-0.2-0.7-0.3
		c0.1-0.3,0.5-0.6,0.4-0.9c-0.2-0.2-0.4-0.1-0.6-0.2c0.4,0,0.4-0.3,0.6-0.2c-0.1-0.4-0.1-0.5-0.4-1c-0.2,0.1-0.2,0.1-0.4,0.1
		c-0.1-0.1,0.2-0.2,0.3-0.2l0,0c-0.6-0.5,1.1-1.3,0.3-1.7l0,0l-0.4-0.5c0.1-0.2,0.3,0.1,0.5,0c-0.6-0.5,0.1-0.8-0.4-1.2
		c1.1-0.3-0.1-1.1,0.6-1.6l-0.3,0c-0.3-0.1,0.1-0.1,0.2-0.2c-0.2,0-0.2,0.1-0.4,0.1c-0.2-0.5-0.1-1,0.1-1.4c0.2-0.4,0.4-0.8,0.6-1.3
		c0.1-0.3-1.4-0.3-0.7-0.7l0.5,0.1c-0.2-0.3-0.3-0.6-0.2-0.9c0.3,0.3,0.6,0.6,0.9,0.7L60,13.5l0.3,0.2l-0.1,0.1
		c0.3,0.2,0.1-0.1,0-0.2c0.1,0.1,0.2,0.2,0.3,0.2l-0.4-0.6c0.2,0.2,0.3,0.4,0.5,0.5c-0.2-0.3-0.5-0.4-0.5-0.6
		c0.3,0.2,0.4,0.4,0.3,0.1c0.1,0.1,0.2,0.2,0.2,0.3c-0.1-0.2,0.1-0.2-0.2-0.5c0.3,0.2,0.1-0.2,0.6,0.2c-0.1-0.1-0.3-0.5-0.2-0.5
		c0.5,0.6,0.2-0.1,0.8,0.5c-0.4-0.6,0-0.4-0.2-0.8c0,0.1,0.1,0.2,0.1,0.1c0.1,0,0.2,0.2,0.4,0.2c-0.4-0.5-0.3-0.6-0.5-1
		c0.4,0.4,0.4,0.6,0.7,1c-0.3-0.4-0.2-0.5-0.4-0.8c0.2,0.3,0.1,0.1,0.4,0.5c-0.4-0.6,0-0.1-0.2-0.5c0.2,0.3,0.4,0.6,0.3,0.4
		c0.1,0.2,0.2,0.5,0.2,0.5c0.1,0-0.2-0.5-0.4-0.8c0-0.2,0.2,0.4,0.4,0.6c0-0.1-0.2-0.6-0.1-0.6c0,0.1,0,0.1,0.1,0.2
		c-0.1-0.4,0.1-0.1,0.1-0.6c0,0.1,0,0.1,0,0.1c-0.1-0.3-0.1-0.5-0.2-0.7c0,0,0-0.4,0.1,0c0,0,0,0.1,0,0.3l0-0.2c0.1,0.5,0,0.2,0,0.6
		c0-0.2,0.1-0.6,0.2-0.5c0.1,0.5-0.1,0.2,0,0.6l-0.1-0.2c0.2,0.8-0.1-0.1,0.2,0.8c0.1,0.1,0.1-0.3,0.2-0.1c0-0.3,0-0.4,0-0.7
		c0.2-0.5,0.2,1.3,0.3,0.6c0-0.3,0.1-1,0.2-0.6l-0.1,0.6c0.2,0.1,0.1-0.8,0.3-0.4c0,0.2-0.1,0.2-0.1,0.2c0.1,0.5,0.1-0.3,0.2-0.3
		l0,0.5c0.2-0.1,0.5-0.4,0.6-0.5c0,0.1-0.1,0.3-0.1,0.5c0.2-0.2,0.4,0.2,0.5,0.5l0.2-0.4c0,0,0,0.2-0.1,0.3c0,0.2,0.1-0.3,0.2-0.4
		c0.1,0,0,0.3-0.1,0.4c0.3-0.3,0.7-0.6,0.7-0.1l-0.1,0.1c0,0.2,0.5-0.8,0.5-0.3l-0.1,0.1c0.1,0.2,0.2,0.1,0.2,0.2
		c0.1,0,0.1,0.1-0.1,0.4c0.5-0.4-0.2,0.2,0.6-0.3c-0.3,0.3-0.5,0.4-0.7,0.6c0,0,0.5-0.2,0.6-0.2L66,13.1c0.2,0,0.3-0.1,0.5-0.1
		c-0.2,0.1-0.4,0.1-0.5,0.2c0,0,0.1,0,0.1,0c0,0,0.2-0.1,0.3-0.1c0.2,0-0.2,0.3-0.5,0.4l0.4,0.2c-0.2,0-0.3,0-0.4,0
		c0.5,0-0.5,0.1,0,0.2c0.1,0,0.3,0,0.4-0.1c-0.3,0.1-0.2,0.3-0.1,0.4l-0.3,0c0,0.2,0.2,0.4,0.3,0.7c0.1-0.1,0.7-0.2,0.8-0.1
		l-0.5,0.1c0.3,0,0.2-0.1,0.6-0.1c0,0.1-0.5,0.1-0.7,0.1l0.2,0.1c-0.1,0-0.2,0-0.4,0c0.3,0-0.4,0.3,0.1,0.2l-0.1,0
		c0,0.2,0.2,0.3,0.3,0.5c0.4-0.1,0.3,0,0.7,0.1c-0.1,0.2-0.4,0.4-0.4,0.6c0.2,0.1,0.4,0,0.6,0c-0.4,0.1-0.3,0.2-0.6,0.2
		c0.1,0.2,0.1,0.3,0.5,0.5c0.1,0,0.2-0.1,0.3-0.1c0.1,0-0.2,0.1-0.3,0.1l0,0c0.6,0.3-1,0.8-0.2,1l0,0l0.4,0.2
		c-0.1,0.1-0.3,0-0.5,0.1c0.7,0.2-0.1,0.4,0.4,0.6c-1.1,0.2,0.1,0.6-0.6,0.9l0.3,0c0.3,0-0.1,0.1-0.2,0.1c0.2,0,0.2-0.1,0.4,0
		c0.3,0.5-0.4,1.1-0.6,1.7c-0.1,0.2,1.4,0.1,0.8,0.3L66.6,22c0.6,0.4,0,0.8,0.5,1.2c-0.1,0-0.3,0-0.3-0.1c-0.4,0.1,0,0.3,0.3,0.3
		c0,0.1-0.3,0-0.4,0.1c-0.2,0.1,0.5,0.2,0.1,0.3c-0.1,0-0.1,0-0.1,0c0.2,0,0,0.3,0.4,0.2c-0.2,0.2,0.2,0.3-0.1,0.4
		c0.5,0.1-0.2,0.3,0.4,0.3c-0.7,0-0.5,0.3-0.2,0.4c-0.2,0-0.2,0.1-0.5,0c0,0.1,0.1,0.2,0.5,0.2c-0.8,0.2,0.7,0.4-0.4,0.5
		c0.4,0.3,0.6,0.6,0.8,0.9c-0.7,0-0.1-0.3-0.8-0.3c0.3,0.3,0.9,0.4,0.7,0.7c-0.1,0.1-0.3,0-0.4-0.1c0.3,0.3-0.1,0.5,0.3,0.8
		c-0.1,0-0.1,0-0.2,0c0,0-0.1,0.1,0.2,0.1l-0.1,0c0.5-0.1,0.9,0.2,1.2,0.2c-0.9-0.1-0.2,0.2-1.3,0.1c0.1,0,0.2,0.1,0.4,0.1
		c-0.1,0-0.2,0.1-0.4,0c0.2,0.2,0.5,0.1,0.5,0.3c-0.2,0-0.2,0-0.4,0c0.3,0.1,0.6,0.2,0.5,0.3c-0.1,0-0.2,0-0.2,0
		c0,0.2,0.8,0.4,0.5,0.6c-0.6-0.1-0.2,0.1-0.8,0.1l0.2,0.1l0.3-0.1c0,0.1,0.4,0.2,0.2,0.3l-0.2-0.1l0.1,0.2l0.2-0.1
		c0.3,0.1,0.7,0,0.5,0.2c-0.1,0,0,0.1-0.3,0.2c0.2,0.1,0.4,0.1,0.2,0.2c-0.2,0-0.6,0-0.7,0c0.5,0.1,0.1,0.3,0.6,0.4
		c-0.1,0-0.4,0-0.5,0l0.4,0.1c-0.1,0-0.2,0.1-0.4,0c-0.1,0.2,0.7,0,0.4,0.2c0,0-0.1,0-0.1,0c-0.2,0.2,0.2,0.4,0,0.6
		c-0.6,0-0.1-0.2-0.6-0.1c0.1,0.3,0.7,0.5,0.5,0.8l0.1,0c0.8,0.1-0.4,0.2,0,0.3c-0.1,0-0.4,0-0.4,0c-0.1,0.2,0.2,0.4,0.4,0.6l-0.2,0
		c-0.2,0.1-0.1,0.3-0.2,0.4c0.2,0,0.2,0.1,0.5,0.1c-1.2,0.3,0.6,0.7-0.4,0.9c0,0-0.2-0.1-0.2-0.1l0.2,0.3c0.3,0,0.2,0,0.5-0.1
		c0.2,0,0.4,0.1,0.4,0.2c-0.2-0.1-0.6,0-0.8,0c0.1,0,0.2,0,0.3,0c-0.6,0.1,0.7,0,0.3,0.2l-0.2,0c0.1,0.1,0.3,0.2,0.3,0.2
		c-0.4,0-0.2-0.1-0.5-0.1c0,0.1,0.8,0.2,0.4,0.3c-0.1-0.1-0.1-0.1-0.2-0.2c-0.5,0.1-0.4,0.1-0.4,0.2l-0.2,0.2l0.1,0
		c1,0.2,0.2,0.3,0.9,0.5c-0.6-0.2-0.4,0-0.8-0.1c-0.1,0-0.3,0.1-0.4,0.1c0.4,0.1-0.3,0.1,0.2,0.3c-0.2,0,0,0.1-0.4,0
		c0.1,0.1,0.3,0,0.4,0c0.5,0.2-0.6,0.3,0,0.6c0.2,0.2,0.7,0.3,0.9,0.4c0,0,0,0,0,0c-0.2,0-0.4-0.1-0.4-0.1c-0.2,0.1-0.2,0.2,0,0.3
		c-0.1,0-0.2,0-0.4,0c0,0.1,0.5,0.1,0.3,0.2c-0.2,0-0.4-0.1-0.6-0.1c0.1,0.1,0.4,0.2,0.5,0.3c-0.3,0-0.4-0.1-0.5-0.1
		c0.1,0.1,0.2,0.3,0.6,0.3l0.2-0.1c0,0-0.4,0-0.4,0c-0.3-0.1,0.2-0.1,0.3-0.1l0.1,0.1c0.9,0-0.1-0.3-0.1-0.4l0.3,0c0,0,0,0,0,0.1
		l0.1-0.1l0.3,0c0,0.2-0.2,0.4-0.5,0.6c0,0,0,0,0,0c-0.2-0.1-0.5-0.1-0.9-0.1c0.4,0.1,0.3,0.1,0.8,0.2c0,0-0.1,0.1-0.1,0.1
		c0,0-0.1,0-0.1,0c0.1,0,0,0.1,0.1,0.1c0,0-0.1,0.1-0.1,0.1l-0.4-0.1l0.1,0.1c0,0,0.1,0,0.2,0c0,0,0,0,0,0c-0.2,0.2-0.3,0.5-0.3,0.8
		c0-0.3-0.3-0.5-0.2-0.4c-0.4,0.7-0.4,1.5-0.4,2.2c0.1,0.7,0.2,1.4,0.3,2.3l-0.2-0.2c-0.2,0.7-0.2,1.8-0.3,2.5
		c0.2,0.2,0.2,0.6,0.5,0.4c-1.2,2.3,0.5,4.4-0.5,6.4c0-0.2-0.2-0.6-0.2-0.4l0.1,1.7c0.3-0.1,0.2-0.2,0.5-0.6
		c0.2,0.2,0.3,0.7,0.3,1.1c-0.2-0.8-0.6,0-0.8,0.3c0.1,0,0.2,0.1,0.3,0c-0.6,0.9,0.7,0.2,0.2,1.4l-0.2-0.1c0.1,0.5,0.3,0.9,0.2,1.4
		c-0.4,0.2-0.2-0.5-0.5-0.5c0,0.2,0,0.4,0.1,0.5c0.1,0.2,0.1,0.3,0.2,0.5c0.1,0.3,0.2,0.7,0,0.9c-0.1-0.3-0.1-0.7-0.2-1
		c-0.5,0.4-0.4,0.4-0.5,0.7l0,0L66.2,59l-0.1,0.1c0,0-0.1,0-0.2,0c0.1,0,0.2,0.2,0.2,0.1c0.2,0.4,0.1,0.4,0,0.5
		c-0.1,0.1-0.3,0-0.5,0c-0.4,0-0.8-0.1-1.4,0.2c0.6-0.3,0.6-0.4,0.5-0.5c0-0.1-0.2-0.1-0.2-0.4c-0.3-0.2-0.8-0.3-0.6-0.4
		c-0.6,0.4-1-0.3-1.8,0.2c0-0.1-0.6,0-0.5-0.4c-0.8,0.2,0.2,0.2,0.1,0.4c-0.6,0.3-1.3,0.2-2,0.2c-0.8,0-1.7,0.1-2.4,0.7
		c-0.7,0.4-1,0.8-1.2,1.1c-0.3,0.4-0.5,0.7-1,1.2c-0.5,0.1,0-0.6,0-0.6c-0.4,0.1-0.7,0.3-0.9,0.5c-0.2,0.2-0.4,0.5-0.6,0.8
		c0-0.2-0.2-0.2-0.4-0.1c-0.4,0.4,0.1,0.6-0.5,1c0-0.2-0.1-0.5-0.1-0.8c-0.4,0.6-0.5,1.3-0.8,1.9c-0.3,0-0.1-0.5-0.1-0.9
		c-0.4,0.7-0.9,1.8-0.7,2.2l0.4-0.3c-0.1,0.2-0.4-0.1-0.3-0.3c0-0.7,0.6-0.7,0.8-0.7c-0.1,0.1-0.1,0.3-0.2,0.5
		c0.5,0,0.7-0.4,0.9-0.9c0.2-0.5,0.4-1.1,0.8-1.4l0.2,0.7c0.1-0.4,0.2-0.7,0.3-1c0.3,0,0.6,0.2,0.3,0.5c0.7-0.2,0.3-0.6,0.9-0.6
		c0.1,0,0.1,0,0,0.1l0.4-0.5c0,0.2,0.3,0.3,0,0.5c0.5-0.2,0.9-0.5,1.1-0.7c0.3-0.3,0.5-0.5,0.8-0.3l-0.1,0.1
		c1.4-0.8-0.1-0.5,0.9-1.4c0.4,0.3,0.7,0.6,1.1,0.9l0-0.5c0.2,0,0.5,0,0.5,0.2c0.5-0.4-0.1-0.2,0.2-0.5c0.4,0.1,1,0,1.4,0
		c0.5,0,0.9,0,1,0.3c0.3-0.4-0.8-0.2,0.1-0.5c0.2,0.8,1-0.1,1.7,0.2c-0.2,0.4-0.9,0.2-0.2,0.5c0.2-0.3,0.5-0.3,1-0.1
		c0.5,0.1,1.1,0.4,1.5,0.4c0,0.1,0.1,0.2,0.3,0.3c0.2,0,0.1-0.4,0-0.6c0.1,0,0.3,0,0.5,0c0.1,0,0.1,0,0.2,0l0.1,0c0,0,0-0.1,0-0.1
		c0-0.2,0-0.3,0-0.5c0-0.3,0-0.7,0-1c0.1,0.1,0.2-0.5,0.3-1.2c0-0.5,0.1-0.7,0.2-1c0-0.3,0.1-0.6,0.2-0.9l0.1,0
		C67.8,56,68,55,67.9,54.2c0.3,0,0.5,0.2,0.6,0.6l0-0.7c0,0,0.1,0.1,0.2,0.1l-0.2-0.3v0.2c-0.1-0.2-0.2-0.4-0.3-0.8l0.4,0.2
		c0-0.9-0.4-1.8-0.1-3c-0.4-0.1-1.1,0.9-1.3-0.3c0.2,0,0.6-0.1,0.6,0.2c0-0.1-0.2-0.4-0.1-0.6l0.3,0.5c0.2-0.5-0.3-0.3-0.2-0.7
		c0.3,0,0.2-0.3,0.5-0.2c0,0.1-0.1,0.4,0,0.5c0.1-0.5,0.3-1,0.5-1.2c-0.2,0-0.4,0-0.4-0.4c0-0.9,0.4-0.3,0.5-0.8
		c-0.2-0.2,0-0.8-0.4-0.8c0-0.3,0.2-0.3,0.3-0.4c-0.2-0.5,0-2.2-0.5-1.7l0,0.1c0,0,0,0,0-0.1c0,0,0,0,0,0c0,0,0,0,0,0l0,0
		c0,0,0,0,0,0c-0.2-0.8-0.1-1.6,0-2.3c0.1-0.7,0.2-1.5,0.3-2.2l0.1,0c0-0.4,0.2-0.7,0.4-1.1c0.2-0.4,0.4-0.8,0.5-1.2
		c0.2-0.2,0.6-0.3,0.7-0.1c0.3-0.6,0.2-0.8,1.1-1.2C71,37,71.6,36.5,71,37c0.7-0.4,0.9-0.3,1.4-1c-0.1,0.4,0.6,0.2,0.9,0.1
		C73.1,36,73,36,72.8,35.9c0.4-0.2,0.7-0.2,1-0.2c-0.1,0.2-0.1,0.3-0.2,0.5c0.7,0.3,1.3,0.1,1.9,0.1c0.6,0,1.2,0.3,1.1,1
		c0.5,0-0.3-0.7,0.2-0.8c0.5,0.5,0.2,1.6,0.3,1.8c0.2,1,1.1,0.6,1.4,1.8c0.1-0.2,0.5-0.5,1,0.2c0.4,0.9-0.3,1.1-0.6,0.9
		C79,41.1,78.9,41,79,40.9c0.1,0.1,0.2,0.2,0.2,0.2C79.1,41,79,40.9,79,40.9c0,0,0,0,0,0c-0.2-0.2-0.4-0.6-0.5-0.2l0.2,0
		c0,0.1,0.1,0.3,0.1,0.5c0,0.1,0,0.2,0.1,0.3c0,0.2,0,0.4-0.2,0.3c0.3,0.4,0.3,0.1,0.3-0.2c0,0.8,0.2,1.4,0.2,2.5
		c0.1-0.2,0.3-0.4,0.3-0.2c-0.1,1.6,0.4,0.7,0.5,1.8C79.8,46.5,79.4,45.6,79.7,46.7z M23,33.2c0.1,0,0.2,0.1,0.2,0.1
		c0,0.3-0.1,0.4-0.2,0.4C23,33.6,23,33.5,23,33.2C23,33.3,23,33.2,23,33.2z M45.4,10.7c0.1,0,0.2,0.1,0.2,0.1
		C45.5,10.7,45.5,10.7,45.4,10.7z M68.1,38.2C68.1,38.2,68.1,38.2,68.1,38.2C68.1,38.2,68.1,38.2,68.1,38.2
		C68.1,38.2,68.1,38.2,68.1,38.2z M66.6,61.1c0-0.1,0.1-0.2,0.2-0.2C66.8,61,66.7,61.1,66.6,61.1z"/>
	<polygon class="st0" points="19.7,63.1 19.8,63.1 19.7,63 	"/>
	<path class="st0" d="M66.5,54.9c0,0-0.1,0.1-0.1,0.1C66.4,55,66.5,55,66.5,54.9z"/>
	<path class="st0" d="M66.1,59c0.1-0.1,0.1-0.2,0.2-0.2C66.2,58.8,66.2,58.9,66.1,59z"/>
	<path class="st0" d="M64.7,58.9c0,0.1-0.1,0.1-0.1,0.2h0L64.7,58.9z"/>
	<path class="st0" d="M82.1,55.3c0,0.3,0,0.1,0-0.1C82.1,55.2,82.1,55.2,82.1,55.3z"/>
	<path class="st0" d="M80.2,39c0.1,0.2,0.1,0.5,0.3,0.7C80.4,39.4,80.3,39.2,80.2,39z"/>
	<path class="st0" d="M50.5,65.4C50.6,65.4,50.6,65.4,50.5,65.4l0.1-0.2L50.5,65.4z"/>
	<path class="st0" d="M50.5,65.6c0-0.1,0.1-0.2,0.1-0.2L50.5,65.6z"/>
	<path class="st0" d="M50.4,66l0.1-0.4C50.5,65.7,50.4,65.9,50.4,66z"/>
	<path class="st0" d="M55.3,60.7c-0.3,0.1-0.9,0.2-1.3,0.6l0,0.1C54.1,61.1,55.1,61,55.3,60.7z"/>
	<path class="st0" d="M61.5,60.8h-1.1c0.2,0.1,0.5,0.3,0,0.4C61.8,61.5,60,60.8,61.5,60.8z"/>
	<path class="st0" d="M65.1,61c-0.9,0,0,0.2,0,0.3C65.7,61.3,65.8,61.2,65.1,61z"/>
	<path class="st0" d="M70.5,37.5l0.3,0.3C71,37.5,70.6,37.7,70.5,37.5z"/>
	<path class="st0" d="M73.5,33.5l-0.2,0.4c0.3-0.1,0.5-0.1,0.8-0.1C73.9,33.7,73.7,33.5,73.5,33.5z"/>
	<path class="st0" d="M75.8,36.9c0.2,0,0.3,0.1,0.5,0.2C76.1,37,76,37,75.9,37L75.8,36.9z"/>
	<path class="st0" d="M74,77.1l0.5,0.1C74.5,76.8,74,76.5,74,77.1z"/>
	<path class="st0" d="M62.6,91.7c0.4-0.1,0.8-0.1,0.9-0.2C63.3,91.3,62.8,91.4,62.6,91.7z"/>
	<polygon class="st0" points="23.4,68.2 23.5,68.6 23.4,67.9 	"/>
	<path class="st0" d="M43.8,48.8l0.2,0.1c0.1,0,0.4-0.1,0.3-0.2L43.8,48.8z"/>
	<path class="st0" d="M43.6,48.3c0.5,0,0.3,0,0.9,0c0.1,0.1-0.1,0.2-0.3,0.2c0.1,0-0.1,0.2,0.2,0.1c0.3-0.2,0.3-0.3,0-0.4
		c0.1-0.1,0.2-0.1,0.3-0.1C44.4,48.1,44,48.1,43.6,48.3z"/>
	<path class="st0" d="M44.4,35.5c0,0-0.1-0.1-0.1-0.1C44.3,35.5,44.4,35.5,44.4,35.5z"/>
	<path class="st0" d="M44.8,34.7C44.9,34.7,44.9,34.7,44.8,34.7C44.9,34.7,44.9,34.7,44.8,34.7z"/>
	<path class="st0" d="M44.1,40.3l0.2-0.1C44.1,40.2,44.1,40.2,44.1,40.3z"/>
	<path class="st0" d="M43.3,47.4C43.3,47.4,43.2,47.4,43.3,47.4C43.2,47.4,43.3,47.4,43.3,47.4C43.3,47.4,43.3,47.4,43.3,47.4z"/>
	<path class="st0" d="M45.3,19.1c0.2,0,0.7,0.2,0.9,0C45.8,19.3,45.7,18.8,45.3,19.1z"/>
	<path class="st0" d="M45.5,29.7c-0.1,0-0.1,0-0.2,0C45.3,29.8,45.4,29.8,45.5,29.7z"/>
	<path class="st0" d="M45,28.3C45,28.3,45.1,28.3,45,28.3C45,28.3,45.1,28.3,45,28.3C45,28.2,45,28.3,45,28.3z"/>
	<path class="st0" d="M45.1,26.9C45.1,26.9,45,26.9,45.1,26.9L45.1,26.9L45.1,26.9z"/>
	<path class="st0" d="M34.7,20.6c-0.1,0-0.2,0-0.4,0C34.6,20.6,34.7,20.8,34.7,20.6z"/>
	<path class="st0" d="M43.3,47.4c0.1,0,0.1,0,0.2,0C43.3,47.3,43.3,47.3,43.3,47.4C43.3,47.3,43.3,47.4,43.3,47.4z"/>
	<path class="st0" d="M42,27l-0.2,0.1c0.1,0,0.2-0.1,0.3-0.1C42,27,42,27,42,27z"/>
	<path class="st0" d="M34.9,21.9c0.2,0.1,0.3,0.1,0.3,0.1C35.1,22,35,22,34.9,21.9z"/>
	<path class="st0" d="M34.6,21.8C34.6,21.9,34.6,21.9,34.6,21.8c0.1,0.1,0.2,0.1,0.3,0.1C34.8,21.9,34.7,21.9,34.6,21.8z"/>
	<path class="st0" d="M44.5,32.1c-0.1,0-0.1,0-0.1-0.1C44.4,32.1,44.4,32.2,44.5,32.1z"/>
	<path class="st0" d="M44.4,32.1C44.4,32.1,44.4,32.1,44.4,32.1C44.4,32.1,44.4,32.1,44.4,32.1z"/>
	<path class="st0" d="M32.7,17.1L32.6,17l0,0C32.6,17.1,32.6,17.1,32.7,17.1C32.7,17.1,32.7,17.1,32.7,17.1z"/>
	<polygon class="st0" points="39,14.8 39,14.8 39,14.7 	"/>
	<path class="st0" d="M41.8,32.1C41.8,32.1,41.8,32.1,41.8,32.1C41.9,32.2,41.9,32.1,41.8,32.1z"/>
	<path class="st0" d="M42.7,35.9c-0.1,0-0.2-0.1-0.2-0.1C42.5,35.8,42.5,35.9,42.7,35.9z"/>
	<polygon class="st0" points="41.7,28 41.7,28 41.7,28 	"/>
	<path class="st0" d="M42.5,35.6c-0.1,0.1-0.1,0.1,0,0.2C42.5,35.7,42.6,35.7,42.5,35.6z"/>
	<path class="st0" d="M43.4,48.1C43.4,48.1,43.4,48.1,43.4,48.1L43.4,48.1L43.4,48.1z"/>
	<path class="st0" d="M43.4,48.1L43.4,48.1C43.5,48.1,43.5,48.1,43.4,48.1z"/>
	<path class="st0" d="M43.5,48.1c0,0,0,0.1,0.1,0.1L43.5,48.1z"/>
	<path class="st0" d="M43.2,46.7c0,0.1-0.3,0.3-0.2,0.3l0.1,0C42.9,47,43.4,46.7,43.2,46.7z"/>
	<path class="st0" d="M44.7,45l-0.1,0.3c0.2-0.1,0.4-0.2,0.4-0.1C45.5,44.8,44.7,45.4,44.7,45z"/>
	<path class="st0" d="M45.2,44.2c-0.2-0.1-0.2-0.1-0.3,0C44.9,44.3,45.1,44.2,45.2,44.2z"/>
	<path class="st0" d="M44.3,38.6h0.4C44.6,38.5,44.5,38.6,44.3,38.6z"/>
	<polygon class="st0" points="42.3,37.5 42.1,37.6 42.4,37.7 	"/>
	<polygon class="st0" points="45.1,36.9 45,36.7 45,36.8 	"/>
	<path class="st0" d="M45,27.2c0.1,0.1,0.6,0.1,0.5,0L45,27.2z"/>
	<path class="st0" d="M45.3,23c0.2,0,0.4-0.1,0.2-0.2C45.5,22.8,45.3,22.9,45.3,23z"/>
	<polygon class="st0" points="39.7,10.8 39.5,10.9 39.6,10.9 	"/>
	<path class="st0" d="M51,5.4c0,0,0.1-0.1,0-0.1C51.1,5.3,51,5.4,51,5.4z"/>
	<path class="st0" d="M51.9,5.9C51.9,5.9,51.9,5.9,51.9,5.9C51.9,5.9,51.9,5.9,51.9,5.9z"/>
	<path class="st0" d="M46.8,7C46.9,7,47,7,47,7C46.9,6.9,46.9,7,46.8,7z"/>
	<path class="st0" d="M56.5,19.1c-0.2,0-0.7-0.2-0.9,0C56,18.9,56.1,19.4,56.5,19.1z"/>
	<path class="st0" d="M56.1,9.1C56,9.1,56,9.1,56.1,9.1C56,9,56,9.1,56.1,9.1C56.1,9.1,56.1,9.1,56.1,9.1z"/>
	<path class="st0" d="M58.8,41.5c-0.1,0-0.2,0-0.4,0.1C58.8,41.6,58.8,41.8,58.8,41.5z"/>
	<path class="st0" d="M59.3,8.6c0-0.1,0-0.2,0-0.4C59.3,8.4,59.3,8.5,59.3,8.6z"/>
	<path class="st0" d="M55.4,37.9c0,0,0.1,0,0.1,0c0,0,0,0,0,0C55.5,37.9,55.4,37.9,55.4,37.9z"/>
	<polygon class="st0" points="59.3,30.5 59.3,30.5 59.2,30.5 	"/>
	<path class="st0" d="M55.5,3.7C55.6,3.7,55.5,3.7,55.5,3.7C55.4,3.7,55.4,3.7,55.5,3.7z"/>
	<path class="st0" d="M50.6,3.7c0-0.1,0.1-0.2,0.1-0.2C50.6,3.5,50.5,3.5,50.6,3.7z"/>
	<polygon class="st0" points="59.3,8.2 59.3,8.2 59.3,8.2 	"/>
	<path class="st0" d="M50.9,3.5c-0.1-0.1-0.2-0.1-0.2,0C50.8,3.5,50.8,3.6,50.9,3.5z"/>
	<path class="st0" d="M45.4,11.9l-0.1,0.3c0.2,0,0.4-0.1,0.4,0C46.2,11.9,45.4,12.2,45.4,11.9z"/>
	<path class="st0" d="M45.8,11c0.1,0.2,0.2,0,0.3,0.1C45.9,11,45.9,11,45.8,11z"/>
	<path class="st0" d="M48.4,6.4c0-0.1-0.1-0.1-0.2-0.3L48.4,6.4z"/>
	<polygon class="st0" points="48.5,3.7 48.3,3.5 48.3,3.9 	"/>
	<polygon class="st0" points="49.9,6.2 49.9,6.2 50,6.1 	"/>
	<path class="st0" d="M56.3,10c-0.1-0.1-0.6,0-0.5,0.1L56.3,10z"/>
	<path class="st0" d="M56.2,14.7c-0.2,0-0.4,0.2-0.2,0.3C56.1,14.9,56.3,14.8,56.2,14.7z"/>
	<polygon class="st0" points="55.6,29.1 55.4,29 55.5,29.2 	"/>
	<path class="st0" d="M70.3,29.3C70.3,29.3,70.3,29.3,70.3,29.3C70.4,29.3,70.4,29.3,70.3,29.3z"/>
	<path class="st0" d="M69.4,33.1l0.2-0.1C69.4,33,69.5,33,69.4,33.1z"/>
	<path class="st0" d="M67.4,37.5C67.4,37.5,67.3,37.5,67.4,37.5c-0.1-0.1-0.1-0.1-0.1-0.1C67.3,37.5,67.3,37.5,67.4,37.5z"/>
	<path class="st0" d="M69.8,34.5c0.1,0,0.1,0,0.2,0L69.8,34.5L69.8,34.5z"/>
	<path class="st0" d="M61.1,13.3C61.1,13.3,61.1,13.3,61.1,13.3C61.1,13.3,61.1,13.3,61.1,13.3z"/>
	<path class="st0" d="M70.7,25.9c-0.1,0-0.1,0-0.2,0C70.5,26,70.6,25.9,70.7,25.9z"/>
	<path class="st0" d="M70,27.7L70,27.7C70.1,27.6,70,27.7,70,27.7z"/>
	<path class="st0" d="M70.1,25C70.1,25,70,25,70.1,25C70.1,25,70.1,25,70.1,25C70.1,25,70.1,25,70.1,25z"/>
	<path class="st0" d="M70,24.1L70,24.1L70,24.1C70,24.1,70,24.1,70,24.1z"/>
	<path class="st0" d="M62.5,12.2c0-0.1-0.1-0.2-0.1-0.4C62.5,12.1,62.4,12.2,62.5,12.2z"/>
	<path class="st0" d="M67.3,37.5c0.1,0,0.1,0,0.2,0C67.4,37.5,67.3,37.5,67.3,37.5C67.3,37.5,67.3,37.5,67.3,37.5z"/>
	<path class="st0" d="M66.2,13.2L66.2,13.2C66.1,13.2,66.1,13.2,66.2,13.2z"/>
	<path class="st0" d="M66.9,24.3l-0.2,0.1c0.1,0,0.2-0.1,0.3-0.1C67,24.3,66.9,24.3,66.9,24.3z"/>
	<path class="st0" d="M69.9,27.7c-0.1,0-0.1,0-0.1,0C69.8,27.7,69.8,27.7,69.9,27.7z"/>
	<path class="st0" d="M69.8,27.6C69.8,27.6,69.8,27.6,69.8,27.6C69.8,27.6,69.8,27.6,69.8,27.6z"/>
	<polygon class="st0" points="65.9,13.1 65.9,13.1 66,13.1 	"/>
	<path class="st0" d="M67.6,35.3c0.1,0,0.1-0.1,0.1-0.1L67.6,35.3z"/>
	<path class="st0" d="M67.2,27.7C67.1,27.6,67.2,27.7,67.2,27.7C67.2,27.7,67.2,27.7,67.2,27.7z"/>
	<path class="st0" d="M68.2,30.1c-0.1,0-0.1,0-0.2-0.1C68,30.1,67.9,30.1,68.2,30.1z"/>
	<polygon class="st0" points="66.7,25 66.7,25 66.7,25 	"/>
	<path class="st0" d="M68,29.9c-0.1,0-0.1,0.1,0,0.1C68,30,68.1,29.9,68,29.9z"/>
	<path class="st0" d="M67.2,37.9L67.2,37.9C67.2,37.9,67.2,38,67.2,37.9L67.2,37.9z"/>
	<path class="st0" d="M67.2,38L67.2,38C67.3,38,67.3,38,67.2,38z"/>
	<path class="st0" d="M67.4,38L67.3,38C67.3,38,67.3,38,67.4,38z"/>
	<path class="st0" d="M67.3,37.2c-0.2,0,0.4-0.1,0.1-0.2c0,0-0.3,0.1-0.2,0.2L67.3,37.2z"/>
	<path class="st0" d="M69.7,31.9l0.4,0C70.1,31.9,70,31.9,69.7,31.9z"/>
	<polygon class="st0" points="67.8,31.1 67.5,31.2 67.9,31.2 	"/>
	<polygon class="st0" points="70.5,30.8 70.6,30.8 70.4,30.7 	"/>
	<path class="st0" d="M70.4,24.2l-0.5,0C70,24.3,70.5,24.3,70.4,24.2z"/>
	<path class="st0" d="M69.9,21.4c0.2,0,0.4-0.1,0.2-0.2C70,21.3,69.8,21.4,69.9,21.4z"/>
	<polygon class="st0" points="69.8,12.7 69.7,12.8 69.9,12.8 	"/>
</g>
</svg>
