<?xml version="1.0" encoding="utf-8"?>
<!-- Generator: Adobe Illustrator 25.4.1, SVG Export Plug-In . SVG Version: 6.00 Build 0)  -->
<svg version="1.1" id="Ebene_1" xmlns="http://www.w3.org/2000/svg" xmlns:xlink="http://www.w3.org/1999/xlink" x="0px" y="0px"
	 viewBox="0 0 100 100" style="enable-background:new 0 0 100 100;" xml:space="preserve">
<style type="text/css">
	.st0{fill:#1D1F30;}
</style>
<g>
	<path class="st0" d="M21.9,53.1c0,0,0.1,0,0.1,0C22,53.1,21.9,53.1,21.9,53.1z"/>
	<path class="st0" d="M22.1,52.1C22.1,52.1,22.1,52.1,22.1,52.1C22.1,52.1,22.1,52.1,22.1,52.1z"/>
	<path class="st0" d="M25.2,57.4l-0.1-0.2C25,57.3,25.1,57.3,25.2,57.4z"/>
	<path class="st0" d="M33.4,56.1c0,0,0-0.1-0.1-0.2C33.3,56,33.3,56,33.4,56.1C33.3,56.1,33.3,56.1,33.4,56.1z"/>
	<path class="st0" d="M27.5,57.4L27.5,57.4c0-0.1,0.1-0.1,0.1-0.2L27.5,57.4z"/>
	<path class="st0" d="M29.2,57.5c0-0.2-0.1-0.3,0-0.3c0-0.1-0.1-0.2-0.1-0.3C29,56.9,29.2,57.3,29.2,57.5z"/>
	<polygon class="st0" points="34.4,54.3 34.4,54.3 34.1,54.3 	"/>
	<path class="st0" d="M22.3,50.3C22.3,50.3,22.3,50.3,22.3,50.3C22.3,50.3,22.3,50.3,22.3,50.3z"/>
	<path class="st0" d="M23.9,34.6c-0.4-0.1-0.2-0.5-0.7-0.6C23.4,34.1,23.6,34.5,23.9,34.6z"/>
	<path class="st0" d="M21.3,44.6c0,0,0.1,0,0-0.1c0,0,0,0,0,0C21.4,44.5,21.4,44.5,21.3,44.6z"/>
	<path class="st0" d="M21.5,42.8C21.4,42.8,21.4,42.9,21.5,42.8L21.5,42.8L21.5,42.8z"/>
	<path class="st0" d="M36,46.5c-0.1,0-0.2,0.1-0.4,0.1C36,46.5,36.1,46.8,36,46.5z"/>
	<path class="st0" d="M33.3,56.1C33.3,56.1,33.3,56.1,33.3,56.1c0-0.1-0.1-0.1-0.1-0.1C33.2,56,33.3,56.1,33.3,56.1z"/>
	<path class="st0" d="M18.1,43.1c0.1,0,0.2-0.1,0.3-0.1c0,0-0.1,0-0.1,0L18.1,43.1z"/>
	<path class="st0" d="M22.9,57.5c0.6-0.6,0,0.6,0.5,0.4c-0.1,0-0.3,0.3-0.3,0.2c0.1,0.2,0.4,0.3,0.8,0.3c0,0,0,0,0,0
		c-0.1,0.1-0.2,0-0.3,0c0.2,0.3,0.6,0.6,1,0.5c0.1,0.1,0.3,0.2,0.4,0.2c0.1-0.2,0.2-0.1,0.3-0.4c0.1,0.7,0.6,0.6,1,0.5
		c0.4-0.1,0.7-0.3,1,0.2c-0.1,0-0.2,0.2-0.1,0.2c0.2,0,0.4-0.1,0.6-0.2c-0.1-0.3-0.1-0.2-0.2-0.5c0.1-0.2,0.2-0.4,0.3-0.4
		c-0.2,0.2,0,0.6,0.2,0.7c0-0.1,0-0.2,0-0.3c0.4,0.6-0.1-0.7,0.4-0.3l0,0.2c0.1-0.1,0.2-0.4,0.3-0.4c0.2,0.4-0.1,0.2,0,0.5
		c0.2-0.1,0.2-0.8,0.5-0.5c0,0.1-0.2,0.2-0.2,0.3c0.3,0.4,0.3,0.3,0.5,0.3h0l0.4,0l-0.1,0c-0.1-1,0.4-0.4,0.4-1.2
		c0,0.7,0.1,0.3,0.3,0.8c0.1,0.1,0.4,0.1,0.4,0.2c0-0.4,0.4,0.1,0.4-0.5c0.1,0.1,0.2-0.1,0.4,0.2c0.1-0.2-0.2-0.2-0.3-0.3
		c0-0.3,0.2-0.3,0.5-0.4c0.2-0.1,0.5-0.2,0.5-0.6c0.1-0.5-0.2-0.9-0.2-1.3c0.3,0,0.4,0.4,0.4,0.4c0.3,0,0.4-0.2,0.3-0.5
		c0.1,0.1,0.2,0.1,0.4,0.2c0-0.2-0.4-0.4-0.1-0.4c0.1,0.1,0.3,0.3,0.4,0.4c0-0.2-0.2-0.5-0.2-0.8c0.3,0,0.3,0.3,0.4,0.4
		c0-0.3,0-0.7-0.3-0.9L33,54.8c0-0.1,0.3,0.1,0.4,0.2c0.2,0.3-0.2,0.2-0.4,0.2l0-0.2c-0.8-0.2-0.1,0.5-0.3,0.8l-0.5-0.4
		c0.1,0.2,0.2,0.3,0.3,0.5c-0.2,0-0.5-0.2-0.5-0.3c-0.4,0,0.1,0.3-0.3,0.2c0,0-0.1,0-0.1-0.1l0,0.2c-0.1-0.1-0.4-0.2-0.2-0.3
		c-0.4,0,0.1,0.7-0.4,0.5l0,0c-0.1,0.5,0.3,0.3,0.5,1c-0.3-0.2-0.6-0.4-1-0.7l0.3,0.4c0,0-0.1,0-0.2-0.1c0.1,0.3,0.1,0.1,0.3,0.4
		c-0.4-0.2-0.4,0.5-0.8,0c0.1,0.3,0.3,0.1,0.3,0.4c-0.5-0.6-0.1,0.3-0.5,0.1c-0.1-0.4,0.1-0.3-0.2-0.5c0.2,0.7-0.4,0-0.5,0.2
		c0.2,0.5-0.2,0.3-0.4,0.6c0-0.2-0.6-0.1-0.8-0.3l0-0.1c0.1,0.5-0.2,0.5-0.4,0.6c0-0.3,0-0.5,0.1-0.6l-0.1,0c0,0.2-0.1,0.3-0.2,0.3
		l0-0.4c-0.2,0-0.4,0.5-0.7,0.2c-0.1,0.4,0.1,1.1-0.2,1.3c0-0.2,0-0.6,0.1-0.6c0,0-0.1,0.2-0.2,0.1l0.2-0.3
		c-0.1-0.2-0.1,0.3-0.2,0.2c0-0.3,0-0.2,0-0.5c0,0,0.1,0.1,0.1,0c-0.1-0.1-0.2-0.3-0.2-0.5c0,0.2-0.1,0.4-0.2,0.4
		c-0.2,0,0-0.4-0.1-0.5c-0.1,0.2-0.2-0.1-0.3,0.4c-0.1,0,0-0.2,0-0.3c-0.2,0.2-0.5-0.1-0.6,0.3l0,0c0,0,0,0,0,0
		c-0.5,0.2-0.6-0.3-0.8-0.6l0.1,0l-0.2-0.4c-0.1-0.1-0.3,0-0.3,0.1c-0.1,0-0.3-0.1-0.5,0c0,0,0.1-0.3,0.2-0.4
		c-0.2,0-0.3,0.1-0.3-0.3c0.3,0,0.1-0.2,0.3,0c-0.1-0.2,0.1-0.4-0.4-0.3c0.3-0.2,0.3-0.4,0.1-0.4l-0.1,0.3c-0.1,0-0.2-0.2-0.2-0.3
		l0.4-0.3c0.1-0.3-0.2-0.3-0.5-0.4c-0.3,0-0.5-0.1-0.1-0.5c-0.4,0.1-0.1,0.3-0.5,0.4c0-0.2,0.5-0.7,0.5-0.8c0.1-0.4-0.8,0.1-0.7-0.3
		c-0.1,0.1-0.6,0.3-0.8,0.2c0-0.2,0.6-0.5,0.8-0.4c0,0,0,0.1-0.1,0.1c0.1,0,0.2,0.1,0.3,0l-0.2,0c0.1-0.2,0-0.4,0.3-0.5
		c-0.2-0.1-0.3,0-0.4,0.2c0.1-0.3-0.1-0.4,0-0.7c-0.1,0.1-0.3,0.2-0.3,0.1c0.1-0.5-0.4-0.1-0.5-0.3c0.2-0.2,0.6-0.1,0.4-0.3
		c0.1-0.2,0.5-0.1,0.6-0.1c-0.4-0.2,0.1-0.5,0.2-0.7l0.2,0.1c-0.1-0.1-0.1-0.1-0.1-0.2l-0.3,0.1c0-0.1,0-0.2,0.2-0.2
		c-0.2,0-0.6,0.2-0.9,0.1c0.2-0.1-0.2-0.3,0.2-0.4c-0.1,0.4,0.5-0.1,0.6,0.2c-0.1,0-0.1-0.1,0-0.2c0,0,0.1,0,0.1,0
		c0.4-0.4-0.5-0.1-0.6-0.4c0.3,0,0.5-0.1,0.4-0.2c0,0.1-0.4,0.1-0.6,0c0.2-0.2-0.2-0.2-0.2-0.3l-0.1,0.1c-0.3,0-0.2-0.1-0.3-0.3
		c0.2,0,0.2,0.1,0.2,0.1c-0.5-0.1,0.5-0.4,0.1-0.7c0.2-0.1,0.5,0,0.6-0.2c-0.4-0.2,0.4-0.3,0-0.6c-0.4,0.1-0.3,0.1-0.6-0.1l0.3,0.5
		L21,48c0,0.1,0.2,0.3,0.2,0.4c-0.3-0.1-0.2-0.1-0.5,0c0.5-0.2-0.3-0.4,0-0.6l0.9,0c0.4-0.3-0.5-0.6-0.2-1l-0.2,0.1
		c-0.4-0.1,0-0.3-0.2-0.4c0.3,0,0.4-0.1,0.6-0.1c-0.2,0,0-0.3-0.6-0.4l0.4-0.2c0.2-0.3-0.8-0.5-0.7-0.8c0.3,0.1,0.5,0,0.8,0.2
		c0-0.1,0.1-0.2-0.1-0.2c0.2,0-0.4-0.3-0.1-0.4c-0.1-0.1-0.4-0.1-0.4-0.2c0.1,0,0.1,0,0.1,0c-0.1,0-0.2-0.2-0.5-0.1
		c1-0.3,0-1,0.9-1.3c-0.1-0.3-0.1-0.6-0.1-0.8c0.1,0,0.1,0,0.1,0.1c0.3-0.3-0.8-0.3-0.5-0.6c0.5-0.1,0.2,0.2,0.4,0.1
		c1,0.1-0.1-0.5,0.5-0.6l0,0.1c0.4-0.2-0.3-0.5-0.2-0.8c0,0,0.1,0,0.1,0c-0.5-0.3-0.6-0.7-0.7-1c0.4,0.1,0.2,0.2,0.6,0.2
		c0-0.1-0.6,0-0.7-0.3c0.2-0.1,0.4-0.2,0.8-0.2l0,0.2c0.5-0.1,0-0.3,0.1-0.4l0.2,0c0-0.4-0.6-0.5-0.5-0.9l-0.2,0
		c-0.5-0.3,0.4-0.1,0-0.4l0.6,0c-0.1-0.2-0.5-0.6-0.5-0.9c0.4,0.2,0.5,0.6,0.8,0.8c0-0.1,0-0.5-0.2-0.6c0,0.1,0.2,0.2,0.1,0.2
		c-0.4-0.3-0.6-0.5-0.5-0.8c1.1,0.4,0.5-0.6,1.4-0.5c-0.2-0.6,0.5-0.7,0.7-1c-0.8-0.4,0-0.1-0.7-0.7c0-0.1,0.1-0.2,0.1-0.1h0l0,0
		c0.2,0,0.4,0.1,0.6,0.1c0.2,0.2,0.1,0.2,0.2,0.3c0.2-0.1,0.3,0.2,0.6,0.3c-0.2-0.2-0.3-0.4-0.1-0.4c-0.1-0.1-0.2-0.2-0.4-0.2
		c-0.1-0.6,0.6,0.5,0.6,0l0.1,0.3c0-0.2,0.4-0.2,0.3-0.9c0.1,0.1,0.2,0.3,0.1,0.4c0.3,0,0.7-1,1.1-0.6l0,0.2
		c0.1-0.1,0.1-0.4,0.2-0.2c0,0.1,0,0.2,0,0.2c0-0.1,0.2-0.4,0.3-0.3l-0.1,0.3c0.4,0.3,0.7-0.6,1.1-0.8c0,0.7,0.3,0.9,0.5,1l0,0.1
		c0.6,0.1,1-0.5,1.6-0.7c0.2,0.7,0.9,0.5,1,1c0-0.1,0.2-0.5,0.3-0.5c0,0.2,0.4-0.3,0.1,0.2l0,0c-0.3,0.5-0.1,0.4-0.1,0.5l0.5-0.6
		c-0.3,0.5-0.2,0.5,0,0.6c0.2,0.1,0.4,0.3-0.1,0.5c0.2,0,0.2,0.1,0.5,0.2l-0.4,0.1c-0.1,0.3-0.1,0.4,0,0.8L31.7,36
		c0,0.2,1.2,0.2,1.3,0.4l-0.6,0.1c0,0.5-0.5,0.9,0.1,1.4c-0.1,0-0.3,0-0.3-0.1c0,0.2-0.4,0.8,0.5,0.7c-0.6,0,0,0.5,0.2,0.7l-0.4,0
		c0.5,0.2,0.7,0.2,0.8,0.5c0,0.1-0.3,0.1-0.2,0c-0.2,0.2,0.4,0.2,0.2,0.5L32.9,40c0,0.2,0.1,0.2,0.4,0.3c0.2,0.1-0.1,0.5-0.5,0.5
		c0.2,0,0.5,0.1,0.4,0.3c-0.1,0-0.2,0-0.3,0c-0.3,0.4,0.5,0.6,0.1,0.8c-0.1,0-0.2,0-0.2,0.1c0-0.3,0-0.6,0-0.5c-0.4,0-0.5,0.3-1,0.1
		c0.3,0.2,0.9,0.5,0.8,0.8c0,0-0.1,0-0.1,0l0,0c0,0.1,0,0.1,0.1,0.2c-0.1,0.1-0.1,0.1-0.1,0.2c-0.3,0-0.2,0.3-0.2,0.4
		c0.4,0,0.4,0.1,0.7,0c0,0,0,0-0.1-0.1c0,0,0,0,0,0l0,0c0-0.1,0-0.2,0-0.3c0.2,0.1,0.4,0.2,0.2,0.3c0.3,0,0.5,0.1,0.7,0.2
		c-0.6,0.2-0.9,0.5-1.2,0.6c0.2,0.4,0.2,0.9,1,1.1c0.1,0.1-0.2,0.1-0.3,0.2c-0.1-0.1-0.1-0.1-0.2-0.2c0.2,0.2,0.1,0.6,0.7,0.7
		c-0.2,0.3-0.5-0.1-0.4,0.2l-0.2,0c-0.9,0.8,1.5,1.2,0.3,2c0.1-0.1,0.1-0.1,0.2-0.1c-0.5,1,0.5,1.9-0.2,2.9
		c-0.2,0.3,0.2,0.3,0.5,0.5l-0.5,0.1l0.5,0.3c0.4,0.4-1.1,0.7-0.3,1.2l0.3-0.1c0,0.2,0.2,0.6-0.2,0.5c0.1,0,0.3,0.1,0.2,0.1l-0.2,0
		l0.4,0.4c-0.2,0.3-0.9,0-1,0.4c0,0,0,0,0.1,0.1c-0.1,0.1,0,0.2,0.1,0.4c-0.1,0-0.2-0.1-0.3-0.1c0.2,0.2,0.6,0.5,1,0.5
		c-0.4-0.3-0.2-0.2-0.7-0.5c0-0.1,0-0.1,0.1-0.1c0.2,0.1,0.5,0.3,0.6,0.2c0-0.1,0.1-0.2,0.4-0.2l0.1,0.2c0.7,0,1.4,0.2,1.9-0.3
		l-0.4-0.3l0.3-0.1l0,0.2c0.3-0.1,0-0.2-0.2-0.3c0.2,0,0.3-0.1,0.4-0.1l-0.7-0.3c0.3,0,0.5,0.1,0.7-0.1c-0.3-0.1-0.6,0.1-0.8-0.1
		c0.3-0.1,0.6-0.1,0.3-0.3c0.2,0,0.3,0,0.4,0.1c-0.2-0.1-0.1-0.4-0.5-0.5c0.4-0.2-0.1-0.5,0.5-0.5c-0.2,0-0.5-0.2-0.6-0.4
		c0.8,0.2,0-0.5,0.9-0.4c-0.7-0.2-0.3-0.6-0.7-1c0.1,0,0.2,0,0.1,0.1c0-0.2,0.3-0.2,0.4-0.3c-0.6,0-0.7-0.3-1.1-0.4
		c0.6-0.2,0.7,0.1,1.2,0c-0.5,0-0.5-0.4-0.9-0.3c0.3-0.2,0.2-0.2,0.7-0.2c-0.7,0-0.1-0.2-0.6-0.3c0.3-0.2,0.7-0.1,0.5-0.3
		c0.2-0.1,0.5,0.1,0.5,0.1c0-0.3-0.5-0.1-0.9-0.2c-0.2-0.3,0.4-0.2,0.7-0.3c-0.2-0.2-0.7-0.3-0.7-0.5c0.1,0,0.1,0,0.2,0
		c-0.5-0.2,0-0.6-0.6-0.9c0,0,0.1,0,0.1,0c-0.3,0-0.6,0.1-0.8,0.1c0-0.1-0.4-0.2,0-0.3c0,0.1,0.1,0.1,0.2,0.1L35,46.3
		c0.5-0.1,0.2,0.2,0.6,0.2c-0.2-0.2-0.6-0.5-0.5-0.7c0.5,0,0.2,0.4,0.6,0.2l-0.2,0.3c0.8-0.2,0,0.2,0.8,0c0.1-0.4-0.3-0.4-0.1-0.8
		c-0.3-0.1-0.4,0-0.7,0c-0.5-0.5,1.3-0.5,0.6-0.8c-0.3-0.1-1-0.1-0.7-0.4l0.6,0.1c0-0.4-0.8-0.2-0.5-0.6c0.2,0.1,0.2,0.3,0.3,0.2
		c0.5-0.3-0.3-0.2-0.3-0.4l0.5-0.1c-0.1-0.4-0.5-0.8-0.6-1.3c0.2,0,0.3,0.1,0.5,0c-0.3-0.5,0-1.2,0.3-1.7l-0.5-0.2
		c0,0,0.2-0.1,0.3,0c0.2-0.2-0.3,0-0.5-0.1c0-0.1,0.2-0.2,0.4-0.1c-0.4-0.3-0.8-1-0.4-1.4l0.1,0.1c0.2-0.3-0.9-0.3-0.5-0.6l0.1,0
		c0.2-0.7-0.2-1.4,0.4-1.9c-0.6,0,0.2-0.7-0.7-0.7c0.4-0.5,0.6-0.4,0.7-1.1c0-0.2-0.6-0.2-0.8-0.3l0.4-0.1c-0.2-0.1-0.4-0.1-0.6-0.2
		c0.1-0.1,0.2-0.1,0.2-0.2c0,0,0,0,0,0.1c0,0,0,0,0-0.1c0.1-0.1,0.1-0.1,0.2-0.2l-0.2-0.2c0,0,0,0.1-0.1,0.2
		c-0.1-0.4,0.2-0.3,0.2-0.7c0,0,0.1,0.2,0,0.1c0.1,0,0.3,0.1,0.4,0.2c-0.3-0.5-0.2-0.7-0.3-1.1c0.4,0.4,0.3,0.6,0.6,1.1
		c-0.3-0.4,0-0.5-0.3-0.8c0.3,0.2,0.2,0.1,0.5,0.5c-0.4-0.6,0-0.2-0.1-0.6c0.3,0.2,0.4,0.6,0.4,0.3c0.2,0.2,0.2,0.5,0.2,0.5
		c0.2-0.1-0.2-0.5-0.3-0.8c0.1-0.2,0.3,0.3,0.5,0.5c0-0.2-0.1-0.7,0-0.7c0,0.1,0.1,0.1,0.1,0.2c-0.1-0.5,0.3-0.2,0.3-0.8
		c0,0,0.1,0.1,0.1,0.1c-0.1-0.2-0.2-0.5-0.3-0.7c0.1,0,0-0.4,0.2-0.1c0,0,0,0.1,0,0.3l0-0.2c0.3,0.5,0,0.2,0.1,0.6
		c0.1-0.2,0.1-0.7,0.3-0.6c0.2,0.5-0.2,0.3,0.1,0.6l-0.2-0.1c0.4,0.7-0.1,0,0.3,0.7c0.3,0,0.2-0.3,0.4-0.3c0-0.3-0.2-0.4-0.2-0.7
		c0.2-0.6,0.7,1.1,0.7,0.4c0-0.3-0.2-1,0.1-0.7l0.1,0.6c0.2,0-0.1-0.8,0.3-0.5c0,0.2-0.1,0.2-0.1,0.3c0.2,0.4,0-0.3,0.2-0.4l0.1,0.5
		c0.2-0.1,0.4-0.5,0.7-0.6c0,0.1,0,0.3,0,0.5c0.3-0.3,0.7,0,1,0.3l0.1-0.4c0,0,0,0.2,0,0.3c0.1,0.2,0-0.3,0.1-0.5
		c0.1,0,0.1,0.3,0,0.4c0.2-0.4,0.7-0.7,0.9-0.2L42,30.9c0.1,0.2,0.4-0.8,0.5-0.4l0,0.1c0.2,0.1,0.4,0.2,0.5,0.2
		c0.2,0.1,0.3,0.2,0.2,0.5c0.2-0.3,0.2-0.2,0.2-0.1c0,0.1,0,0.1,0.3-0.2c-0.2,0.4-0.3,0.5-0.5,0.8c0,0,0.5-0.3,0.6-0.3l-0.4,0.2l0,0
		c0.1-0.1,0.3-0.1,0.4-0.1c-0.2,0.1-0.3,0.2-0.5,0.2l0.1,0c0,0,0.2-0.1,0.3-0.1c0.2,0-0.3,0.3-0.5,0.3c0.1,0,0.3,0,0.4,0.1
		c-0.2,0-0.2,0-0.4,0c0.5,0.1-0.5,0,0,0.1c0.1,0,0.3,0,0.4,0c-0.3,0.1-0.3,0.3-0.2,0.5l-0.3,0c-0.1,0.3,0.2,0.7,0.1,1.1
		c0.2-0.1,0.7-0.1,0.8,0l-0.5,0c0.3,0.1,0.2-0.1,0.5,0c-0.1,0.1-0.6,0.1-0.7,0l0.2,0.2c-0.2,0-0.2,0-0.4,0c0.3,0.1-0.5,0.3,0,0.4
		l-0.2,0c0,0.4,0.2,0.5,0.2,0.8c0.4,0,0.3,0.1,0.7,0.2c-0.1,0.2-0.5,0.5-0.4,0.7c0.2,0.2,0.4,0.1,0.6,0.2c-0.4,0-0.3,0.3-0.6,0.1
		c0.1,0.3,0.1,0.4,0.4,0.8c0.2,0,0.2-0.1,0.4-0.1c0.1,0.1-0.2,0.2-0.3,0.2l0,0c0.6,0.5-1.1,1-0.3,1.4l0,0l0.4,0.4
		c-0.1,0.2-0.3-0.1-0.5,0c0.6,0.4-0.1,0.6,0.3,1c-1.1,0.2,0.1,0.9-0.7,1.2l0.3,0c0.3,0.1-0.2,0.1-0.2,0.2c0.2,0,0.2-0.1,0.4,0
		c0.3,0.8-0.4,1.6-0.7,2.3c-0.1,0.3,1.4,0.2,0.7,0.5L43,44.1c0.6,0.6,0,1.2,0.5,1.7c-0.1,0-0.3,0-0.3-0.1c-0.4,0.1,0,0.4,0.3,0.4
		c0,0.1-0.3,0-0.4,0.1c-0.2,0.1,0.5,0.3,0.1,0.4c-0.1,0-0.1,0-0.1-0.1c0.2,0.1,0,0.4,0.4,0.3c-0.2,0.2,0.2,0.4-0.1,0.6
		c0.5,0.1-0.2,0.3,0.4,0.4c-0.7,0-0.6,0.3-0.2,0.5c-0.2,0-0.2,0.1-0.5,0c0,0.2,0.1,0.3,0.5,0.3c-0.8,0.2,0.6,0.6-0.4,0.7
		c0.3,0.5,0.6,0.9,0.7,1.3c-0.7-0.1,0-0.4-0.8-0.5c0.2,0.4,0.8,0.6,0.6,1c-0.1,0.1-0.3-0.1-0.4-0.1c0.2,0.4-0.1,0.7,0.2,1.1
		c-0.1,0-0.1,0-0.2-0.1c0,0.1-0.1,0.1,0.2,0.2l-0.1-0.1c0.5,0,0.9,0.4,1.1,0.4c-0.9-0.2-0.3,0.3-1.3,0c0,0,0.2,0.1,0.4,0.1
		c-0.1,0-0.2,0-0.4,0c0.1,0.2,0.5,0.2,0.4,0.4c-0.2,0-0.2-0.1-0.4-0.1c0.3,0.2,0.5,0.3,0.4,0.5c-0.1,0-0.2,0-0.2-0.1
		c0,0.3,0.7,0.7,0.3,0.9c-0.6-0.2-0.2,0.1-0.8,0l0.1,0.2l0.3,0c0,0.2,0.3,0.4,0.1,0.5l-0.2-0.2l0,0.3l0.2-0.1
		c0.2,0.2,0.7,0.2,0.5,0.3c0-0.1,0,0.2-0.4,0.2l0,0c0.2,0.1,0.3,0.3,0.1,0.3c-0.2,0-0.6-0.2-0.7-0.2c0.4,0.2,0,0.4,0.5,0.6
		c-0.1-0.1-0.4-0.2-0.4-0.2l0.3,0.2c-0.1,0-0.2,0-0.4-0.1c-0.1,0.2,0.7,0.2,0.3,0.3c0,0-0.1,0-0.1-0.1c-0.2,0.2,0,0.5-0.2,0.7
		c-0.5-0.2,0-0.2-0.5-0.4c0,0.3,0.3,0.9,0,1h0.1c0.6,0.6-0.4-0.1-0.2,0.2c0-0.1-0.3-0.3-0.2-0.3c-0.2,0-0.1,0.3-0.2,0.7l-0.1-0.2
		c-0.2-0.1-0.3,0-0.4-0.1c0,0.2,0,0.2,0.1,0.5c-0.3-0.5-0.4-0.4-0.5-0.2c-0.2,0.2-0.4,0.4-0.5-0.2c0,0,0.1-0.2,0.1-0.2
		c-0.1,0-0.2,0.1-0.3,0.1c-0.1,0.3,0,0.2,0,0.5c-0.1,0.2-0.2,0.3-0.3,0.3C40,58.5,40,58.2,40,58c0,0.1-0.1,0.2-0.1,0.3
		c0.1-0.6-0.3,0.7-0.3,0.2l0.1-0.2c-0.1,0.1-0.3,0.2-0.4,0.2c0.1-0.4,0.2-0.1,0.3-0.4c-0.1,0-0.6,0.6-0.5,0.2c0.1-0.1,0.2,0,0.3-0.1
		c0.1-0.5,0-0.4,0-0.5v0l0-0.3l0,0.1c-0.7,0.8-0.3,0-1,0.4c0.6-0.3,0.3-0.3,0.6-0.6c0-0.1,0.1-0.3,0.2-0.4c-0.3,0.2,0.1-0.3-0.4,0
		c0.1-0.1-0.1-0.1,0.2-0.3c-0.2,0-0.2,0.2-0.3,0.3c-0.5,0.2,0.2-0.7-0.5-0.5c-0.4,0-0.8,0.2-1.2,0.1c0.2-0.2,0.5-0.2,0.5-0.2
		c0.1-0.2,0-0.3-0.2-0.3c0.1,0,0.2-0.1,0.3-0.2c-0.1-0.1-0.5,0.2-0.4,0c0.2-0.1,0.4-0.2,0.6-0.2c-0.2,0-0.5,0-0.7,0
		c0.2-0.2,0.4-0.1,0.5-0.2c-0.2-0.1-0.4-0.2-0.8-0.1l-0.1,0.2c0,0,0.3-0.2,0.4-0.2c0.3,0,0,0.2-0.2,0.3l-0.1,0
		c-0.7,0.5,0.3,0.3,0.3,0.4l-0.6,0.2l0.5-0.1c-0.1,0.1-0.4,0.3-0.5,0.3c-0.2,0.3,0.2,0,0,0.3c0,0-0.1,0-0.1,0l0.2,0
		c-0.1,0-0.4,0.3-0.3,0.1c-0.2,0.4,0.6,0.1,0.3,0.4h0c0.4,0.2,0.4-0.2,1-0.4c-0.3,0.3-0.5,0.5-0.8,0.8l0.4-0.3c0,0,0,0.1-0.1,0.2
		c0.3-0.1,0.1-0.1,0.4-0.3c-0.2,0.4,0.5,0.2,0,0.7c0.3-0.2,0.1-0.3,0.4-0.3c-0.5,0.6,0.2,0,0.1,0.4c-0.3,0.3-0.3,0-0.4,0.4
		c0.5-0.5,0.2,0.3,0.4,0.3c0.3-0.4,0.4,0,0.7,0c-0.1,0.2,0.2,0.5,0.4,0.8l0,0.1c0.2-0.5,0.4-0.3,0.6-0.4c-0.1,0.3-0.2,0.4-0.3,0.5
		c0.1,0,0.1,0,0.2,0c0.1-0.2,0.2-0.2,0.3-0.3L39.8,60c0.3,0,0.5-0.4,0.8-0.1c0-0.4-0.1-1.1,0.1-1.3c0,0.2,0,0.6-0.1,0.6
		c0,0,0.1-0.2,0.1-0.1l-0.1,0.3c0.1,0.2,0.1-0.3,0.2-0.2c0,0.3,0.1,0.2,0.1,0.4c0,0-0.1-0.1-0.1,0c0.1,0.1,0.3,0.2,0.3,0.5
		c0-0.2,0-0.4,0.1-0.4c0.2,0,0.1,0.3,0.3,0.5c0-0.2,0.2,0,0.2-0.5c0.1,0,0.1,0.2,0.2,0.3c0.1-0.2,0.6-0.2,0.3-0.6l0,0c0,0,0,0,0,0
		c0.1-0.3,0.3-0.3,0.5-0.3c0.2,0,0.5,0,0.5-0.2l0.1,0.1c0.1-0.3,0.3-0.4,0.2-0.8c0,0,0.3,0,0.4,0.2c0-0.2-0.1-0.3,0.2-0.4
		c0.1,0.3,0.2,0.1,0.1,0.2c0.2-0.1,0.5,0,0.2-0.5c0.3,0.3,0.5,0.1,0.5-0.1l-0.3,0c0-0.1,0.1-0.2,0.2-0.3l0.4,0.3
		c0.8-0.2-0.6-1.1,0.4-1.1c-0.3-0.2-0.3,0.1-0.7-0.1c0.1-0.2,0.9-0.1,0.9-0.2c0.3-0.2-0.6-0.4-0.4-0.7c-0.2,0-0.7-0.1-0.8-0.3
		c0.1-0.2,0.8,0,0.9,0.1c0,0-0.1,0-0.1,0c0,0.1,0.1,0.2,0.3,0.2l-0.2-0.1c0.2,0,0.2-0.3,0.5-0.2c-0.1-0.2-0.3-0.1-0.4,0
		c0.3-0.2,0.1-0.4,0.3-0.6c-0.1,0-0.3,0-0.3,0c0.3-0.3-0.3-0.2-0.3-0.5c0.3-0.1,0.6,0.2,0.5-0.1c0.2-0.1,0.5,0.1,0.6,0.1
		c-0.3-0.3,0.3-0.4,0.4-0.5l0.1,0.1c-0.1-0.1-0.1-0.1,0-0.2l-0.4,0c0.1-0.1,0.1-0.1,0.2-0.1c-0.2-0.1-0.6,0-0.9-0.2
		c0.2-0.1-0.2-0.3,0.3-0.3c-0.2,0.3,0.5,0,0.5,0.3c0-0.1,0-0.1,0-0.2c0,0,0.1,0,0.1,0c0.5-0.2-0.5-0.2-0.5-0.5c0.3,0.1,0.5,0,0.5,0
		c0,0.1-0.5,0-0.6-0.1c0.2-0.2-0.1-0.2-0.1-0.3l-0.1,0.1c-0.3-0.1-0.2-0.2-0.3-0.3c0.2,0,0.1,0.1,0.2,0.1c-0.5-0.2,0.5-0.3,0.2-0.5
		c0.2-0.1,0.5,0,0.6,0c-0.3-0.2,0.4-0.2,0.1-0.5c-0.4,0-0.3,0-0.6-0.1l0.2,0.4l-0.5-0.3c0,0.1,0.2,0.3,0.1,0.3
		c-0.3-0.1-0.2-0.1-0.5-0.1c0.5-0.1-0.3-0.3,0.1-0.5l0.9,0.1c0.4-0.2-0.4-0.5-0.2-0.8l-0.2,0.1c-0.3-0.1,0-0.2-0.2-0.3
		c0.3,0,0.4,0,0.6-0.1c-0.2,0,0-0.3-0.6-0.3l0.4-0.1c0.2-0.3-0.8-0.3-0.7-0.6c0.3,0.1,0.5,0,0.8,0.2c0-0.1,0.1-0.2-0.1-0.2
		c0.2,0-0.4-0.3-0.1-0.3c-0.1,0-0.4-0.1-0.4-0.2c0.1,0,0.2,0,0.2,0c-0.2,0-0.2-0.2-0.5-0.1c0.9-0.2,0-0.8,0.8-1
		C46.1,47,46,46.7,46,46.6c0.1,0,0.2,0,0.1,0c0.3-0.2-0.8-0.2-0.5-0.4c0.5-0.1,0.3,0.2,0.4,0.1c1,0-0.1-0.3,0.4-0.5l0.1,0
		c0.3-0.1-0.4-0.3-0.3-0.6c0,0,0.1,0,0.2,0c-0.5-0.2-0.7-0.5-0.8-0.7c0.4,0.1,0.2,0.1,0.6,0.1c0-0.1-0.6,0-0.7-0.2
		c0.2-0.1,0.4-0.2,0.8-0.2l0,0.2c0.5-0.1,0-0.2,0.1-0.3l0.2,0c-0.1-0.3-0.7-0.3-0.6-0.6l-0.2,0c-0.6-0.2,0.3-0.1-0.1-0.3l0.6,0
		c-0.1-0.1-0.6-0.4-0.7-0.6c0.4,0.1,0.7,0.3,0.9,0.5c0-0.1,0-0.4-0.3-0.4c0.1,0,0.2,0.1,0.1,0.2c-0.5-0.1-0.7-0.3-0.7-0.5
		c1.2,0,0.3-0.6,1.2-0.7c-0.4-0.4,0.2-0.8,0.1-1.2c-0.9,0.2,0-0.1-0.9-0.1c0-0.1,0-0.1,0-0.2h0l0,0l0.5-0.3c0.3-0.1,0.2,0.1,0.4,0.1
		c0.1-0.2,0.4-0.1,0.6-0.2c-0.3,0-0.5-0.1-0.3-0.2l-0.4,0.2c-0.5-0.3,0.8-0.3,0.3-0.6l0.3,0.1c-0.2-0.2,0-0.6-0.7-0.8
		c0.1,0,0.4-0.1,0.4,0c0.1-0.4-0.8-0.9-0.3-1.2l0.2,0C47,37,46.6,37,46.9,36.9c0.1,0,0.2,0,0.2,0c-0.1,0-0.4-0.2-0.3-0.3l0.2,0.1
		c0.3-0.4-0.6-0.6-0.8-0.9c0.7,0,0.9-0.3,1-0.5l0.1,0c0.1-0.5-0.5-0.8-0.8-1.2c0.7-0.2,0.3-0.9,0.7-1.3c-0.1,0.1-0.5,0-0.6-0.1
		c0.1-0.1-0.5-0.3,0.2-0.2l0,0c0.6-0.1,0.4-0.3,0.5-0.5l-0.8,0c0.5-0.2,0.5-0.7,0.3-1c-0.2-0.4-0.5-0.6-0.3-0.9c0,0,0.1-0.1,0.1-0.2
		c0.3,0,0.7-0.1,0.9-0.6l-0.4-0.6l0.3-0.2l0,0.5c0.3-0.3,0-0.5-0.1-0.7c0.2,0,0.3-0.1,0.4-0.2L47,27.5c0.3-0.1,0.5,0.3,0.7-0.1
		c-0.3-0.3-0.6,0.2-0.8-0.2c0.3-0.3,0.6-0.2,0.3-0.5c0.2,0,0.3,0,0.4,0.2c-0.2-0.3,0-0.8-0.4-1c0.4-0.3,0-1,0.6-1
		c-0.2-0.1-0.5-0.6-0.5-0.8c0.8,0.6,0.1-1,1-0.8c-0.7-0.4-0.2-1.4-0.5-2c0,0,0.2,0.1,0.1,0.2c0.1-0.4,0.3-0.5,0.5-0.7
		c-0.6-0.1-0.7-0.7-1-1c0.6-0.4,0.7,0.4,1.2,0.3c-0.5,0-0.4-0.8-0.8-0.7c0.4-0.3,0.2-0.3,0.7-0.4c-0.7-0.1-0.1-0.3-0.5-0.7
		c0.4-0.5,0.7,0,0.5-0.6c0.3-0.2,0.5,0.3,0.5,0.3c0.1-0.5-0.5-0.3-0.8-0.5c-0.1-0.7,0.4-0.3,0.8-0.4c-0.1-0.4-0.5-0.8-0.5-1.1
		c0.1,0,0.1-0.1,0.2,0c-0.4-0.5,0.2-1.3-0.3-1.9c0,0,0.1,0,0.2-0.1c-0.3,0-0.6,0-0.8,0c0-0.2-0.3-0.5,0.1-0.6c0,0.1,0.1,0.2,0.2,0.3
		L48,13.1c0.5-0.1,0.1,0.4,0.5,0.4c-0.1-0.5-0.4-1.2-0.2-1.6c0.5,0,0,0.9,0.5,0.5l-0.3,0.6c0.9-0.3-0.1,0.4,0.8,0.1
		c0.3-0.8-0.1-0.9,0.2-1.6c-0.2-0.2-0.4,0-0.7-0.3c-0.2-1.2,1.4-0.4,1-1.2c-0.2-0.3-0.8-0.7-0.2-0.9c0.1,0.1,0.3,0.3,0.4,0.4
		c0.3-0.4-0.5-0.8,0.2-0.9c0.1,0.2-0.1,0.4,0,0.4c0.5,0.1-0.1-0.4,0.1-0.6L50.7,9c0,0,0.1-0.1,0.1-0.1L51,8.6
		c0.1-0.1,0.3-0.3,0.4-0.4c0.3-0.3,0.6-0.5,1-0.7c0,0.2-0.1,0.3,0.1,0.4C53,7.8,53.5,7.7,54,7.8c0.6,0.1,0.6,0.3,0.6,0.4
		c0.1-0.1,0.2-0.2,0.3-0.3c0,0.1,0,0.2-0.2,0.2C54.9,8.5,55,8,55.2,7.9c0.2,0.1,0,0.4-0.2,0.4c0.2,0.1,0.4,0.1,0.7,0.3
		c0.1,0.1,0.3,0.2,0.4,0.2l0.1,0.1c0,0,0,0,0,0c0,0,0.1,0,0.1,0c0.2,0.1,0.4,0.5,0.2,0.8c0,0-0.1,0-0.2-0.1c-0.1,0.4,1,0.3,0.7,0.9
		l-0.1-0.1c0,0.6,0,1.3,0,2c0,0.7,0,1.3-0.4,1.9c0.6,0.2-0.3,1.4,0.6,1.5c-0.4,0.8-0.6,0.6-0.9,1.7c0,0.3,0.6,0.4,0.7,0.8l-0.5,0
		l0.5,0.5l-0.5,0.3l0.1,0.3c0-0.1,0.2-0.3,0.3-0.3c0.2,0.5-0.3,1.3-0.5,1.3l0.4,1.3c-0.2,0-0.2-0.2-0.4-0.4c0.5,0.7-0.5,0.1,0,0.8
		c0.1-0.1,0.3,0,0.4,0c-0.3,0.3-0.3,1-0.1,1.5l-0.3-0.1c-0.1,1,0.2,2,0.2,3.1c0.1-0.4,0.7-0.3,0.8,0l-0.5,0.1
		c0.3,0.2,0.2-0.3,0.5,0.1c0,0.4-0.5,0.3-0.7,0l0.2,0.5c-0.2,0-0.2-0.1-0.4-0.1c0.3,0.2-0.5,0.8,0,1.1l-0.1,0c0,1.1,0.2,1.5,0.2,2.4
		c0.4,0,0.3,0.4,0.7,0.6c-0.1,0.6-0.5,1.4-0.4,2.1c0.2,0.5,0.4,0.2,0.6,0.4c-0.4,0-0.3,0.8-0.6,0.4c0.1,0.9,0.1,1.2,0.4,2.3
		c0.2-0.1,0.2-0.3,0.3-0.2c0.1,0.2-0.2,0.5-0.3,0.5l-0.1,0c0.6,1.3-1.1,3-0.3,4.1l0-0.1l0.1,0.3c-0.2,0.1-0.3,0-0.5,0.3
		c0.3,0,0.4,0.3,0.2,0.7l0.5-0.5l0,0.1c0,0.2,0,0.3,0,0.4c-0.1,0-0.3-0.3-0.4-0.1c0.1,0.2,0.2,0.4,0.2,0.6l3.3,0.2
		c0-0.1,0-0.2,0-0.3h0c0.2-0.2,0.5-0.4,0.2-1l0.3,0.3c-0.1-0.3-0.1-0.8-0.2-1.3c1-0.6,0.3-2.5,1.1-3.4l-0.3,0
		c-0.2-0.3,0.2-0.3,0.3-0.5c-0.2,0-0.3,0.2-0.4,0c0.1-2.2,1.2-4.3,2-6.4c0.3-0.8-1.2-0.8-0.4-1.6l0.4,0.4c-0.2-1.7,0.9-3.2,0.9-4.8
		c0.1,0.1,0.2,0.2,0.2,0.3c0.4-0.2,0.4-1.1,0.1-1.3c0.1-0.2,0.3,0,0.5,0c0.3-0.2-0.1-0.9,0.3-1c0.1,0,0.1,0.1,0.1,0.2
		c-0.1-0.3,0.4-0.9-0.1-0.9c0.4-0.5,0.3-1.1,0.7-1.4c-0.3-0.5,0.6-0.8,0.1-1.2c0.6,0.3,0.9-0.7,0.8-1.1c0.1,0.2,0.3-0.2,0.5,0.1
		c0.2-0.4,0.3-0.8-0.1-0.9c1.1-0.3,0.2-1.7,1.3-1.5c0.3-1.2,0.8-2.3,1.4-3.3c0.5,0.4-0.7,1-0.1,1.4c0.4-1,0.3-1.9,1.1-2.3
		c0.2-0.1,0.1,0.3,0.1,0.4c0.2-0.4,0.5-0.6,0.8-0.7c0.3-0.1,0.6-0.2,0.9-0.4c0,0.1-0.1,0.1-0.1,0.2c0.1-0.1,0.3,0.1,0.3-0.2L73.2,11
		c-0.1-0.2,0-0.5,0.2-0.7c0.2-0.2,0.5-0.4,0.5-0.5c-0.3,0.9,0.9,0.3,0.3,1.4c0.1-0.1,0.2-0.2,0.2-0.4c0.2,0.1,0.2,0.2,0,0.4
		c0.6-0.1,0.4-0.4,1-0.3c0,0.1-0.2,0.2-0.2,0.3c0.3-0.2,0.7-0.4,1.1-0.1c-0.1,0.1-0.1,0.2-0.2,0.1c0.3,0.1,0.7,0.1,1,0.1
		c0.3,0.1,0.7,0.2,0.7,0.6c-0.7,0.2-0.1,0.3-0.6,0.5c0.1,0.1,0.2,0.1,0.2,0.2c0.1-0.1,0.2-0.1,0.2-0.2c0.1,0.3,0.5,0.6,0.3,1
		c-0.1-0.1-0.2-0.2-0.2-0.3c0.1,0.2,0.1,0.5,0.1,0.8c0.1-0.1,0.2-0.3,0.2-0.4c0.3,0.4,0.7,0,0.5,0.6c0-0.1-0.1,0.5-0.4,0.6l0,0
		c0.2,0.2,0.3,0.5,0.1,0.8c-0.2,0.1-0.6-0.2-0.7-0.1c0.4,0.3-0.1,1.1,0.4,1.5c-0.1-0.1-0.4-0.2-0.4-0.1l0.3,0.3
		c-0.2,0.2-0.2,0.2-0.4,0.1c-0.2,0.7,0.7-0.1,0.3,0.7c0-0.1-0.1,0-0.1-0.2c-0.1,0.4-0.1,0.9-0.1,1.2c0,0.4,0.1,0.7-0.1,1
		c-0.6,0.1-0.1-0.6-0.6-0.4c0,1,0.4,2.1,0,3.1l0.1-0.2c0.8,0.3-0.5,0.6-0.3,1.2c0-0.1-0.4-0.2-0.3-0.2c-0.3,0.6-0.1,1.4-0.1,2.5
		l-0.2-0.2c-0.3,0.4-0.3,1.1-0.4,1.5c0.2,0.2,0.1,0.4,0.4,0.3c-0.7,0.6-0.6,1.2-0.6,1.8c0.1,0.6,0.1,1.3-0.5,1.7
		c0-0.1-0.1-0.4-0.1-0.3c0,0.3-0.1,0.7-0.1,1c0.3,0,0.2,0,0.6-0.2c0.2,0.2,0.2,0.5,0.1,0.8c-0.1-0.5-0.5-0.2-0.8-0.1
		c0.1,0,0.2,0.1,0.3,0.1c-0.8,0.3,0.6,0.3,0,0.9l-0.2-0.1c0,0.3,0.1,0.6-0.1,0.9c-0.4-0.1-0.1-0.3-0.3-0.5c-0.1,0.4,0.3,1.1-0.1,1.3
		c-0.1-0.2,0-0.5,0-0.7c-0.6,0.3-0.5,0.4-0.7,0.7l0,0c-0.1,0.2-0.2,0.5-0.4,0.7l0.2-0.2c0.9,0.8,0,1.1,0.5,1.9
		c-0.5-0.8-0.3-0.2-0.8-0.3c-0.2,0.2-0.3,0.4-0.4,0.3c0.3,0.4-0.4,0.5,0.1,1c-0.2,0-0.1,0.3-0.4,0.2c0,0.4,0.3-0.1,0.4,0
		c0.4,0.7-0.8,1.4-0.4,2.5c0.1,0.8,0.6,1.1,0.6,1.9c-0.3,0.2-0.5-0.3-0.5-0.3c-0.3,0.3-0.3,0.7-0.3,1.1c-0.1-0.1-0.2-0.1-0.4,0
		c-0.1,0.3,0.5,0.3,0.1,0.7c-0.1-0.1-0.4-0.3-0.5-0.5c0,0.4,0.2,0.8,0.2,1.2c-0.3,0-0.3-0.3-0.4-0.5c0,0.4-0.1,1.1,0.2,1.3l0.2-0.2
		c0,0.2-0.3,0-0.4-0.2c-0.2-0.4,0.3-0.4,0.5-0.4v0.3c0.9,0,0.2-1.1,0.4-1.6l0.5,0.4l-0.3-0.7c0.2-0.1,0.6-0.1,0.6,0.2
		c0.4-0.3-0.1-0.4,0.3-0.6c0.1,0,0.1,0,0.1,0L73.3,43c0.1,0.1,0.4,0,0.3,0.2c0.5-0.6-0.2-1.2,0.3-1.4l0,0.1c0-1-0.4-0.2-0.8-1
		l1.2-0.3l-0.4-0.2c0-0.1,0.1-0.3,0.3-0.2c-0.2-0.4-0.2,0-0.5-0.2c0.5-0.4,0-1.3,0.8-1.3c-0.3-0.2-0.3,0.4-0.5-0.1
		c0.8,0,0-0.6,0.4-1c0.4,0.2,0.1,0.6,0.5,0.2c-0.6-0.4,0.3-0.8,0.2-1.2c-0.5-0.1-0.1-0.8-0.1-1.4c0.1,0,0.2-0.2,0.4-0.4
		c0.2-0.3,0.5-0.7,0.7-0.9l0.1,0C75.7,33.6,76,33,76,32.6c0.3,0.1,0.4,0.2,0.5,0.5l0.1-0.4c-0.1-0.2-0.2-0.3-0.2-0.6l0.4,0.2
		c0.2-0.5-0.1-1.2,0.3-1.9c-0.4-0.1-1.2,0.3-1.2-0.5c0.2,0,0.6,0.1,0.6,0.3c0-0.1-0.1-0.3,0-0.4l0.3,0.4c0.2-0.3-0.2-0.2-0.2-0.5
		c0.3,0.1,0.2-0.1,0.5-0.1c0,0.1-0.2,0.2-0.1,0.3c0.1-0.3,0.4-0.6,0.6-0.7c-0.2,0-0.4-0.1-0.4-0.3c0.1-0.5,0.4-0.1,0.6-0.4
		c-0.2-0.2,0.1-0.5-0.4-0.6c0-0.2,0.2-0.2,0.4-0.2c-0.2-0.3,0.1-1.2-0.4-1l0,0.1c0,0,0,0,0,0c-0.3-1,0.6-1.8,0.6-2.7l0.1,0
		c-0.1-0.6,0.2-1.2-0.1-1.6c0-0.2,0.3-0.3,0.5-0.2c0-0.4-0.2-0.5,0.2-1.1c0.2,0.5,0.2-0.1,0.1,0.5c0.2-0.5,0.5-0.6,0.2-1.3
		c0.3,0.3,0.5-0.4,0.4-0.6c-0.1,0.1-0.2,0.2-0.3,0.4c0-0.3,0-0.6,0.1-0.8l0.5,0.2c0.2-0.3,0.2-0.6,0.2-0.8c0-0.2-0.1-0.4-0.2-0.6
		c-0.2-0.4-0.2-0.9,0.3-1.2c-0.3-0.4-0.3,0.5-0.7,0.2c0.2-0.5,1-0.9,1-1c0.4-0.7-0.6-0.8-0.3-1.5c-0.2,0.1-0.7,0.1-0.8-0.4
		c0.1-0.5,0.8-0.7,0.9-0.3c0,0.1-0.1,0.2-0.1,0.2c0.1,0.2,0.1,0.4,0.3,0.2l-0.2-0.1c0.2-0.3,0.2-1.1,0.5-0.9
		c-0.2-0.5-0.3-0.2-0.4,0.2c0.2-0.8-0.1-1.3-0.3-2.3c0,0.2-0.2,0.4-0.2,0.3c-0.2-0.7-0.4-0.8-0.6-0.7c-0.2,0-0.3,0.1-0.6-0.2
		C78.3,9.9,79,10,78.2,9.7c-0.3-0.4,0.2-0.5,0.4-0.4C77.8,9,77.4,8.3,77,8l0.4,0c-0.3,0-0.5-0.1-0.7-0.2l0.1,0.4
		c-0.2-0.1-0.4-0.2-0.3-0.3c-0.3,0.1,0,0.6-0.5,0.8c-0.2-0.3-0.9,0-0.9-0.5c0.9,0.3,0-0.5,0.8-0.4c-0.2,0-0.4,0-0.6-0.1
		c0-0.1,0.1-0.1,0.1-0.1C74.5,7.1,74.9,8.1,74,8c0.1-0.3-0.2-0.5-0.4-0.4c0.4,0,0.2,0.4-0.2,0.6c-0.6-0.2-0.6,0.2-1,0.2l0.4,0.1
		c-0.1,0.3-0.4,0.3-0.8,0.4c-0.1-0.2,0.3-0.2,0.2-0.3c-0.2,0.3-0.4,0.2-0.8,0.2c-0.3,0-0.7,0-0.9,0.3c-0.4,0-0.3-0.4-0.6-0.4
		c-0.4,0.7-0.9,0.2-1.3,1c0.4,0.1,0.4,0,0.3,0.6c0.2-0.4,0.4-0.7,0.7-1c-0.1,0.3-0.2,0.6-0.2,0.9c0.2-0.2,0.4-0.7,0.7-0.8
		c-0.1,0.5-0.1,0.4,0.2,0.5c-0.7-0.1-0.5,0.9-1.1,1l-0.7-0.6c-0.9,0.4-0.6,1.4-1.3,2.1l0.3-0.2c0.2,0.3-0.3,0.5-0.4,0.9
		c-0.2-0.2-0.4-0.1-0.7-0.1c0.2,0.1-0.4,0.6,0,1l-0.6,0.2c-0.6,0.6,0.2,1.2-0.2,1.9c-0.2-0.4-0.5-0.2-0.5-0.7
		C65,15.7,64.8,15.9,65,16c-0.2,0,0,0.8-0.4,0.9c0.1,0.2,0.3,0.3,0.2,0.6c-0.1,0-0.1-0.1-0.1-0.1c0.1,0.1,0,0.5,0.4,0.4
		c-1.2,0.3-0.9,2-1.9,2.3c-0.2,0.5-0.3,1.2-0.5,1.7c-0.1-0.1-0.1,0-0.1-0.1c-0.5,0.6,0.6,0.7,0.1,1.3c-0.6,0.2-0.1-0.5-0.4-0.3
		c-1-0.2-0.2,1-0.9,1.3l0-0.1c-0.5,0.3,0,1.1-0.2,1.7c0,0-0.1-0.1-0.1,0c0.3,0.6,0.2,1.5,0.2,2.1c-0.3-0.3-0.1-0.3-0.5-0.3
		c0,0.3,0.6,0.1,0.6,0.7c-0.2,0.1-0.5,0.5-1,0.4l0.1-0.5c-0.5,0.1-0.3,0.5-0.3,0.8c-0.1-0.3-0.2-0.6-0.3-0.9
		c0.7-0.8,0.3-2.5,0.7-3.8c-0.1,0.2-0.5,0-0.6-0.2c0.1-0.3-0.5-0.8,0.1-0.7l0,0.1c0.6-0.2,0.4-0.8,0.4-1.2l-0.8-0.1
		c1.1-1.2-0.5-3.1,0.6-3.8c-0.2-0.3-0.2-0.6-0.4-0.9l0.4,0c0.1-0.8,0.2-1.2,0-2.2l0.3,0.2c0-0.6-1.2-0.7-1.3-1.2l0.6-0.2
		c0-1,0.5-1.9-0.1-2.9c0.1,0,0.3,0,0.3,0.2c0-0.2,0.1-0.8,0-1.2s-0.3-0.8-0.7-0.6c0.3-0.1,0.2-0.4,0-0.8c-0.2-0.4-0.7-0.8-1-1
		l0.4-0.1c-0.4-0.1-0.7-0.1-0.9-0.2c-0.1,0-0.2-0.1-0.3-0.1c-0.1,0-0.2-0.1-0.3-0.1c-0.1-0.1,0.2-0.3,0.2-0.1
		c-0.2-0.5-0.5,0-0.8-0.6l0.4,0C56.9,5.9,56.8,6,56.4,6c-0.2-0.1-0.4-0.3-0.7-0.5c-0.2-0.2-0.4-0.4-0.4-0.6
		c-0.2,0.2-0.6,0.4-0.9,0.3c0-0.2,0.1-0.2,0.2-0.3c-1-0.3-1.4,0.6-2.1,0.3c0-0.1-0.1-0.2-0.2-0.2c0.7-0.2,1.3-0.2,1.3-0.2
		c0-0.4-0.7-0.4-0.2-1C52.8,4.2,52.1,5,51.5,5c0,0-0.1-0.1-0.1-0.1l0-0.1c-0.2,0-0.3,0.1-0.3,0.2c-0.2,0-0.3,0-0.5,0.1
		c-0.2-0.3-0.7,0.1-1,0.3c0.2,0.4-0.2,0.5,0.3,0.6c-0.1,0,0-0.1,0.2-0.2c0,0,0.1-0.1,0.1-0.1v0c0.2-0.1,0.4-0.2,0.7-0.3
		c-0.2,0.3-0.3,0.5-0.7,0.5c0,0.3,0,0.6-0.1,0.8c-0.3-0.2-0.7-0.2-1-0.2c-0.4,0-0.7,0.1-0.9,0c-0.8,0.9-1.4,2.2-0.9,3
		c0,0.3-0.3,0.2-0.5,0.2c0-0.2,0-0.3,0-0.4c0,0.6-0.4,1.5,0.1,1.7c-0.4,0.5-0.4-0.4-0.5,0.4l-0.1-0.1c-1.2,1.5,1,2.8-0.4,4.4
		c0.1-0.1,0.1-0.2,0.2-0.2c-0.8,1.9-0.1,4.2-1,6.1c-0.2,0.5,0.1,0.6,0.4,1L45,22.6l0.5,0.6c0.3,0.9-1.2,1.4-0.5,2.5l0.3-0.1
		c-0.1,0.4,0.1,1.2-0.2,1.1c0,0,0.3,0.1,0.2,0.3h-0.2l0.4,1c-0.1,0.5-0.5,0.3-0.7,0.4c-0.3-0.2-0.6-0.8-1.1-0.4
		c0-0.1,0.1-0.3,0.2-0.3c-0.2-0.1-0.7-0.6-0.8,0.2c0.1-0.5-0.4-0.1-0.7,0.1l0.1-0.4C42,28,42,28.2,41.7,28.3c0-0.1,0-0.3,0-0.2
		c-0.2-0.2-0.2,0.4-0.4,0.1l0.1-0.3c-0.2,0-0.2,0.1-0.3,0.4c-0.1,0.2-0.3-0.1-0.4-0.5c0,0.2-0.1,0.5-0.2,0.4c0-0.1,0-0.2,0-0.3
		c-0.3-0.3-0.5,0.5-0.7,0.1c0-0.1,0-0.2-0.1-0.2c0.3,0,0.5,0,0.5,0c0-0.4-0.2-0.4-0.1-1c-0.2,0.3-0.4,1-0.6,0.8c0,0,0-0.1,0-0.1l0,0
		c0,0-0.1,0-0.1,0.1c-0.1,0-0.1-0.1-0.2-0.1c-0.1-0.3-0.3-0.1-0.4-0.1c0.1,0.4-0.1,0.4,0.1,0.7c0,0,0,0,0.1-0.1c0,0,0,0,0,0v0
		c0.1,0,0.2,0,0.2-0.1c0,0.2-0.1,0.4-0.3,0.2c0,0.3,0,0.6,0,0.7c-0.2-0.6-0.6-0.8-0.7-1.2c-0.3,0.3-0.7,0.3-0.7,1.1
		c0,0.1-0.2-0.2-0.2-0.3c0-0.1,0.1-0.1,0.1-0.2c-0.1,0.2-0.5,0.2-0.3,0.8c-0.3-0.2-0.1-0.5-0.3-0.3l0-0.2c-0.4-0.3-0.5,0.1-0.7,0.5
		c-0.1,0.4-0.2,0.8-0.7,0.4c0.1,0,0.1,0.1,0.2,0.1c-0.9-0.1-1.1,1.1-2.1,0.9c-0.3,0-0.1,0.3,0,0.6l-0.3-0.3l0,0.2
		c-0.1-0.1-0.3-0.1-0.4-0.1l0.2-0.2c-0.6-0.4-1.4-0.4-2-0.5c0.2,0.2,0,0.7-0.1,0.7l0-0.5c-0.2,0.3,0.1,0.2-0.1,0.5
		c-0.2-0.1-0.1-0.6,0.1-0.7l-0.3,0.1c0-0.1,0.1-0.2,0.1-0.4c-0.1,0.3-0.4-0.5-0.6,0v-0.1c-0.6-0.1-0.8,0.1-1.2,0.1
		c0,0.4-0.2,0.3-0.4,0.6c-0.3-0.1-0.6-0.5-1-0.5c-0.3,0.2-0.1,0.4-0.2,0.6c0-0.4-0.4-0.3-0.2-0.6c-0.5,0.1-0.6,0.1-1.2,0.5
		c0.1,0.1,0.2,0.2,0.1,0.3c-0.1,0.1-0.3-0.1-0.3-0.3l0,0c-0.3,0.3-0.8,0.1-1.3,0c-0.5-0.1-1-0.2-1.2,0.4l0,0
		c-0.1,0.2-0.3,0.5-0.4,0.7c-0.3,0.1,0-0.4-0.3-0.4c-0.2,0.5-0.4,0.6-0.6,0.8c-0.2,0.1-0.5,0.3-0.5,0.7c-0.6-0.2-0.9,0.2-1,0.6
		c-0.2,0.4-0.3,0.9-0.7,1l0.3,0.1c0.2,0.2-0.2,0.1-0.3,0.2c0.2,0.1,0.3-0.1,0.4,0.1c-0.2,1.3-1.1,2.3-1.6,3.4
		c-0.1,0.4,1.3,0.4,0.6,0.8l-0.5-0.2c0.5,0.9-0.2,1.6,0.2,2.4c-0.1-0.1-0.2-0.1-0.2-0.2c-0.4,0.1-0.1,0.6,0.2,0.6c0,0.1-0.3,0-0.4,0
		c-0.2,0.1,0.4,0.5,0,0.5c-0.1,0-0.1-0.1-0.1-0.1c0.2,0.1-0.1,0.5,0.3,0.4c-0.2,0.3,0.1,0.6-0.1,0.8c0.5,0.2-0.3,0.5,0.4,0.6
		c-0.7-0.1-0.6,0.5-0.3,0.7c-0.2-0.1-0.2,0.2-0.5,0c0,0.2,0.1,0.4,0.5,0.4c-0.8,0.3,0.6,0.8-0.4,1c0.3,0.7,0.6,1.3,0.8,1.8
		c-0.7,0-0.1-0.6-0.8-0.6c0.3,0.6,0.9,0.9,0.7,1.4c-0.1,0.2-0.3-0.1-0.4-0.1c0.3,0.5,0,1.1,0.4,1.6c-0.1,0-0.1,0-0.2-0.1
		c0,0.1-0.1,0.2,0.2,0.2l-0.1-0.1c0.4-0.2,1,0.3,1.2,0.3c-0.9-0.1-0.2,0.5-1.3,0.4c0.1,0.1,0.2,0.1,0.4,0.1c0,0.1-0.2,0.2-0.4,0.1
		c0.2,0.3,0.5,0.2,0.6,0.5c-0.1,0-0.2,0-0.4,0c0.3,0.1,0.6,0.2,0.5,0.5c-0.1,0-0.2,0.1-0.2,0c0.1,0.5,0.9,0.6,0.8,1.2
		c-0.7,0-0.2,0.2-0.7,0.4l0.2,0.2l0.2-0.2c0.1,0.2,0.5,0.3,0.4,0.6l-0.3-0.1l0.3,0.4l0.1-0.3c0.4,0.1,0.6-0.3,0.6,0.1
		c-0.1,0,0.1,0.2-0.2,0.5l0,0c0.2,0,0.4,0.1,0.4,0.3c-0.1,0.1-0.6,0.2-0.7,0.3c0.5-0.1,0.4,0.5,0.9,0.3c-0.1,0-0.4,0.2-0.4,0.2
		l0.4-0.1c0,0.2-0.1,0.2-0.3,0.3c0.1,0.3,0.5-0.5,0.5,0c0,0-0.1,0-0.2,0c0.1,0.4,0.6,0.5,0.7,0.9c-0.4,0.5-0.3-0.2-0.6,0.2
		c0.5,0.4,1.3,0.4,1.6,0.8L22.9,57.5z M24.3,58.6c0,0-0.1-0.1-0.1-0.1c0.1,0,0.1,0,0.2,0L24.3,58.6z M32.3,42.8
		c-0.1-0.1,0-0.1,0.1-0.1c0,0,0,0.1,0,0.1c0,0,0,0,0,0C32.5,42.8,32.4,42.8,32.3,42.8z M35.2,42.1c0,0,0,0.1,0,0.1
		C35.3,42.2,35.3,42.2,35.2,42.1L35.2,42.1z M35.2,41.6c0,0.1,0,0.2,0,0.2c-0.2,0-0.3,0-0.3,0C35,41.8,35.1,41.7,35.2,41.6z
		 M59.8,32.5c0,0.2,0.1,0.4,0.1,0.6c-0.1-0.2-0.2-0.4-0.2-0.6C59.7,32.5,59.8,32.5,59.8,32.5z M53,7c0,0.1,0.2,0.1,0.4,0.2
		c-0.1,0-0.3,0-0.4,0.1C52.8,7.2,52.8,7,53,7z M52.4,7.4L52.4,7.4c-0.1,0.1-0.2,0.1-0.2,0.1C52.2,7.5,52.3,7.5,52.4,7.4z M50.2,5.3
		C50.2,5.3,50.2,5.3,50.2,5.3c0,0,0-0.1,0-0.2c0.2-0.1,0.3-0.1,0.3,0C50.4,5.2,50.3,5.2,50.2,5.3z M40.1,30c0,0.1,0.1,0.2,0.1,0.3
		c0,0-0.1,0-0.2,0C40.1,30.1,40.1,30,40.1,30z M39.9,30.3L39.9,30.3C39.9,30.3,39.8,30.3,39.9,30.3C39.8,30.3,39.8,30.3,39.9,30.3z
		 M39.1,27.6L39.1,27.6c0,0,0-0.1,0-0.2c0.1-0.1,0.1,0,0.1,0.1C39.2,27.6,39.1,27.6,39.1,27.6z M35,33.3c0,0-0.1,0.1-0.1,0.1
		c-0.1,0-0.1-0.1-0.1-0.2C34.8,33.2,34.9,33.2,35,33.3z"/>
	<path class="st0" d="M32.9,42.9C32.9,42.9,32.9,43,32.9,42.9c0.1,0,0.1,0,0.1,0L32.9,42.9L32.9,42.9z"/>
	<path class="st0" d="M25.2,57.4C25.2,57.5,25.2,57.5,25.2,57.4C25.2,57.5,25.2,57.5,25.2,57.4L25.2,57.4z"/>
	<polygon class="st0" points="35.5,33.8 35.4,33.8 35.5,33.8 	"/>
	<path class="st0" d="M29.4,59l0.2,0.1C29.5,59,29.4,59,29.4,59z"/>
	<path class="st0" d="M30.5,58.8c0-0.1,0-0.1-0.1-0.2l0,0L30.5,58.8z"/>
	<path class="st0" d="M18.5,49.7C18.5,49.7,18.5,49.7,18.5,49.7C18.4,49.6,18.4,49.6,18.5,49.7z"/>
	<path class="st0" d="M20.6,54.2c-0.1,0-0.2,0-0.2-0.1C20.4,54.3,20.4,54.3,20.6,54.2z"/>
	<polygon class="st0" points="18,44.3 18,44.3 18,44.2 	"/>
	<path class="st0" d="M20.4,54.2c0-0.1,0-0.2-0.1-0.2C20.2,54.1,20.3,54.1,20.4,54.2z"/>
	<path class="st0" d="M33.9,55.1C33.9,55.1,33.9,55.1,33.9,55.1L33.9,55.1L33.9,55.1z"/>
	<path class="st0" d="M33.8,55.1L33.8,55.1C33.8,55,33.8,55,33.8,55.1z"/>
	<path class="st0" d="M33.8,54.8l0.1,0.2C33.8,54.9,33.8,54.9,33.8,54.8z"/>
	<path class="st0" d="M32.7,56.8c0.1-0.1,0.4,0,0.4-0.2l-0.1-0.1C33.2,56.7,32.6,56.6,32.7,56.8z"/>
	<path class="st0" d="M30.5,56.6c-0.1-0.1-0.3-0.2-0.3-0.3c-0.6-0.2,0.3,0.2,0,0.4L30.5,56.6z"/>
	<path class="st0" d="M29.2,56.7c0,0.2,0,0.2,0.1,0.3C29.5,56.8,29.2,56.8,29.2,56.7z"/>
	<path class="st0" d="M23.8,56l0.3-0.3C23.9,55.8,23.9,55.9,23.8,56z"/>
	<polygon class="st0" points="21.4,56.3 21.2,56.6 21.6,56.4 	"/>
	<polygon class="st0" points="23.2,54.1 23.3,54.2 23,54.1 	"/>
	<path class="st0" d="M21.8,43.2l-0.5,0C21.4,43.3,21.9,43.3,21.8,43.2z"/>
	<path class="st0" d="M22,38c0.2,0,0.4-0.1,0.2-0.2C22.1,37.8,21.9,37.9,22,38z"/>
	<path class="st0" d="M31.6,34.3l-0.1,0.1C31.5,34.4,31.6,34.4,31.6,34.3L31.6,34.3z"/>
	<path class="st0" d="M37,54.3c-0.1,0-0.4,0.2-0.3,0.2l0.5-0.2L37,54.3z"/>
	<path class="st0" d="M37.5,54.7c-0.5,0.2-0.3,0-0.8,0.2c-0.1,0,0.1-0.2,0.2-0.3c-0.1,0,0-0.2-0.2,0c-0.3,0.3-0.2,0.4,0.1,0.3
		c-0.1,0.1-0.2,0.1-0.3,0.2C36.7,55.1,37.1,55,37.5,54.7z"/>
	<path class="st0" d="M45.3,55.4C45.3,55.4,45.3,55.3,45.3,55.4C45.2,55.4,45.3,55.4,45.3,55.4z"/>
	<path class="st0" d="M45.9,54.7C45.9,54.7,45.9,54.7,45.9,54.7C45.9,54.7,46,54.7,45.9,54.7z"/>
	<path class="st0" d="M42.2,59.4c0.1,0,0.1,0.1,0.2,0.1C42.3,59.3,42.3,59.4,42.2,59.4z"/>
	<path class="st0" d="M37.9,55.4c0,0-0.1,0-0.1,0C37.8,55.4,37.8,55.4,37.9,55.4C37.9,55.4,37.9,55.4,37.9,55.4z"/>
	<path class="st0" d="M39.7,59.9L39.7,59.9c-0.1,0-0.1,0.1-0.1,0.2L39.7,59.9z"/>
	<path class="st0" d="M38.3,58.7c-0.1,0.1-0.2,0.2-0.2,0.2c0,0.1-0.1,0.1-0.2,0.2C37.9,59.2,38.2,58.8,38.3,58.7z"/>
	<path class="st0" d="M46.7,53.3C46.7,53.3,46.7,53.3,46.7,53.3C46.8,53.3,46.8,53.3,46.7,53.3z"/>
	<path class="st0" d="M46.9,40c-0.4,0.1-0.5-0.2-0.9,0C46.2,40,46.7,40.2,46.9,40z"/>
	<path class="st0" d="M46.3,48.5C46.3,48.5,46.4,48.5,46.3,48.5C46.3,48.4,46.3,48.4,46.3,48.5C46.3,48.5,46.3,48.5,46.3,48.5z"/>
	<path class="st0" d="M46.3,47.2C46.3,47.2,46.2,47.2,46.3,47.2L46.3,47.2L46.3,47.2z"/>
	<path class="st0" d="M37.2,31.3c0.1,0.3,0,0.4,0.2,0.3C37.3,31.5,37.3,31.4,37.2,31.3z"/>
	<path class="st0" d="M37.9,55.5C37.9,55.5,37.9,55.5,37.9,55.5c-0.1,0-0.2,0-0.2,0.1C37.8,55.5,37.9,55.5,37.9,55.5z"/>
	<path class="st0" d="M43,47.5c0.2,0,0.2-0.1,0.3-0.1c0,0-0.1,0-0.1,0L43,47.5z"/>
	<path class="st0" d="M39,28C39,28,39,28.1,39,28c0,0.1,0,0.1,0,0.1L39,28L39,28z"/>
	<path class="st0" d="M42.1,59.4C42.1,59.4,42.1,59.3,42.1,59.4C42.1,59.3,42.1,59.3,42.1,59.4L42.1,59.4z"/>
	<polygon class="st0" points="43.3,31.8 43.4,31.7 43.3,31.8 	"/>
	<path class="st0" d="M39.4,57.6l0-0.2C39.4,57.5,39.4,57.6,39.4,57.6z"/>
	<path class="st0" d="M39.1,57.1c0,0-0.1,0.1-0.1,0.1l0,0L39.1,57.1z"/>
	<path class="st0" d="M43.2,52C43.2,52,43.2,52,43.2,52C43.1,51.9,43.2,51.9,43.2,52z"/>
	<path class="st0" d="M43.6,55.3c-0.1,0-0.1-0.1-0.2-0.2C43.3,55.2,43.3,55.2,43.6,55.3z"/>
	<polygon class="st0" points="43,48.4 43,48.4 43,48.4 	"/>
	<path class="st0" d="M43.4,55c-0.1,0-0.1,0.1,0,0.1C43.4,55.1,43.5,55.1,43.4,55z"/>
	<path class="st0" d="M37.6,54.9L37.6,54.9L37.6,54.9C37.7,54.9,37.6,54.9,37.6,54.9z"/>
	<path class="st0" d="M37.4,54.8l0.1,0C37.5,54.8,37.5,54.8,37.4,54.8z"/>
	<path class="st0" d="M38.1,55.9c0-0.1,0.2-0.3,0.1-0.3l-0.1,0.1C38.3,55.6,37.9,56,38.1,55.9z"/>
	<path class="st0" d="M36.9,58c-0.1,0.6,0.2-0.3,0.4,0l-0.1-0.3C37.2,57.9,37,58.1,36.9,58z"/>
	<path class="st0" d="M37.8,58.8c-0.2,0-0.2,0.2-0.2,0.2C37.8,59,37.8,59,37.8,58.8z"/>
	<path class="st0" d="M44.2,58.6c0-0.1-0.1-0.1-0.3-0.2L44.2,58.6z"/>
	<polygon class="st0" points="42.8,56.4 42.5,56.4 42.8,56.6 	"/>
	<polygon class="st0" points="45.6,57 45.5,56.7 45.5,56.9 	"/>
	<path class="st0" d="M46.7,47.4l-0.5,0C46.3,47.5,46.8,47.5,46.7,47.4z"/>
	<path class="st0" d="M46.2,43.5c0.2,0,0.4-0.2,0.2-0.2C46.4,43.4,46.2,43.5,46.2,43.5z"/>
	<polygon class="st0" points="47.3,31.8 47.1,31.6 47.1,31.7 	"/>
	<path class="st0" d="M79.8,13.8c0,0.1,0.1,0.2,0.1,0.2C79.9,13.9,79.9,13.8,79.8,13.8z"/>
	<path class="st0" d="M79.8,11.1c0-0.1,0-0.2-0.1-0.2C79.8,10.9,79.8,11,79.8,11.1z"/>
	<path class="st0" d="M77.7,26.4c-0.2,0-0.2,0.1-0.2,0.3L77.7,26.4z"/>
	<path class="st0" d="M71.4,43.9c0,0.1,0,0.1,0.1,0.2C71.5,44,71.5,44,71.4,43.9C71.5,43.9,71.5,43.9,71.4,43.9z"/>
	<path class="st0" d="M76.7,32.6l0,0.1c0,0,0.1,0.1,0.2,0.2L76.7,32.6z"/>
	<path class="st0" d="M74.8,36.3c0.2,0.1,0.2,0.2,0.2,0.3c0.1,0,0.2,0,0.3,0C75.4,36.5,75,36.4,74.8,36.3z"/>
	<path class="st0" d="M47.9,24.9C47.9,24.9,47.8,24.9,47.9,24.9C47.9,24.9,47.9,24.9,47.9,24.9z"/>
	<path class="st0" d="M75.4,7.6C75.4,7.6,75.4,7.6,75.4,7.6C75.6,7.6,75.5,7.6,75.4,7.6z"/>
	<path class="st0" d="M66.1,13.1c0.1,0,0.1,0,0.2,0C66.3,13.1,66.2,13.1,66.1,13.1z"/>
	<path class="st0" d="M64.7,16.6c-0.1,0.1-0.1,0.1-0.2,0.2c0,0,0,0,0.1,0C64.5,16.8,64.5,16.7,64.7,16.6z"/>
	<path class="st0" d="M63,20.1c0,0,0.1,0,0.1,0c0,0,0-0.1,0-0.1L63,20.1z"/>
	<path class="st0" d="M49,13.6c-0.1,0.1-0.3,0.1-0.4,0.1C48.8,13.8,48.9,14.3,49,13.6z"/>
	<path class="st0" d="M71.5,43.8c0,0,0,0.1,0,0.1c0.1,0,0.1,0,0.2,0C71.6,43.9,71.5,43.8,71.5,43.8z"/>
	<path class="st0" d="M67.5,18.3l-0.3,0.5C67.3,18.7,67.4,18.5,67.5,18.3z"/>
	<path class="st0" d="M66.5,20.4c-0.2,0-0.3,0.1-0.4,0.2c0,0,0,0.1,0.1,0.1L66.5,20.4z"/>
	<path class="st0" d="M50,5.8C50,5.8,50,5.8,50,5.8C50,5.9,50.1,5.9,50,5.8C50.1,5.8,50.1,5.8,50,5.8C50.1,5.8,50.1,5.8,50,5.8z"/>
	<path class="st0" d="M77.4,26.9C77.4,26.9,77.4,26.9,77.4,26.9C77.4,26.9,77.4,26.9,77.4,26.9L77.4,26.9z"/>
	<polygon class="st0" points="56.5,18.4 56.6,18.4 56.5,18.3 	"/>
	<path class="st0" d="M73.6,35l-0.2,0.4C73.4,35.2,73.5,35.1,73.6,35z"/>
	<path class="st0" d="M72.9,37.1c0.1,0,0.1,0.1,0.2,0.1l0,0L72.9,37.1z"/>
	<path class="st0" d="M73,11.2C73,11.2,72.9,11.2,73,11.2C72.8,11.3,72.9,11.3,73,11.2z"/>
	<path class="st0" d="M78.1,14.9c-0.1-0.1-0.1-0.2-0.2-0.3C77.9,14.7,77.9,14.8,78.1,14.9z"/>
	<polygon class="st0" points="67.6,18.3 67.6,18.3 67.5,18.3 	"/>
	<path class="st0" d="M78,14.1c-0.1,0.1-0.1,0.3-0.1,0.4C78,14.4,78.1,14.2,78,14.1z"/>
	<path class="st0" d="M70.8,45.6C70.8,45.6,70.9,45.6,70.8,45.6L70.8,45.6L70.8,45.6z"/>
	<path class="st0" d="M70.9,45.6l0,0.1C70.9,45.7,70.9,45.6,70.9,45.6z"/>
	<path class="st0" d="M70.9,46l0-0.2C70.9,45.8,70.8,45.9,70.9,46z"/>
	<path class="st0" d="M71.9,42.3c-0.1,0.2-0.4,0.4-0.4,0.7l0.1,0C71.5,42.8,72.2,42.5,71.9,42.3z"/>
	<path class="st0" d="M74.2,40c0.2-0.1,0.4-0.2,0.4,0.1c0.6-0.8-0.4,0.1-0.2-0.8L74.2,40z"/>
	<path class="st0" d="M75,37.2c0,0.4,0.2,0,0.3,0.1C75.2,37,75.2,37,75,37.2z"/>
	<path class="st0" d="M78.7,22.2l0.4,0.1C79.1,22,78.9,22.3,78.7,22.2z"/>
	<path class="st0" d="M77.1,19l-0.2,0.2l0.3,0.1C77.2,19.3,77.2,19.2,77.1,19z"/>
	<polygon class="st0" points="80.1,17.8 80,17.3 80,17.6 	"/>
	<path class="st0" d="M62.9,19.4l0.5,0.1C63.4,19.3,62.9,19,62.9,19.4z"/>
	<polygon class="st0" points="60.3,21.3 60.5,21.5 60.3,21.1 	"/>
	<path class="st0" d="M37.4,94.5c0.1,0,0.2,0,0.2-0.1C37.5,94.4,37.4,94.4,37.4,94.5z"/>
	<path class="st0" d="M40.3,95.6c-0.1,0-0.1,0-0.2-0.1C40.2,95.6,40.3,95.6,40.3,95.6z"/>
	<path class="st0" d="M23.9,85.4c0.2,0,0-0.3,0-0.5L23.9,85.4z"/>
	<path class="st0" d="M24.8,62.1c0-0.1-0.1-0.2-0.1-0.2C24.7,62,24.7,62,24.8,62.1C24.8,62.1,24.8,62.1,24.8,62.1z"/>
	<path class="st0" d="M22.3,77.7l0-0.1c-0.1,0-0.1-0.1-0.2-0.1L22.3,77.7z"/>
	<path class="st0" d="M22.7,72.3c-0.2-0.1-0.2-0.2-0.3-0.3c-0.1,0-0.2,0-0.3,0.1C22.1,72.2,22.5,72.3,22.7,72.3z"/>
	<path class="st0" d="M54.7,70.1C54.7,70.1,54.7,70.1,54.7,70.1C54.7,70.1,54.7,70.2,54.7,70.1z"/>
	<path class="st0" d="M49,73L49,73c0-0.1-0.1-0.2-0.2-0.2L49,73z"/>
	<path class="st0" d="M45.7,96.5C45.7,96.5,45.7,96.5,45.7,96.5C45.5,96.5,45.6,96.5,45.7,96.5z"/>
	<path class="st0" d="M82.3,73.1c-0.5,0.5-0.2-1.1-0.9-0.3C81.7,72.7,81.9,73.8,82.3,73.1z"/>
	<path class="st0" d="M57.2,96.2c0,0,0,0.1,0.1,0.2C57.3,96.3,57.3,96.2,57.2,96.2z"/>
	<path class="st0" d="M62.1,95.6c0.1,0,0.2,0.1,0.3,0c0,0,0,0-0.1,0C62.3,95.6,62.2,95.6,62.1,95.6z"/>
	<path class="st0" d="M66.9,94.4c0,0-0.1,0-0.1-0.1c0,0-0.1,0.1-0.1,0.1L66.9,94.4z"/>
	<path class="st0" d="M67.8,66.2c-0.2-0.1-0.3-0.2-0.4-0.3C67.6,66.2,66.8,66.6,67.8,66.2z"/>
	<path class="st0" d="M24.8,62.3c0,0,0-0.1,0-0.2c-0.1,0-0.1,0-0.2,0C24.7,62.1,24.8,62.2,24.8,62.3z"/>
	<path class="st0" d="M61.8,92.2l0.7,0C62.3,92.2,62.1,92.2,61.8,92.2z"/>
	<path class="st0" d="M64.5,91.7c0.2,0.1,0.3,0.2,0.4,0.2c0,0,0-0.1,0-0.1L64.5,91.7z"/>
	<path class="st0" d="M83.1,70.3L82.6,71c-0.4-1.3,0.9-1.1,0.4-2.3l0.3,0.4c-0.2-0.7,0-2.4-0.8-2.9c0.1-0.1,0.3-0.3,0.4,0
		c0-1.5-1-3.2-0.7-4.4l0.2,0.1c-0.1-0.3-0.5-0.4-0.3-0.8c0.1,0,0.2,0.1,0.2,0c-0.1-0.1-0.5-0.7-0.4-1l0.3,0.3
		c0.1-1.5-0.9-2.1-1.3-3.2c0.7-0.1,0.6-1.3,0.6-1.9h0.1c-0.3-1.7-1.3-2.8-2.3-4.2c0.1-0.6-0.4-1.5-1.2-2.4c-0.8-0.8-2-1.5-2.9-1.9
		c0.3,0.2-0.2,0.5-0.5,0.5c-0.4-0.2-1.2,0.3-1-0.3l0.1,0c-0.2-0.6-1.1-0.5-1.6-0.6L72,47c-0.2-0.1-0.3-0.2-0.5-0.3
		c-0.1-0.1-0.2-0.2-0.3-0.3l0.2,0l0.3-0.1l-0.5,0.1c-0.1-0.1-0.2-0.1-0.4-0.2c0.2,0.2,0.2,0.3,0.2,0.4c-1.4-0.3-3,0.4-3.6-0.4
		c-0.4,0.2-0.8,0.1-1.2,0.3l0-0.4c-1.1-0.1-1.6-0.2-3.1,0.1l0.3-0.3c-0.9,0.1-0.8,1.4-1.5,1.6c-0.1-0.2-0.3-0.4-0.4-0.5
		c-0.7,0.3-1.5,0.5-2.2,1c-0.7,0.5-1.3,1.1-1.4,1.9c-0.1-0.1-0.2-0.2-0.1-0.4c-0.2,0.3-0.7,0.9-1,1.4c-0.2,0.6-0.2,1.1,0.2,1
		c-0.3-0.1-0.4,0.3-0.4,0.8s0.2,1.1,0.3,1.5l-0.4-0.1c0.6,0.7,0.7,0.7,1.1,1.5c0,0.2-0.3,0.3-0.2,0c0,0.8,0.5,0.4,0.7,1.3
		c-0.1,0-0.2-0.1-0.4-0.2c0.3,0.7,0.4,0.6,0.9,0.7c0.4,0.3,0.8,1.1,0.6,1.4c0.2-0.1,0.7-0.1,1,0.2c0,0.2-0.2,0.1-0.3,0.1
		c0.4,0.5,0.9,0.6,1.3,0.7c0.4,0.1,0.8,0.1,1.1,0.4c0,0.1,0,0.2,0.1,0.3c-1-0.2-1.7-0.7-1.6-0.7c-0.2,0.3,0.6,0.8-0.3,1
		c0.8,0.1,2.1-0.2,2.9,0c0,0,0.1,0.1,0.1,0.1l-0.1,0c0.2,0,0.3,0,0.5,0c0.2,0.1,0.4,0.1,0.6,0.1c0.1,0.3,0.8,0.1,1.1,0.1
		c-0.1-0.4,0.4-0.4,0-0.7c0.1,0-0.1,0-0.3,0.1c-0.1,0-0.1,0-0.1,0l0,0c-0.2,0-0.5,0-0.9,0.1c0.3-0.2,0.6-0.4,0.9-0.2
		c0.2-0.3,0.3-0.6,0.4-0.7c0.5,0.6,1.2,0.9,1.3,1.3c0.6-0.2,0.8,0,1.7,0.2c0.2,0.2-0.2,0.3-0.3,0.3c-0.1-0.1-0.1-0.2-0.2-0.2
		c0.1,0.1,0.2,0.3,0.2,0.5c0,0.2,0,0.4,0.3,0.6c-0.5,0.4-0.3-0.5-0.6,0.2c0-0.1-0.1-0.1-0.1-0.2c-0.8,0.3-0.7,0.7-1.3,1.3
		c-0.5,0.5-1.4,0.9-2.5,0.4c0.2,0.1,0.2,0.1,0.3,0.2c-1.2-0.2-2.6,0-3.9,0.4c-1.3,0.3-2.5,0.8-3.9,0.9c-0.8,0.2-0.7,0.5-0.9,1
		l-0.3-0.3L54.9,67c-0.4,0.4-0.9,0.4-1.5,0.5c-0.5,0.1-1.1,0.3-1.4,1l0.3,0.1c-0.4,0.3-1,1.2-1.2,0.8c0,0.1,0.1,0.3-0.1,0.4
		l-0.2-0.2c-0.2,0.4-0.4,0.8-0.5,1.2c-0.8,0.6-0.6-0.8-1.5,0.3c-0.3,0.5-0.3,1.6-0.1,1.5c0.1-0.2,0.4-0.3,0.6-0.2L49.1,73
		c0.5,0.5,1,1.1,1.9,0.6c0-0.3,0-0.5,0.1-0.8l0.4,0l-0.3,0.5c0.5-0.1,0.4-0.4,0.4-0.7c0.2,0.1,0.3,0.1,0.5,0l0-1
		c0.2,0.1,0.2,0.6,0.6,0.4c0-0.4-0.7-0.2-0.4-0.7c0.5,0,0.6,0.2,0.7-0.2c0.2,0.1,0.2,0.2,0.1,0.4c0.1-0.4,0.6-0.7,0.5-1.1
		c0.5,0.1,0.9-0.8,1.2-0.2c0-0.2,0.2-0.8,0.5-1c-0.1,1,1-0.6,1.3,0.2c0-0.8,1.2-1,1.8-1.6c0,0.1,0,0.2-0.1,0.2
		c0.4-0.1,0.6,0.1,0.9,0.1c-0.2-0.6,0.5-0.9,0.7-1.4c0.7,0.4-0.1,0.8,0.2,1.2c-0.2-0.5,0.8-0.7,0.5-1c0.5,0.2,0.4,0.1,0.7,0.5
		c-0.1-0.7,0.3-0.2,0.6-0.7c0.6,0.3,0.2,0.7,0.8,0.4c0.3,0.2-0.2,0.5-0.2,0.5c0.6-0.1,0.2-0.6,0.3-0.9c0.8-0.2,0.4,0.4,0.7,0.6
		c0.5-0.2,0.9-0.7,1.3-0.7c0,0.1,0.1,0.1,0,0.2c0.3-0.2,0.7-0.3,1.2-0.4c0.5-0.1,1-0.3,1.3-0.7c0.1,0,0.1,0.1,0.1,0.1
		c-0.2-0.2-0.3-0.5-0.4-0.7c0.3-0.1,0.5-0.6,0.8-0.3c-0.2,0.1-0.2,0.2-0.2,0.4l0.3-0.3c0.6,0.3-0.4,0.4-0.3,0.7
		c0.3-0.2,0.7-0.6,1-0.9c0.3-0.3,0.5-0.7,0.8-0.8c0.2,0.1,0,0.4-0.2,0.7c-0.2,0.2-0.3,0.4,0.2,0.2c-0.3,0.2-0.6,0.4-1,0.5
		c1.2,0.2-0.7,0.3,0.5,0.6c0.8-0.4,1-0.8,1.3-1.1c0.2-0.4,0.4-0.7,0.9-1.4c-0.1-0.5-0.4-0.1-0.6-0.5c0.1-1.1,0.4-1.5,0.6-1.9
		c0.2-0.4,0.5-0.9-0.3-1.6c-0.3-0.1-0.6-0.1-0.8-0.2c-0.3-0.1-0.5-0.2-0.9-0.7c0.2-0.1,0.4-0.2,0.7-0.2c-0.7-0.5-1-0.4-1.3-0.3
		c-0.1,0-0.3,0.1-0.5,0c-0.2,0-0.4-0.1-0.7-0.2c0.1-0.1,0.4-0.1,0.6-0.1c0.3,0,0.4,0.1,0.3,0c-0.6-0.4-0.7-0.3-0.8-0.2
		c-0.2,0.1-0.3,0.3-0.6,0.3l-0.1-0.5c-1.3,0-2.4,0.6-3.3,0.6c0.1-0.2,0.2-0.3,0-0.5c-0.5,0.1-1.1-0.1-1.5-0.5
		c-0.5-0.3-0.8-0.8-0.9-1.3c-0.2,0-0.4,0-0.6,0c0-0.1,0.1-0.2,0.2-0.2c0-0.4-0.2,0.1-0.5,0c-0.1-0.2,0.1-0.4,0.3-0.3
		c-0.3-0.2-0.7-0.6-0.8-1.1c-0.2-0.5-0.1-1.1,0.2-1.4l0.1,0.2c0.3-0.5-0.7-1,0-1.3l0,0.1c0.4-0.6,0.8-1.2,1.3-1.5
		c0.5-0.4,1.2-0.6,1.8-0.4c0-0.7,1.4,0,1.4-0.8c0.9,0.4,0.7,0.6,1.9,0.9c0.3,0.1,0.6-0.5,1-0.6l0,0.5l0.7-0.4l0.3,0.6l0.4-0.1
		c-0.2,0-0.3-0.2-0.3-0.4c0.7-0.2,1.6,0.4,1.6,0.7l1.6-0.3c-0.1,0.2-0.3,0.2-0.5,0.3c0.9-0.4,0.1,0.5,0.9,0.1
		c-0.1-0.1,0.1-0.3,0.1-0.4c0.4,0.3,1.2,0.4,1.7,0.4l-0.2,0.3c0.4,0.1,0.8,0.2,1.1,0.3c0.3,0.1,0.7,0.4,1,0.7
		c-0.1-0.3,0.3-0.7,0.6-0.5l-0.3,0.4c0.4,0-0.1-0.4,0.5-0.3c0.2,0.4-0.3,0.5-0.5,0.5c0.1,0.1,0.3,0.2,0.4,0.3
		c-0.1,0.1-0.2,0-0.4,0.1c0.4,0,0,0.9,0.6,0.9l-0.1,0.1c0.4,1,0.7,1.5,1,2.4c0.4-0.1,0.4,0.3,0.8,0.6c0,0.8-0.1,1.7,0.1,2.6
		c0.3,0.6,0.4,0.1,0.7,0.4c-0.4,0.1-0.2,1-0.5,0.6c0.2,1.1,0.3,1.4,0.8,2.8c0.1-0.2,0.2-0.3,0.3-0.3c0.1,0.2-0.1,0.6-0.3,0.6
		l-0.1-0.1c0.8,1.6-0.8,3.8,0,5l0-0.1c0.2,0.4,0.3,0.9,0.4,1.3c-0.1,0.6-0.3-0.4-0.5,0.1c0.6,1.4-0.2,2.1,0,3.2
		c-0.6,0.3-0.8,0.9-1,1.5c-0.3,0.8-0.6,1.7-1.2,2.1l0.3,0.1c0.1,0.4-0.3,0.3-0.5,0.5c0.2,0.1,0.4-0.2,0.4,0
		c-0.9,2.6-2.8,4.9-4.3,7.3c-0.5,0.9,0.9,1.2-0.2,2L72.3,85c-0.2,1-0.7,1.9-1.3,2.8c-0.4,0.7-0.8,1.3-1.2,2c0-0.2,0-0.3,0.1-0.3
		c-0.4-0.2-1.2,0.7-1.1,1c-0.3,0.1-0.2-0.2-0.4-0.2c-0.4,0-0.7,0.8-1,0.6c0,0,0-0.1,0-0.1c-0.2,0.2-1,0.4-0.7,0.7
		c-0.7,0.1-1.2,0.7-1.8,0.6c-0.2,0.6-1.2,0.1-1.2,0.8c-0.1-0.7-1.3-0.3-1.7,0.1c0.1-0.2-0.4-0.2-0.3-0.5c-0.5,0.1-1,0.2-0.8,0.6
		c-1-0.7-1.9,0.8-2.5-0.3c-1.5,0.4-3.1,0.5-4.5,0.6c0.1-0.7,1.6,0,1.6-0.7c-1.4,0.2-2.2,0.7-3.6,0.5c-0.4-0.1,0.2-0.3,0.3-0.4
		c-0.7,0.1-1.4,0.1-2.1,0.1c-0.7,0-1.4,0.1-2,0.3c0-0.1,0.1-0.1,0.2-0.2c-0.2,0-0.5-0.1-0.5,0.2l0.2-0.1c0.4,0.4-0.9,1-0.9,1.2
		c0.4-0.9-1.2-0.2-0.6-1.3c-0.2,0.1-0.3,0.2-0.3,0.4c-0.2-0.1-0.3-0.2-0.1-0.4c-0.8,0.2-0.5,0.5-1.3,0.5c0-0.2,0.2-0.2,0.2-0.4
		c-0.4,0.3-0.8,0.6-1.4,0.4c0-0.1,0-0.2,0.2-0.2c-1.1,0-2,0.6-3.2,0.2c0.5-0.6-0.4-0.3-0.3-0.8l-0.7,0.1l0.2,0.3
		c-0.6-0.1-1.1,0.2-1.6-0.1c0.2,0,0.3-0.1,0.5-0.1c-0.4,0-0.7-0.1-1.1-0.2l0.5,0.4c-0.6,0.1-0.1,0.7-0.8,0.3c0.2,0-0.6-0.2-0.8-0.6
		l0,0c-0.3,0.1-0.7,0.2-1-0.1c0-0.2,0.3-0.6,0.3-0.7c-0.4,0.3-1.3-0.4-1.8-0.1c0.2-0.1,0.3-0.3,0.3-0.4L34,91.5
		c-0.2-0.2-0.2-0.3-0.1-0.5c-0.7-0.4-0.1,0.8-0.8,0.1c0.1,0,0.1-0.1,0.2,0c-0.8-0.6-1.7-0.7-2.4-1.4c0.1-0.6,0.8,0.3,0.8-0.2
		c-1.2-0.7-2.7-0.9-3.6-1.7l0.1,0.2c-0.6,0.6-0.5-0.8-1.2-0.9c0.1,0.1,0.4-0.2,0.3-0.2c-0.3-0.3-0.6-0.5-1-0.8
		c-0.4-0.2-0.8-0.5-1-0.9c0,0,0-0.1,0-0.1l0.1,0.1l0.1,0c0,0,0,0,0,0c0-0.5-0.3-1.2-0.3-1.7c-0.2-0.1-0.3-0.4-0.5-0.2
		c0.2-0.5,0.2-0.9,0.1-1.3c0-0.4-0.2-0.8-0.3-1.1c-0.3-0.8-0.5-1.5-0.2-2.3c0,0.2,0.2,0.4,0.2,0.3c-0.1-0.4-0.2-0.8-0.3-1.2
		c-0.3,0.1-0.2,0.2-0.5,0.5c-0.2-0.2-0.4-0.5-0.4-0.8c0.3,0.6,0.6,0,0.7-0.3c-0.1,0.1-0.2,0-0.3,0c0.6-0.7-0.7-0.1-0.3-1l0.2,0
		c-0.1-0.3-0.4-0.7-0.3-1c0.4-0.2,0.2,0.4,0.5,0.4c0-0.5-0.8-1-0.4-1.5c0.1,0.2,0.1,0.5,0.2,0.8c0.5-0.5,0.4-0.6,0.4-0.9l0,0
		l0.2-0.9l-0.1,0.2c-1-0.7-0.2-1.3-0.8-2.2c0.6,0.9,0.4,0.2,0.8,0.2c0.1-0.2,0.3-0.6,0.4-0.5c-0.4-0.4,0.3-0.7-0.2-1.3
		c0.1,0,0-0.4,0.4-0.3c-0.1-0.5-0.3,0.1-0.4,0.1c-0.5-0.8,0.7-1.9,0-3.2c-0.2-1-0.7-1.2-1-2.2c0.2-0.3,0.5,0.3,0.5,0.3
		c0.2-0.5,0.2-0.9,0-1.4c0.1,0.1,0.2,0,0.4-0.2c0-0.4-0.5-0.3-0.3-0.8c0.2,0.1,0.4,0.2,0.6,0.4c-0.1-0.5-0.4-0.9-0.6-1.4
		c0.2-0.1,0.4,0.3,0.6,0.5c-0.1-0.5-0.3-1.4-0.7-1.6l-0.1,0.4c0-0.2,0.3-0.1,0.4,0c0.3,0.5-0.1,0.7-0.3,0.7l-0.1-0.3
		c-0.9,0.4,0.2,1.4,0.1,2.1l-0.6-0.3l0.5,0.7c-0.2,0.2-0.5,0.2-0.6-0.1C23,63,23.5,63,23.2,63.4c0,0-0.1,0-0.1,0l0.2,0.5
		c-0.1-0.1-0.4,0.1-0.4-0.2c-0.4,0.9,0.4,1.4,0,1.7l0-0.1c0.2,1.2,0.5,0.1,1,1.1l-1.1,0.6l0.5,0.1c0,0.1-0.1,0.4-0.2,0.3
		c0.3,0.5,0.2-0.1,0.5,0.2c-0.4,0.6,0.1,1.7-0.6,1.8c0.3,0.2,0.3-0.6,0.5,0.1c-0.8,0.2,0.1,0.7-0.3,1.3c-0.4-0.2-0.2-0.7-0.5-0.2
		c0.7,0.3-0.2,1.1,0,1.5c0.5,0,0.2,1,0.4,1.8c-0.2-0.1-0.3,1.5-0.5,2.2l-0.1,0c0.5,0.1,0.5,0.9,0.6,1.4c-0.3,0-0.5-0.1-0.6-0.4
		l0,0.5c0.2,0.1,0.3,0.3,0.4,0.6l-0.4-0.1c0,0.7,0.6,1.3,0.4,2.3c0.4,0,1-0.8,1.4,0.1c-0.2,0.1-0.5,0.1-0.7-0.1
		c0,0.1,0.2,0.3,0.1,0.4l-0.4-0.3c-0.1,0.4,0.3,0.2,0.3,0.5c-0.3,0-0.2,0.3-0.4,0.2c0-0.1,0.1-0.3,0-0.4c0,0.4-0.1,0.8-0.3,1
		c0.2-0.1,0.4-0.1,0.5,0.2c0.1,0.7-0.3,0.3-0.4,0.7c0.2,0.1,0.1,0.6,0.6,0.5c0,0.2-0.1,0.3-0.2,0.4c0.2,0.3,0.5,1.6,0.8,1.1v-0.1
		c0,0,0,0,0,0.1c0.2,0.2,0.3,0.5,0.4,0.8c0.4,1,0.9,1.9,1.7,2.4L25.9,88c0.6,0.3,1.3,0.9,1.9,0.9c0.2,0.1,0.2,0.5,0.1,0.6
		c0.5,0.2,0.6,0.1,1.1,0.7c-0.6-0.1,0,0.3-0.6-0.1c0.5,0.5,0.5,0.8,1.3,0.8c-0.4,0.2,0.2,0.7,0.5,0.7l-0.2-0.5
		c0.3,0.1,0.6,0.3,0.8,0.6L30.5,92c0.5,0.7,1.2,0.8,1.8,0.9c0.7,0.1,1.2,0.2,1.5,0.9c0.5-0.2-0.6-0.5-0.2-0.8c0.6,0.3,1,1.3,1.2,1.3
		c0.8,0.6,1-0.4,1.9,0.1c-0.1-0.2,0-0.7,0.7-0.7c0.6,0.2,0.6,0.9,0.2,1c-0.2,0-0.2-0.1-0.2-0.2c-0.2,0-0.5,0-0.3,0.3l0.1-0.2
		c0.3,0.3,1.2,0.5,0.9,0.7c0.5-0.1,0.3-0.2-0.1-0.4c0.8,0.4,1.3,0.3,2.1,0.6c-0.1-0.1-0.2-0.3-0.1-0.3c1.2,0.4,0.6-0.2,1.5-0.2
		c0.5,0.3-0.2,0.6,0.6,0.5c0.5,0.2,0.1,0.5-0.2,0.6c0.8-0.2,1.5,0.3,2,0.4l-0.4,0.1c0.3-0.1,0.5-0.1,0.7-0.1L44,96.2
		c0.2,0.1,0.5,0.1,0.5,0.2c0.3-0.2-0.2-0.6,0.3-0.9c0.3,0.2,1-0.2,1.1,0.3c-1-0.2,0.1,0.5-0.8,0.6c0.2-0.1,0.4-0.1,0.6,0
		c0,0.1,0,0.1-0.1,0.1c1,0.4,0.5-0.5,1.5-0.6c-0.1,0.3,0.3,0.5,0.4,0.4c-0.4,0-0.2-0.4,0.1-0.7c0.7,0.2,0.7-0.2,1-0.2
		c-0.1,0-0.2-0.1-0.4-0.1c0.1-0.3,0.4-0.3,0.8-0.4c0,0.2-0.4,0.2-0.2,0.2c0.4-0.5,1.1,0.4,1.7,0.1c0.3,0.2,0,0.5,0.3,0.6
		c0.8-0.3,0.8,0.4,1.6,0.2c-0.2-0.4-0.2-0.3,0.3-0.6c-0.4,0.1-0.9,0.1-1.3,0.2c0.3-0.2,0.6-0.3,0.8-0.5c-0.4,0-0.8,0.2-1.1,0.1
		c0.4-0.3,0.4-0.2,0.2-0.5c0.5,0.6,1.1-0.3,1.7,0.1L53.1,96c0.9,0.4,1.7-0.3,2.9-0.1l-0.4-0.2c0.2-0.3,0.8,0,1.2-0.1
		c0,0.3,0.2,0.4,0.4,0.6c0-0.2,0.9,0,1-0.6l0.6,0.4c1,0.1,1.2-0.9,2.1-0.8c-0.3,0.3,0.2,0.5-0.5,0.8c0.3,0,0.6,0,0.6-0.2
		c0.2,0.2,0.9-0.5,1.2-0.3c0.1-0.2,0.1-0.5,0.5-0.5c0,0.1,0,0.1,0,0.1c0-0.2,0.5-0.3,0.2-0.6c0.6,0.4,1.3,0.2,1.9,0
		c0.7-0.2,1.3-0.5,1.8-0.2c0.7-0.4,1.4-0.8,2-1.1c0,0.1,0.1,0.1-0.1,0.2c0.9-0.2,0.1-1,1.2-1.2c0.7,0.1-0.3,0.5,0,0.5
		c0.3,0.4,0.6,0.2,0.8-0.1c0.1-0.1,0.3-0.3,0.5-0.4c0.2-0.1,0.4-0.2,0.7-0.3l-0.2,0.2c0.2-0.1,0.4-0.2,0.6-0.4
		c0.2-0.2,0.2-0.4,0.3-0.6c0.2-0.4,0.2-0.8,0.5-1.2c0,0,0.1,0.1,0.1,0.1c-0.1-0.8,0.3-1.8,0.6-2.6c0.2,0.4,0,0.4,0.4,0.5
		c0.1-0.3-0.6-0.2-0.3-0.9c0.3-0.1,0.7-0.5,1.1-0.3l-0.3,0.6c0.6-0.1,0.4-0.8,0.7-1.1l0.2,0.2c0.4-1-0.1-1.2,0.5-2.2l-0.2,0
		c-0.2-0.8,0.5-0.3,0.4-1l0.6,0.1c0.1-0.4,0.1-1.5,0.3-2.2c0.2,0.6,0,1.4,0,2c0.2-0.3,0.6-1.2,0.4-1.6c0,0.2,0,0.4-0.1,0.5
		c-0.2-0.7-0.1-1.3,0.2-2c1,0.6,1.2-1.7,2.2-1.8c0.1-0.7,0.5-1.3,0.9-1.9c0.2-0.3,0.4-0.6,0.6-0.9c0.2-0.4,0.4-0.8,0.6-1.3
		c-1.1,0.3,0.2-0.5-0.8-0.7c0.1-0.4,0.1-0.6,0.2-0.6l-0.1,0.1c0,0,0-0.1,0.1-0.1l0,0c0.3-0.4,0.5-0.7,0.8-1.1
		c0.3-0.3,0.1,0.4,0.3,0.4c0.2-0.9,0.4-0.3,0.8-0.9C83,71.2,82.9,70.8,83.1,70.3z M65,60.9C65,60.8,65,60.8,65,60.9
		c0,0,0,0.1-0.1,0.2c-0.2,0.1-0.3,0-0.3-0.1C64.7,60.9,64.8,60.9,65,60.9z M63.4,58.1c0.1,0,0.2,0,0.3,0
		C63.6,58.1,63.5,58.1,63.4,58.1L63.4,58.1z M62.7,58c0,0.2-0.1,0.3-0.2,0.2c0.1-0.1-0.2-0.2-0.3-0.4C62.4,57.9,62.6,58,62.7,58z"/>
	<path class="st0" d="M67.4,90.6C67.4,90.6,67.4,90.6,67.4,90.6C67.4,90.6,67.4,90.6,67.4,90.6z"/>
	<path class="st0" d="M65.3,60.5C65.3,60.5,65.3,60.4,65.3,60.5c0-0.1,0-0.1-0.1-0.1c0,0-0.1,0.1-0.1,0.1
		C65.2,60.5,65.2,60.5,65.3,60.5z"/>
	<path class="st0" d="M23.9,84.7C23.9,84.7,23.9,84.7,23.9,84.7C23.9,84.7,23.9,84.7,23.9,84.7L23.9,84.7z"/>
	<polygon class="st0" points="67.4,49.9 67.4,49.8 67.2,49.8 	"/>
	<path class="st0" d="M24.2,76.8c0,0,0.1-0.1,0.1-0.1C24.3,76.8,24.2,76.8,24.2,76.8z"/>
	<path class="st0" d="M24.2,73.5l0.1-0.5C24.3,73.3,24.2,73.4,24.2,73.5z"/>
	<path class="st0" d="M24.5,71c-0.1,0-0.1,0-0.2-0.1l0,0L24.5,71z"/>
	<path class="st0" d="M48.3,92.7c0,0,0.1,0,0.1,0C48.7,92.6,48.5,92.6,48.3,92.7z"/>
	<path class="st0" d="M36.6,92.5c0.1,0,0.3-0.1,0.4-0.1C36.8,92.3,36.7,92.2,36.6,92.5z"/>
	<polygon class="st0" points="61.8,92.2 61.8,92.2 61.8,92.2 	"/>
	<path class="st0" d="M37,92.4c0.2,0.1,0.3,0.2,0.5,0.2C37.4,92.4,37.2,92.4,37,92.4z"/>
	<path class="st0" d="M24.8,59.8l0-0.1c0,0,0,0-0.1,0L24.8,59.8z"/>
	<path class="st0" d="M24.8,59.6l-0.1-0.1C24.7,59.6,24.7,59.6,24.8,59.6z"/>
	<path class="st0" d="M24.7,59.5c0-0.1,0-0.2-0.1-0.3L24.7,59.5z"/>
	<path class="st0" d="M24.7,64.3c0-0.2,0.3-0.6,0.2-1l-0.1,0C25,63.5,24.4,64,24.7,64.3z"/>
	<path class="st0" d="M22.8,67.7c-0.2,0.2-0.4,0.3-0.4-0.1c-0.5,1.1,0.4-0.2,0.3,0.9L22.8,67.7z"/>
	<path class="st0" d="M22.4,71.2c-0.1-0.5-0.2,0-0.3,0C22.2,71.5,22.2,71.6,22.4,71.2z"/>
	<path class="st0" d="M27.7,90c0.3,0.2,0.1-0.1,0.2-0.3L27.7,90z"/>
	<polygon class="st0" points="31.7,89.8 32.2,90 32,89.6 	"/>
	<polygon class="st0" points="32.6,93.4 33.3,93.6 32.8,93.5 	"/>
	<path class="st0" d="M66.2,95l-0.2-0.4C65.7,94.8,65.8,95.3,66.2,95z"/>
	<path class="st0" d="M76.2,84.5c0.3,0,0.6-0.3,0.5-0.6C76.6,84.1,76.3,84.3,76.2,84.5z"/>
</g>
</svg>
