<?xml version="1.0" encoding="utf-8"?>
<!-- Generator: Adobe Illustrator 25.4.1, SVG Export Plug-In . SVG Version: 6.00 Build 0)  -->
<svg version="1.1" id="Ebene_1" xmlns="http://www.w3.org/2000/svg" xmlns:xlink="http://www.w3.org/1999/xlink" x="0px" y="0px"
	 viewBox="0 0 100 100" style="enable-background:new 0 0 100 100;" xml:space="preserve">
<style type="text/css">
	.st0{fill:#1D1F30;}
</style>
<g>
	<path class="st0" d="M26.2,58.6C26.2,58.7,26.1,58.7,26.2,58.6C26.2,58.7,26.2,58.7,26.2,58.6z"/>
	<path class="st0" d="M25.6,58.1C25.6,58.1,25.6,58.1,25.6,58.1C25.6,58.1,25.6,58.1,25.6,58.1z"/>
	<path class="st0" d="M30.2,59L30,58.9C30,59,30.1,59,30.2,59z"/>
	<path class="st0" d="M31.4,58L31.4,58c0-0.1-0.1-0.1-0.1-0.2L31.4,58z"/>
	<path class="st0" d="M30.3,31.8c0,0.1,0,0.2,0,0.4C30.3,31.9,30.5,31.8,30.3,31.8z"/>
	<path class="st0" d="M20,54.4l-0.2,0.2c0.1,0,0.2-0.1,0.3-0.2C20.1,54.4,20.1,54.4,20,54.4z"/>
	<polygon class="st0" points="22.3,38 22.3,38 22.4,38 	"/>
	<path class="st0" d="M22.2,59.6C22.1,59.6,22.2,59.6,22.2,59.6C22.3,59.6,22.2,59.6,22.2,59.6z"/>
	<path class="st0" d="M26.3,60.4c0,0.1-0.1,0.1-0.1,0.2C26.3,60.6,26.3,60.6,26.3,60.4z"/>
	<polygon class="st0" points="20,55.6 20,55.6 20,55.6 	"/>
	<path class="st0" d="M26,60.5c0,0.1,0.1,0.1,0.2,0C26.2,60.5,26.1,60.5,26,60.5z"/>
	<path class="st0" d="M32.2,56.7l0.1-0.2c-0.2,0-0.4,0.1-0.4,0C31.5,56.7,32.3,56.4,32.2,56.7z"/>
	<path class="st0" d="M32,57.3c-0.1-0.1-0.2,0-0.3-0.1C31.8,57.3,31.8,57.3,32,57.3z"/>
	<path class="st0" d="M28.8,58.5c-0.1,0.1,0,0.2,0,0.4V58.5z"/>
	<polygon class="st0" points="27.8,61.1 27.9,60.8 27.7,60.9 	"/>
	<polygon class="st0" points="27.5,58.1 27.3,58.2 27.4,58.1 	"/>
	<path class="st0" d="M23.1,54.2c0.1,0.1,0.6,0,0.5,0L23.1,54.2z"/>
	<path class="st0" d="M23.2,50.6c0.2,0,0.4-0.1,0.2-0.2C23.3,50.5,23.1,50.6,23.2,50.6z"/>
	<polygon class="st0" points="25.8,39.8 25.9,39.9 25.8,39.7 	"/>
	<path class="st0" d="M44.3,52.9C44.2,52.9,44.2,53,44.3,52.9C44.2,53,44.2,53,44.3,52.9z"/>
	<path class="st0" d="M43.1,54.9C43.1,54.8,43.1,54.9,43.1,54.9L43.1,54.9z"/>
	<path class="st0" d="M41.1,58.9C41.1,58.9,41,58.8,41.1,58.9C41,58.9,41,59,41.1,58.9C41,58.9,41,58.9,41.1,58.9z"/>
	<path class="st0" d="M39.7,59.2L39.7,59.2C39.7,59.2,39.7,59.2,39.7,59.2L39.7,59.2z"/>
	<path class="st0" d="M39.3,29.2c0,0.1,0.1,0.2,0.1,0.4C39.3,29.3,39.6,29.2,39.3,29.2z"/>
	<path class="st0" d="M41.9,62.1c-0.1,0-0.3,0-0.4,0C41.7,62.2,41.8,62.2,41.9,62.1z"/>
	<path class="st0" d="M40.2,62.1c0,0,0,0.1,0,0.1l0.3,0.2C40.3,62.3,40.2,62.2,40.2,62.1z"/>
	<polygon class="st0" points="32.3,40.1 32.3,40.2 32.4,40.2 	"/>
	<polygon class="st0" points="42,62.1 42,62.1 41.9,62.1 	"/>
	<polygon class="st0" points="44.7,50.4 44.7,50.3 44.8,50.5 	"/>
	<path class="st0" d="M39.9,58.8l0,0.5C40,59.1,40,58.6,39.9,58.8z"/>
	<path class="st0" d="M36.3,57.3c0.2-0.2,0.2-0.4,0-0.3C36.3,57.1,36.2,57.3,36.3,57.3z"/>
	<polygon class="st0" points="36,41.8 36.2,42 36.1,41.7 	"/>
	<path class="st0" d="M48.1,56.9C48.1,56.9,48.2,56.8,48.1,56.9C48.1,56.9,48.1,56.9,48.1,56.9z"/>
	<path class="st0" d="M49.8,60.1l0-0.2C49.7,60.1,49.8,60.1,49.8,60.1z"/>
	<path class="st0" d="M56.1,59.9C56.1,59.9,56.1,59.9,56.1,59.9V60l0,0C56.2,60,56.2,59.9,56.1,59.9z"/>
	<path class="st0" d="M51.5,59.8l0,0.2h0C51.5,59.9,51.5,59.8,51.5,59.8z"/>
	<path class="st0" d="M52.7,59.9c0-0.1-0.1-0.2-0.1-0.3c0,0,0.1,0.4,0.1,0.6C52.7,60,52.7,60,52.7,59.9z"/>
	<path class="st0" d="M47.9,51.1C48,51.1,48,51.1,47.9,51.1C48,51.1,48,51.1,47.9,51.1C48,51.1,47.9,51.1,47.9,51.1z"/>
	<path class="st0" d="M48,49.9C48,49.9,47.9,49.9,48,49.9L48,49.9L48,49.9z"/>
	<path class="st0" d="M54.6,27.9c0,0.1,0,0.3,0,0.4C54.7,28,54.9,27.9,54.6,27.9z"/>
	<path class="st0" d="M56.1,60C56.1,60,56.1,60,56.1,60c0-0.1-0.1-0.1-0.1-0.2C56.1,59.9,56.1,60,56.1,60z"/>
	<path class="st0" d="M49.8,60.2C49.8,60.2,49.8,60.2,49.8,60.2C49.8,60.2,49.8,60.2,49.8,60.2L49.8,60.2z"/>
	<path class="st0" d="M52.8,61.8l0.2,0.1C52.9,61.8,52.9,61.8,52.8,61.8z"/>
	<polygon class="st0" points="44.6,51 44.6,51 44.6,50.9 	"/>
	<path class="st0" d="M56,60.4L56,60.4c0,0.1-0.5-0.2-0.4,0.1C55.7,60.5,56,60.6,56,60.4z"/>
	<path class="st0" d="M53.5,59.7c0.1,0,0.2,0,0.2,0c-0.1-0.1-0.3-0.3-0.2-0.4C53,59.1,53.7,59.7,53.5,59.7z"/>
	<path class="st0" d="M52.7,59.5c0,0.2,0,0.2,0.1,0.3C52.9,59.7,52.7,59.6,52.7,59.5z"/>
	<path class="st0" d="M48.8,59.2L49,59C48.9,59,48.9,59.1,48.8,59.2z"/>
	<polygon class="st0" points="46.7,60 46.6,60.2 46.9,60 	"/>
	<path class="st0" d="M48.6,57.8c-0.1,0-0.1,0-0.2,0C48.4,57.8,48.5,57.8,48.6,57.8L48.6,57.8z"/>
	<path class="st0" d="M47.9,50.1c0.1,0.1,0.6,0.1,0.5,0H47.9z"/>
	<path class="st0" d="M48.1,46.3c0.2,0,0.4-0.1,0.2-0.2C48.2,46.2,48,46.2,48.1,46.3z"/>
	<polygon class="st0" points="49.3,34.8 49.4,34.8 49.3,34.8 	"/>
	<path class="st0" d="M59.5,47.3l0.2,0C59.5,47.3,59.5,47.3,59.5,47.3z"/>
	<path class="st0" d="M59.8,41.1c0.2,0,0.7,0.1,0.9,0C60.3,41.2,60.2,41,59.8,41.1z"/>
	<path class="st0" d="M60.1,43.8C60.2,43.8,60.2,43.8,60.1,43.8C60.1,43.8,60.2,43.8,60.1,43.8C60.1,43.8,60.1,43.8,60.1,43.8z"/>
	<path class="st0" d="M60.1,43.4C60.1,43.4,60.1,43.4,60.1,43.4L60.1,43.4L60.1,43.4z"/>
	<path class="st0" d="M57.2,35.4c0.1,0,0.2,0,0.4,0C57.2,35.4,57.1,35.3,57.2,35.4z"/>
	<path class="st0" d="M57,43.4l-0.2,0c0.2,0,0.2,0,0.3,0C57,43.4,57,43.4,57,43.4z"/>
	<polygon class="st0" points="57.1,38.1 57.1,38.2 57.2,38.2 	"/>
	<path class="st0" d="M57.7,48.3c0.1,0,0.1,0,0.2,0L57.7,48.3z"/>
	<path class="st0" d="M57.2,44.9C57.1,44.9,57.2,44.9,57.2,44.9C57.2,44.9,57.2,44.9,57.2,44.9z"/>
	<path class="st0" d="M58.2,46c-0.1,0-0.2,0-0.2,0C58,46,58,46,58.2,46z"/>
	<polygon class="st0" points="56.8,43.7 56.8,43.7 56.8,43.7 	"/>
	<path class="st0" d="M58,45.9C57.9,45.9,57.9,45.9,58,45.9C58,45.9,58.1,45.9,58,45.9z"/>
	<path class="st0" d="M60.2,46.8c-0.1,0-0.2,0-0.4,0L60.2,46.8z"/>
	<polygon class="st0" points="57.8,46.4 57.5,46.5 57.9,46.5 	"/>
	<polygon class="st0" points="60.5,46.3 60.6,46.4 60.5,46.3 	"/>
	<path class="st0" d="M60,43.5c0.1,0,0.6,0,0.5,0H60z"/>
	<path class="st0" d="M60,42.2c0.2,0,0.4,0,0.2-0.1C60.2,42.2,60,42.2,60,42.2z"/>
	<path class="st0" d="M73.2,40.5C73.2,40.5,73.1,40.5,73.2,40.5C73.2,40.5,73.2,40.5,73.2,40.5z"/>
	<path class="st0" d="M72.4,43.2l0.2-0.1C72.3,43.2,72.4,43.2,72.4,43.2z"/>
	<path class="st0" d="M72.8,44.2L72.8,44.2c0.1,0,0.1,0,0.2,0L72.8,44.2z"/>
	<path class="st0" d="M72.2,45c0.2,0,0.3,0,0.3,0c0.1,0,0.2,0,0.3,0C72.9,45,72.4,45,72.2,45z"/>
	<path class="st0" d="M70.5,32.3c-0.1,0.4-0.4,0.3-0.5,0.8C70.1,32.9,70.5,32.5,70.5,32.3z"/>
	<path class="st0" d="M72.8,37.3C72.8,37.3,72.8,37.3,72.8,37.3C72.8,37.3,72.8,37.3,72.8,37.3C72.8,37.3,72.9,37.3,72.8,37.3z"/>
	<path class="st0" d="M72.6,36.6L72.6,36.6L72.6,36.6C72.7,36.6,72.6,36.6,72.6,36.6z"/>
	<path class="st0" d="M62.5,37.6c-0.1-0.1-0.2-0.2-0.3-0.3C62.4,37.6,62.4,37.7,62.5,37.6z"/>
	<path class="st0" d="M69.6,37.2l-0.2,0.1c0.2,0,0.2-0.1,0.3-0.1C69.7,37.2,69.6,37.2,69.6,37.2z"/>
	<polygon class="st0" points="65.8,35.4 65.7,35.3 65.7,35.4 	"/>
	<path class="st0" d="M70.6,44.9c0.1,0,0.1-0.1,0.2-0.1L70.6,44.9z"/>
	<path class="st0" d="M70,39.4C69.9,39.3,70,39.4,70,39.4C70,39.4,70,39.4,70,39.4z"/>
	<path class="st0" d="M71,41.1c-0.1,0-0.2,0-0.2,0C70.8,41.1,70.8,41.1,71,41.1z"/>
	<path class="st0" d="M70.8,41C70.8,41,70.8,41,70.8,41C70.8,41,70.9,41,70.8,41z"/>
	<path class="st0" d="M72.4,45.5l-0.1,0.1c0.2,0,0.4,0,0.4,0C73.2,45.5,72.3,45.7,72.4,45.5z"/>
	<path class="st0" d="M72.6,45.2c0.1,0.1,0.2,0,0.3,0C72.8,45.1,72.8,45.1,72.6,45.2z"/>
	<path class="st0" d="M72.6,42.4H73C73,42.3,72.9,42.4,72.6,42.4z"/>
	<polygon class="st0" points="73.4,41.5 73.4,41.5 73.3,41.5 	"/>
	<path class="st0" d="M73.1,36.7l-0.5,0.1C72.7,36.8,73.2,36.7,73.1,36.7z"/>
	<path class="st0" d="M71.8,34.4c0.2-0.2,0.3-0.3,0-0.2C71.9,34.3,71.7,34.5,71.8,34.4z"/>
	<polygon class="st0" points="64.9,31.5 64.9,31.7 64.9,31.7 	"/>
	<path class="st0" d="M48.4,73.1c0.1,0.1,0.4,0.2,0.4,0.1l-0.4-0.3L48.4,73.1z"/>
	<path class="st0" d="M48.6,72.2c0.4,0.3,0.2,0.3,0.6,0.7c0,0.1-0.2,0.1-0.4,0C49,73,48.7,73,49,73.1c0.4,0.1,0.5-0.1,0.3-0.4
		c0.1,0,0.2,0.1,0.3,0.2C49.4,72.7,49.1,72.4,48.6,72.2z"/>
	<path class="st0" d="M62.7,64.8c0,0,0,0.1,0,0.1C62.7,64.9,62.8,64.8,62.7,64.8z"/>
	<path class="st0" d="M65,65c-0.1,0-0.1,0-0.2,0C64.9,65,65,65,65,65z"/>
	<path class="st0" d="M56.7,66.8l0.2,0.1C56.8,66.7,56.8,66.8,56.7,66.8z"/>
	<path class="st0" d="M49.3,71.2L49.3,71.2c-0.1,0,0,0,0,0.1C49.3,71.2,49.3,71.2,49.3,71.2z"/>
	<path class="st0" d="M54.8,68.5c0,0,0.1,0.1,0.1,0.2L54.8,68.5L54.8,68.5z"/>
	<path class="st0" d="M68.4,64.7C68.4,64.7,68.4,64.7,68.4,64.7C68.4,64.7,68.4,64.7,68.4,64.7z"/>
	<path class="st0" d="M70.5,62c-0.1,0-0.2,0-0.2,0C70.3,62.1,70.4,62.1,70.5,62z"/>
	<path class="st0" d="M73.2,47.1c0.1-0.3,0.4-0.3,0.1-0.4C73.3,46.8,73.3,46.9,73.2,47.1z"/>
	<path class="st0" d="M49.3,71.1C49.3,71.1,49.3,71.1,49.3,71.1c0,0.1,0.1,0.1,0.1,0.1C49.3,71.2,49.3,71.1,49.3,71.1z"/>
	<path class="st0" d="M61.2,61.7c-0.1,0-0.2,0.1-0.2,0.1L61.2,61.7z"/>
	<path class="st0" d="M61.5,61.5l-0.6,0.2c0.4-0.1,0.7-0.2,0.9-0.3C61.7,61.4,61.6,61.5,61.5,61.5z"/>
	<polygon class="st0" points="60.1,47.4 60.1,47.3 60.1,47.3 	"/>
	<path class="st0" d="M61.8,62.5C61.7,62.4,61.6,62.4,61.8,62.5C61.8,62.5,61.8,62.5,61.8,62.5z"/>
	<path class="st0" d="M60.9,63.3c0.1,0,0.1,0,0.1,0C61,63.3,60.9,63.3,60.9,63.3C60.9,63.3,60.9,63.3,60.9,63.3c-0.1,0-0.1,0,0,0.2
		C61,63.5,60.9,63.4,60.9,63.3z"/>
	<path class="st0" d="M48.7,71.9L48.7,71.9C48.7,71.9,48.7,71.9,48.7,71.9L48.7,71.9z"/>
	<path class="st0" d="M48.7,72C48.7,72,48.8,72,48.7,72L48.7,72z"/>
	<path class="st0" d="M48.8,72.2l0-0.1C48.7,72,48.7,72.1,48.8,72.2z"/>
	<path class="st0" d="M49.8,70.5c-0.1,0.1-0.4,0-0.4,0.2l0.1,0.1C49.3,70.6,50,70.7,49.8,70.5z"/>
	<path class="st0" d="M52.3,70.4L52,70.6c0.2,0.1,0.4,0.2,0.3,0.3C52.9,70.9,52,70.7,52.3,70.4z"/>
	<path class="st0" d="M53.1,69.9c-0.1,0.2,0.2,0.2,0.2,0.2C53.3,70,53.3,69.9,53.1,69.9z"/>
	<path class="st0" d="M58.8,66.4c0.1-0.1-0.1-0.1-0.1-0.4L58.8,66.4z"/>
	<polygon class="st0" points="59.1,63.7 58.9,63.5 59,63.9 	"/>
	<polygon class="st0" points="60.7,66.1 60.9,65.9 60.8,66 	"/>
	<path class="st0" d="M69,59.2c0.2,0,0.8-0.2,0.5-0.2L69,59.2z"/>
	<path class="st0" d="M63.5,58.4c0.1,0,0.1,0.2,0.2,0.2C63.9,58.3,63.8,58.1,63.5,58.4z"/>
	<polygon class="st0" points="61.2,51.4 61.2,51.2 61.1,51.2 	"/>
	<path class="st0" d="M27.4,84c0-0.1-0.1-0.1-0.2,0C27.4,84,27.4,84.1,27.4,84z"/>
	<path class="st0" d="M23.1,75.1c0.2,0,0.1-0.2,0.1-0.3L23.1,75.1z"/>
	<path class="st0" d="M21.8,70.4c-0.1,0-0.1,0-0.2,0L21.8,70.4L21.8,70.4z"/>
	<path class="st0" d="M21.8,67c-0.1,0-0.2,0-0.3,0c0,0.1,0.4,0.1,0.6,0.1C21.9,67.1,21.8,67.1,21.8,67z"/>
	<polygon class="st0" points="78.6,53.3 78.3,53.3 78.4,53.3 	"/>
	<path class="st0" d="M29.8,88.6C29.8,88.6,29.8,88.6,29.8,88.6C29.7,88.5,29.7,88.6,29.8,88.6z"/>
	<path class="st0" d="M35.4,93.2c0,0,0,0.1-0.1,0.2C35.4,93.3,35.4,93.3,35.4,93.2z"/>
	<path class="st0" d="M77.3,65.8c0.1-0.1,0.2-0.1,0.4-0.1C77.4,65.8,77.3,65.4,77.3,65.8z"/>
	<path class="st0" d="M24.3,61.2C24.3,61.2,24.3,61.2,24.3,61.2c-0.1-0.1-0.1-0.1-0.2-0.1C24.2,61.2,24.3,61.2,24.3,61.2z"/>
	<path class="st0" d="M41.2,92.8C41.3,92.8,41.3,92.8,41.2,92.8c0-0.2,0-0.3-0.1-0.3C41.1,92.6,41.2,92.7,41.2,92.8z"/>
	<path class="st0" d="M32.1,89.4C32.1,89.4,32.2,89.4,32.1,89.4C32.2,89.4,32.1,89.4,32.1,89.4z"/>
	<path class="st0" d="M32,89.4c0.1,0,0.1,0,0.2,0C32.1,89.4,32,89.3,32,89.4z"/>
	<path class="st0" d="M62.6,33.8C62.6,33.8,62.6,33.7,62.6,33.8C62.6,33.7,62.6,33.7,62.6,33.8z"/>
	<path class="st0" d="M59.8,44.9C59.8,44.9,59.8,44.9,59.8,44.9C59.8,44.9,59.8,44.9,59.8,44.9z"/>
	<path class="st0" d="M47.5,54.7C47.5,54.7,47.5,54.7,47.5,54.7C47.5,54.7,47.5,54.7,47.5,54.7z"/>
	<path class="st0" d="M57.4,49.2L57.4,49.2C57.4,49.2,57.4,49.2,57.4,49.2C57.4,49.2,57.4,49.2,57.4,49.2z"/>
	<path class="st0" d="M72.6,39.3c-0.1,0-0.1,0-0.1,0C72.6,39.3,72.6,39.3,72.6,39.3z"/>
	<path class="st0" d="M47.6,54.7c-0.1,0-0.1,0-0.1-0.1C47.5,54.7,47.5,54.7,47.6,54.7z"/>
	<path class="st0" d="M80.5,71.8c-0.4,0-0.3-0.3-0.7-0.1c0,0,0,0,0,0.2c0,0,0,0.1,0,0.1l0,0c0,0.1,0,0.3,0,0.5
		c-0.2-0.2-0.3-0.4-0.1-0.6l0.1,0.1l0-0.1c0,0,0,0,0-0.1c0,0-0.1,0-0.1,0.1c0,0,0,0,0,0c-0.2-0.1-0.5-0.3-0.6-0.4
		c0.6-0.2,1-0.7,1.4-0.7c-0.2-0.7,0-1.5-0.7-2c-0.1-0.2,0.2-0.2,0.4-0.2c0.1,0.1,0.1,0.2,0.2,0.3c-0.2-0.4,0-1.1-0.5-1.2
		c0.3-0.4,0.5,0.3,0.4-0.3l0.2,0.1c1-1.2-1.3-2-0.2-3.4c-0.1,0.1-0.1,0.1-0.2,0.2c0.5-1.6-0.6-3.1,0-4.7c0.1-0.4-0.2-0.5-0.5-0.7
		l0.4-0.1l-0.6-0.4c-0.4-0.6,1-1.2,0.2-1.9l-0.3,0.1c0-0.3-0.3-0.9,0.1-0.9c-0.1,0-0.3-0.1-0.2-0.2l0.2,0l-0.5-0.7
		c0.1-0.6,0.9,0,0.9-0.8c-0.1-0.3-0.8-0.8-0.9-0.6c0,0.1-0.1,0.3-0.4,0.4l-0.1-0.3c-0.1,0-0.2,0-0.2,0c0.6-0.4,1.2-0.7,1.4-1.3
		L79,52l0.2-0.3l0.2,0.2c0.2-0.3-0.1-0.2-0.3-0.2c0.1-0.1,0.2-0.2,0.2-0.3l-0.7,0.2c0.2-0.2,0.5-0.2,0.5-0.5
		c-0.3,0.1-0.4,0.5-0.7,0.5c0.2-0.3,0.4-0.5,0.1-0.4c0.1-0.1,0.2-0.2,0.3-0.2c-0.3,0-0.3-0.2-0.7-0.1c0.2-0.4-0.4-0.3,0.1-0.7
		c-0.1,0.1-0.6,0.2-0.7,0.1c0.8-0.4-0.3-0.4,0.3-1c-0.6,0.4-0.7-0.3-1.2-0.2c0,0,0.2-0.1,0.1,0c-0.1-0.2,0-0.4,0-0.5
		c-0.4,0.4-0.7,0.3-1.1,0.5c0.2-0.6,0.5-0.4,0.8-0.9c-0.3,0.4-0.6,0.1-0.8,0.5c0.1-0.4,0-0.2,0.2-0.7c-0.5,0.6-0.2,0-0.6,0.3
		c0-0.5,0.4-0.6,0-0.6c0-0.3,0.4-0.3,0.4-0.3c-0.3-0.2-0.4,0.4-0.7,0.6c-0.4-0.1,0.1-0.4,0.1-0.7c-0.3,0-0.7,0.3-0.8,0.2
		c0-0.1,0-0.1,0.1-0.2c-0.4,0.2-0.7-0.3-1.2,0c0,0,0-0.1,0-0.1c-0.1,0.3-0.2,0.5-0.3,0.7c-0.1,0-0.3,0.2-0.3-0.1
		c0.1,0,0.1-0.1,0.2-0.2l-0.2,0.1c0.1-0.5,0.2-0.1,0.4-0.5c-0.3,0-0.8,0.3-0.9,0.1c0.1-0.5,0.6,0,0.4-0.5c0.1,0.1,0.2,0.2,0.3,0.3
		c0-0.9,0.2,0.1,0.3-0.8c-0.3-0.2-0.5-0.1-0.8-0.1c-0.1-0.1-0.4-0.1-0.1-0.2l0,0c-0.2-0.2-0.5,0-1-0.2l1.1-0.1l-0.5,0c0,0,0,0,0.2,0
		c-0.3-0.1-0.2,0-0.5,0c0.4-0.1-0.2-0.2,0.5-0.2c-0.3,0-0.3,0.1-0.5,0c0.8,0-0.1-0.1,0.2-0.2c0.4,0,0.2,0.1,0.5,0
		c-0.7-0.1,0.2-0.2,0-0.2c-0.5,0-0.2-0.1-0.4-0.3c0.2,0,0.3-0.2,0.5-0.3h0.1c-0.5,0-0.5-0.1-0.6-0.2c0.3,0,0.5,0,0.6,0.1v-0.1
		c-0.2,0-0.3,0-0.3-0.1l0.4,0c0-0.1-0.5-0.2-0.2-0.3c-0.4,0-1.1,0.1-1.3,0c0.2,0,0.6,0,0.6,0c0,0-0.2,0-0.1-0.1l0.3,0
		c0.2-0.1-0.3,0-0.3-0.1c0.3,0,0.2,0,0.5,0c0,0-0.1,0,0,0.1c0,0,0.2-0.1,0.5-0.1c-0.2,0-0.4,0-0.4,0c0-0.1,0.4,0,0.5-0.1
		c-0.2,0,0-0.1-0.4-0.1c0,0,0.2,0,0.3,0c-0.2,0-0.1-0.2-0.5-0.2l0,0c0,0,0,0,0,0c-0.4-0.2,0.2-0.3,0.1-0.5h0.1
		c-0.2-0.1-0.1-0.2-0.4-0.3c0,0,0.3-0.1,0.5-0.1c-0.1-0.1-0.3-0.1,0-0.2c0.3,0.1,0.2,0,0.2,0.1c0.1-0.1,0.4-0.1,0-0.2
		c0.4,0,0.5-0.1,0.4-0.1L72.7,42c-0.1,0,0-0.1,0-0.1l0.5,0c0.6-0.2-1-0.4,0-0.5c-0.4,0-0.2,0.1-0.7,0.1c0.1-0.1,0.8-0.2,0.8-0.2
		c0.3-0.1-0.7-0.1-0.5-0.2c-0.2,0-0.6,0-0.8,0c0.1-0.1,0.8-0.1,0.9-0.1c0,0,0,0-0.1,0c0.1,0,0.1,0.1,0.3,0l-0.2,0
		c0.2,0,0.2-0.2,0.5-0.1c-0.2-0.1-0.3,0-0.4,0c0.3-0.1,0-0.2,0.2-0.3c-0.1,0-0.3,0-0.3,0c0.2-0.2-0.3-0.1-0.4-0.2
		c0.3-0.1,0.7,0,0.4-0.1c0.2-0.1,0.5,0,0.6,0c-0.3-0.1,0.2-0.2,0.3-0.3l0.1,0.1c-0.1,0-0.1-0.1-0.1-0.1l-0.4,0
		c0.1,0,0.1-0.1,0.2-0.1c-0.2,0-0.6,0-0.9,0c0.2,0-0.2-0.1,0.3-0.2c-0.2,0.1,0.5,0,0.6,0.1c-0.1,0-0.1,0,0-0.1c0.1,0,0.1,0,0.1,0
		c0.4-0.1-0.5,0-0.5-0.2c0.3,0,0.5,0,0.5-0.1c0,0.1-0.4,0-0.7,0c0.2-0.1-0.2-0.1-0.1-0.1l-0.1,0.1c-0.3,0-0.2-0.1-0.3-0.1
		c0.1,0,0.1,0,0.1,0c-0.1-0.1,0.6-0.2,0.3-0.2c0.2,0,0.5,0,0.6-0.1c-0.4-0.1,0.4-0.1,0.1-0.2c-0.4,0-0.3,0-0.6,0l0.2,0.2l-0.5-0.1
		c0,0.1,0.2,0.1,0.2,0.2c-0.3,0-0.2,0-0.5,0c0.5-0.1-0.3-0.1,0-0.2l0.9,0c0.4-0.2-0.5-0.2-0.2-0.4l-0.2,0.1c-0.3,0,0-0.1-0.2-0.2
		c0.3,0,0.4,0,0.6-0.1c-0.2,0,0-0.1-0.6-0.1l0.4-0.1c0.2-0.2-0.8-0.1-0.8-0.3c0.3,0,0.5-0.1,0.8,0c0,0,0-0.1-0.2-0.1
		c0.2-0.1-0.4-0.1-0.1-0.2c-0.1,0-0.4,0-0.4,0c0.1,0,0.2,0,0.2,0c-0.2,0-0.2-0.1-0.5,0c0.9-0.3-0.1-0.4,0.6-0.7
		c-0.1-0.1-0.2-0.2-0.3-0.3c0.1,0,0.1,0,0.1,0c0.2-0.2-0.9,0.1-0.6-0.1c0.4-0.2,0.3,0,0.4-0.1c0.9-0.3-0.2-0.2,0.3-0.4l0.1,0
		c0.3-0.2-0.4-0.1-0.4-0.3c0,0,0.1,0,0.1,0c-0.5,0.1-0.7,0-0.9-0.1c0.4-0.1,0.2,0,0.5-0.2c-0.1,0-0.6,0.3-0.7,0.2
		c0.2-0.1,0.3-0.3,0.7-0.5l0.1,0.1c0.5-0.3-0.1-0.1,0-0.2l0.2-0.1c-0.2-0.1-0.7,0.1-0.7,0l-0.1,0.1c-0.5,0.2,0.2-0.2-0.2-0.1
		l0.5-0.4c-0.2,0-0.6,0.1-0.8,0.1c0.4-0.2,0.7-0.2,0.9-0.3c0-0.1-0.2-0.2-0.5,0c0.1,0,0.2-0.1,0.2,0c-0.4,0.2-0.7,0.3-0.8,0.2
		c0.9-0.8,0-0.4,0.5-1.2c-0.5,0.1-0.3-0.5-0.7-0.6c-0.4,0.8-0.1,0-0.6,0.8c-0.1,0-0.1,0-0.1-0.1v0c0-0.2,0.1-0.4,0.1-0.6
		c0.1-0.3,0.2-0.2,0.2-0.3c-0.1-0.1,0.1-0.4,0.1-0.7c-0.1,0.3-0.3,0.4-0.3,0.2l-0.1,0.4c-0.4,0.3,0.1-0.8-0.3-0.4l0.2-0.2
		c-0.2,0.1-0.5-0.2-0.8,0.5c0-0.1,0.1-0.3,0.1-0.4c-0.3-0.2-0.8,0.6-0.9,0.1l0.1-0.2c-0.1,0.1-0.2,0.4-0.2,0.2c0-0.1,0-0.2,0-0.2
		c0,0.1-0.2,0.4-0.2,0.2l0.1-0.2c-0.2-0.3-0.5,0.6-0.7,0.7c0-0.7-0.2-0.9-0.3-1v-0.1c-0.3-0.1-0.5,0.6-0.8,0.8
		c-0.2-0.7-0.6-0.2-1-0.5c0.1,0.1,0.1,0.5,0.1,0.6c-0.1-0.1-0.1,0.5-0.2-0.1l0,0c-0.2-0.6-0.3-0.4-0.4-0.4l0.2,0.8
		c-0.3-0.5-0.4-0.4-0.5-0.2c-0.1,0.2-0.2,0.4-0.5-0.1c0,0.2-0.1,0.2,0,0.5L64,32c-0.2,0-0.3,0-0.5,0.2l-0.1-0.3
		c-0.1,0,0.5,1.1,0.4,1.2l-0.3-0.5c-0.2,0.1-0.7-0.2-0.5,0.3c0-0.1-0.1-0.2-0.1-0.3c-0.1,0-0.5-0.2,0,0.5c-0.3-0.5-0.2,0.1-0.1,0.3
		l-0.2-0.4c0.2,0.5,0.3,0.6,0.3,0.8c0,0-0.1-0.1-0.1-0.2c-0.1,0,0.2,0.3,0,0.2l-0.1-0.2c-0.1,0,0,0.1,0.1,0.4c0,0.2-0.2,0-0.4-0.3
		c0.1,0.2,0.3,0.5,0.2,0.4c-0.1-0.1-0.1-0.2-0.2-0.2c-0.3-0.1,0.1,0.5-0.2,0.3c-0.1-0.1-0.1-0.2-0.2-0.2c0.1-0.1,0.2-0.1,0.2-0.1
		c-0.2-0.3-0.4-0.3-0.6-0.8c0.1,0.3,0.4,0.9,0.2,0.8c0,0-0.1,0-0.1-0.1l0,0c0,0,0,0,0,0.1c-0.1,0-0.1,0-0.1,0
		c-0.2-0.2-0.2-0.1-0.2,0c0.3,0.3,0.2,0.3,0.5,0.5c0,0,0,0,0,0c0,0,0,0,0.1,0.1l-0.1-0.1l0,0c0,0,0,0,0,0l0,0c0,0,0-0.1,0.1-0.1
		c0.1,0.2,0.2,0.4,0,0.2c0.2,0.2,0.3,0.5,0.4,0.6c-0.4-0.4-0.7-0.6-1-0.8c0,0.3-0.2,0.4,0.3,1c0,0.1-0.2-0.1-0.3-0.2
		c0-0.1,0-0.1-0.1-0.2c0.1,0.2-0.1,0.2,0.2,0.7c-0.2-0.1-0.3-0.4-0.3-0.3l-0.1-0.1c-0.6-0.3-0.1,0.5,0,0.8c-0.2-0.1-0.2-0.2-0.9-0.2
		c-0.1,0,0.2,0,0.4,0c0.1,0,0.1,0,0.2,0c-0.2,0-0.1-0.1-0.6-0.1c0.2-0.1,0.5,0,0.4-0.1l0.2,0c0.9-0.2-1.4-0.2-0.3-0.5
		c-0.1,0-0.1,0-0.2,0c0.5-0.2-0.5-0.4,0.3-0.7c0.2-0.1-0.2-0.1-0.5-0.1l0.4,0l-0.5,0c-0.4-0.1,1.1-0.2,0.4-0.3l-0.3,0
		c0,0-0.2-0.1,0.2-0.1c-0.1,0-0.3,0-0.2,0l0.2,0l-0.4-0.1c0.2-0.1,0.9-0.1,1-0.2c-0.1,0-0.7-0.1-0.8,0c0,0-0.1,0-0.2,0.1
		c0,0,0.1-0.1,0.2-0.1c-0.1-0.1-0.3-0.2-0.4-0.4l0.3-0.1l0,0.3c0.3-0.2,0-0.3-0.2-0.4c0.2,0,0.3-0.1,0.4-0.2
		c-0.2-0.1-0.5-0.2-0.7-0.2c0.3-0.1,0.6,0,0.7-0.2c-0.3-0.1-0.6,0.2-0.8,0.1c0.3-0.2,0.5-0.2,0.2-0.3c0.2-0.1,0.3-0.1,0.4,0
		c-0.2-0.1-0.2-0.4-0.6-0.3c0.3-0.3-0.3-0.4,0.3-0.7c-0.2,0-0.6,0-0.7-0.1c0.8-0.2-0.2-0.4,0.5-0.9c-0.7,0.3-0.7-0.4-1.2-0.3
		c0.1,0,0.2-0.1,0.2,0c-0.1-0.2,0-0.4,0-0.5c-0.4,0.4-0.7,0.3-1,0.6c0.2-0.6,0.5-0.5,0.8-1c-0.3,0.4-0.6,0.2-0.8,0.5
		c0-0.4,0-0.2,0.2-0.7c-0.4,0.6-0.2,0-0.6,0.3c-0.1-0.4,0.2-0.6-0.1-0.6c0-0.3,0.3-0.4,0.3-0.4c-0.3-0.2-0.4,0.4-0.5,0.7
		c-0.3,0,0-0.4,0-0.7c-0.2,0.1-0.5,0.5-0.6,0.5c0-0.1,0-0.1,0.1-0.2c-0.3,0.4-0.5-0.1-0.9,0.3c0,0,0-0.1,0-0.1
		c0,0.3-0.1,0.5-0.2,0.7c-0.1,0-0.2,0.3-0.2-0.1c0,0,0.1-0.1,0.1-0.2l-0.1,0.1c0-0.5,0.2-0.1,0.3-0.5c-0.2,0.1-0.6,0.5-0.7,0.3
		c0.1-0.5,0.4-0.1,0.3-0.6l0.2,0.2c0-0.8,0.1,0.1,0.2-0.8c-0.3-0.2-0.4,0.2-0.8,0c-0.1,0.3,0,0.4-0.2,0.7c-0.5,0.5-0.2-1.3-0.7-0.7
		c-0.1,0.3-0.2,1-0.4,0.6l0.1-0.6c-0.4-0.1-0.2,0.8-0.5,0.5c0-0.2,0.3-0.2,0.2-0.3c-0.3-0.4-0.2,0.3-0.3,0.3l-0.1-0.5
		c-0.4,0.1-0.8,0.5-1.1,0.8c0-0.1,0-0.3-0.1-0.4c-0.4,0.4-1.2,0.4-1.8,0.5c0,0.2,0,0.3,0.1,0.5c0,0-0.2-0.1-0.2-0.2
		c-0.3,0,0.2,0.2,0.2,0.4c-0.1,0.1-0.3-0.1-0.3-0.2c-0.1,0.5-0.2,1.2-0.8,1.2l0-0.1c-0.3,0.1,0.5,0.8,0,0.7l0-0.1
		c-0.5,0.3-0.5,1.1-1.2,1.2c0.3,0.2,0.1,0.3,0,0.5c-0.1,0-0.1,0.1-0.2,0.1c0.1-0.3,0.3-0.5,0-0.5c0.1-0.2,0.2-0.2,0.3-0.2
		c-0.3,0-0.5-0.3-0.8,0c0.1-0.5-0.6-0.3-0.2-0.8c-0.1,0.1-0.6,0.3-0.7,0.2c0.7-0.6-0.5-0.3-0.1-1c-0.5,0.6-0.9,0-1.4,0.2
		c0,0,0.1-0.1,0.1-0.1c-0.2-0.1-0.2-0.4-0.3-0.5c-0.2,0.6-0.5,0.6-0.8,0.9c-0.1-0.6,0.3-0.6,0.4-1.2c-0.1,0.5-0.5,0.4-0.5,0.8
		c-0.1-0.4-0.1-0.2-0.1-0.7c-0.2,0.7-0.2,0.1-0.4,0.5c-0.2-0.4,0-0.7-0.3-0.5c-0.1-0.2,0.2-0.5,0.2-0.5c-0.3-0.1-0.2,0.5-0.3,0.8
		c-0.4,0.1-0.1-0.4-0.2-0.7c-0.2,0.1-0.5,0.6-0.6,0.6c0-0.1,0-0.1,0-0.2c-0.3,0.4-0.7,0-1,0.5c0-0.1,0-0.1,0-0.1c0,0.3,0,0.6,0,0.8
		c-0.1,0-0.2,0.3-0.3,0c0.1,0,0.1-0.1,0.1-0.2l-0.1,0.1c-0.1-0.5,0.2-0.2,0.2-0.6c-0.3,0.2-0.6,0.6-0.8,0.4c0-0.5,0.5-0.2,0.2-0.6
		l0.3,0.2c-0.2-0.8,0.2,0.1,0-0.8c-0.4-0.2-0.5,0.2-0.9,0.1c-0.1,0.3,0,0.4-0.1,0.7c-0.3,0.2-0.4-0.1-0.5-0.4c0-0.1-0.1-0.3-0.2-0.4
		s-0.2,0-0.4,0.1c-0.2,0.4-0.1,1-0.6,0.7c0-0.2,0-0.4,0-0.6c-0.7,0.1-0.1,0.9-0.8,0.8c0-0.3,0.4-0.4,0.2-0.4
		c-0.6-0.2-0.1,0.4-0.4,0.6l-0.3-0.4c-0.2,0.2-0.4,0.5-0.6,0.7c-0.2,0.4-0.4,0.8-0.5,1.2c-0.1-0.1-0.2-0.3-0.4-0.2
		c-0.1,0.7-0.5,1.3-0.9,1.8c-0.1,0-0.1,0.1-0.2,0.1c0.1-0.6,0.5-0.5,0.7-1c-0.2,0.4-0.6,0.2-0.7,0.6c0-0.4,0-0.2,0.1-0.7
		c-0.4,0.6-0.2,0-0.5,0.4c-0.1-0.4,0.2-0.7-0.1-0.5c0-0.3,0.3-0.4,0.3-0.4c-0.3-0.1-0.3,0.5-0.5,0.7c-0.3,0,0-0.4,0-0.7
		c-0.2,0.1-0.5,0.5-0.6,0.5c0-0.1,0-0.1,0-0.2c-0.3,0.4-0.6-0.1-0.9,0.4c0,0,0-0.1,0-0.1c0,0.3,0,0.6-0.1,0.8c-0.1,0-0.2,0.3-0.2,0
		c0.1,0,0.1-0.1,0.1-0.2l-0.1,0.2c0-0.5,0.2-0.2,0.2-0.5c-0.2,0.1-0.5,0.5-0.6,0.4c0-0.5,0.4-0.1,0.2-0.6l0.2,0.2
		c-0.1-0.8,0.1,0.1,0.1-0.8c-0.4-0.2-0.4,0.2-0.7,0.1c-0.1,0.3,0,0.4-0.1,0.7c-0.2,0.2-0.3-0.1-0.4-0.4c-0.1-0.3-0.2-0.6-0.4-0.2
		c-0.1,0.4,0,1-0.3,0.7l0-0.6c-0.4,0,0,0.8-0.4,0.5c0-0.2,0.2-0.2,0.1-0.3c-0.3-0.4-0.1,0.3-0.2,0.4L27.5,32
		c-0.3,0.2-0.6,0.6-0.9,0.9c0-0.1,0-0.3-0.2-0.4c-0.4,0.4-1,0.4-1.6,0.5l0.1,0.5c0,0-0.2-0.1-0.2-0.2c-0.3,0,0.2,0.2,0.2,0.4
		c-0.1,0.1-0.3-0.1-0.3-0.2c0,0.1,0,0.3-0.1,0.4c-0.1,0.5-0.2,1-0.7,1.1l-0.1-0.1c-0.3,0.2,0.7,0.7,0.2,0.7l0-0.1
		c-0.4,0.5-0.2,1.1-0.9,1.3c0.6,0.2-0.4,0.4,0.4,0.7c-0.5,0.2-0.6,0-1,0.4c-0.1,0.1,0.5,0.3,0.6,0.4l-0.5-0.1l0.4,0.3l-0.6,0
		l0.1,0.1c0,0,0.2,0,0.4,0c0.2,0.2-0.4,0.4-0.6,0.3l0.3,0.5c-0.2,0-0.2-0.1-0.3-0.2c0.4,0.3-0.5-0.1-0.1,0.2c0.1,0,0.3,0.1,0.4,0.1
		c-0.3,0-0.4,0.3-0.3,0.5l-0.3-0.1c-0.1,0.3,0,0.7-0.1,1c0.2-0.1,0.7,0.1,0.7,0.2L22,40.9c0.3,0.1,0.2-0.1,0.5,0.2
		c-0.1,0.1-0.6,0-0.7-0.1L22,41c-0.1,0-0.2-0.1-0.4-0.1c0.3,0.1-0.5,0.1-0.1,0.4l-0.1,0c-0.1,0.4,0,0.6,0,0.9
		c0.4,0.1,0.3,0.2,0.6,0.3c-0.2,0.2-0.5,0.4-0.6,0.6c0.2,0.2,0.3,0.1,0.6,0.2c-0.4-0.1-0.4,0.2-0.6,0c0,0.3,0,0.4,0.2,0.9
		c0.2,0,0.2,0,0.4,0c0.1,0.1-0.2,0.1-0.4,0.1l0,0c0.5,0.5-1.3,0.8-0.5,1.3l0,0l0.4,0.4c-0.1,0.2-0.3-0.1-0.5-0.1
		c0.6,0.5-0.2,0.6,0.2,1c-1.2,0.1,0,0.9-0.8,1.2l0.3,0c0.2,0.1-0.2,0.1-0.2,0.1c0.2,0,0.2-0.1,0.4,0c0.2,0.8-0.6,1.5-0.9,2.3
		c-0.1,0.3,1.4,0.3,0.7,0.6L19.9,51c0.5,0.6-0.1,1.2,0.4,1.8c-0.1,0-0.3,0-0.3-0.1c-0.4,0.1,0,0.5,0.3,0.5c0,0.1-0.3,0-0.4,0.1
		c-0.2,0.1,0.5,0.3,0.1,0.4c-0.1,0-0.1,0-0.2-0.1c0.2,0.1,0,0.4,0.4,0.3c-0.2,0.2,0.2,0.4,0,0.6c0.5,0.1-0.2,0.4,0.5,0.4
		c-0.7,0-0.5,0.5-0.2,0.6c-0.2,0-0.2,0.2-0.5,0.2c0,0.2,0.2,0.3,0.5,0.2c-0.7,0.5,0.8,0.5-0.2,0.9c0.5,0.4,0.9,0.8,1.2,1.1
		c-0.6,0.3-0.3-0.4-0.9-0.2c0.5,0.3,1.1,0.3,1.2,0.8c0,0.1-0.3,0.1-0.4,0.1c0.5,0.3,0.5,0.9,1.1,1c0,0-0.1,0-0.2,0
		c0.1,0,0.1,0.2,0.3,0l-0.1,0c0.2-0.4,0.9-0.4,1.1-0.6c-0.7,0.5,0.1,0.4-0.8,1.1c0.1,0,0.2-0.1,0.4-0.2c0,0.1,0,0.2-0.2,0.3
		c0.2,0,0.3,0,0.4-0.1c0,0.1,0,0.1,0.1,0.2c0,0,0,0-0.1,0.1c0,0,0,0,0.1,0c0.1,0.2,0.3,0.5,0.2,0.7L23,60.8l0.5,0.5
		c-0.2,0.1-0.5,0.1-0.6-0.1c-0.3,0.3,0.2,0.3-0.2,0.5c-0.1,0-0.1,0-0.1,0l0.1,0.3c-0.1-0.1-0.4,0-0.3-0.2c-0.4,0.5,0.4,0.9-0.1,1.1
		l0,0c0.2,0.8,0.5,0.1,0.9,0.7L22,63.9l0.5,0.1c0,0.1-0.1,0.2-0.2,0.2c0.3,0.3,0.2,0,0.5,0.2c-0.5,0.3,0.2,1-0.6,1.1
		c0.4,0.1,0.3-0.3,0.5,0.1c-0.8,0.1,0.1,0.4-0.2,0.8c-0.4-0.1-0.2-0.4-0.5-0.1c0.7,0.2-0.2,0.7,0,0.9c0.5,0,0.3,0.6,0.5,1.1
		c-0.2,0-0.3,0.9-0.4,1.4h-0.1c0.6,0,0.5,0.5,0.7,0.8c-0.3,0-0.5,0-0.6-0.2l0,0.3c0.2,0,0.3,0.1,0.4,0.3l-0.4,0
		c0.1,0.4,0.6,0.8,0.4,1.3c0.4,0,1-0.6,1.3-0.1c-0.2,0.1-0.5,0.1-0.7,0c0,0,0.2,0.1,0.1,0.2l-0.4-0.1c-0.1,0.3,0.3,0.1,0.3,0.3
		c-0.3,0.1-0.2,0.2-0.4,0.2c0,0,0.1-0.2,0-0.2c0,0.2-0.1,0.5-0.3,0.7c0.2-0.1,0.4-0.1,0.5,0.1c0.1,0.4-0.3,0.2-0.4,0.5
		c0.2,0,0.1,0.4,0.5,0.3c0,0.1-0.2,0.2-0.3,0.3c0.2,0.2,0.3,1,0.7,0.6l0-0.1c0,0,0,0,0,0c0.6,0.6,0.2,1.5,0.6,2.1l-0.1,0
		c0.3,0.3,0.4,0.9,0.8,1c0,0.1-0.1,0.4-0.3,0.4c0.2,0.2,0.4,0.2,0.4,0.7c-0.4-0.2-0.2,0.2-0.3-0.2c0.1,0.4-0.1,0.6,0.5,0.9
		c-0.4,0-0.3,0.5-0.1,0.6c0-0.1,0.1-0.3,0.1-0.4c0.1,0.2,0.2,0.4,0.3,0.6l-0.5,0.1c-0.1,1.1,1.7,0.9,1.1,2c0.4,0,0-0.5,0.4-0.6
		c0.1,0.4-0.2,1.1-0.2,1.2c0.1,0.6,0.9,0,1.1,0.6c0.1-0.2,0.5-0.5,0.8-0.2c0.2,0.4-0.3,0.8-0.6,0.7c-0.1-0.1,0-0.1,0-0.2
		c-0.1-0.1-0.3-0.2-0.3,0.1l0.2-0.1c0,0.3,0.3,0.7,0,0.8c0.3,0.1,0.3-0.1,0.2-0.3c0.1,0.5,0.4,0.6,0.6,1.1c0,0,0,0.1,0,0.1
		c0-0.1,0.1-0.3,0.2-0.2c0.3,0.8,0.5,0.1,0.9,0.4c0,0.4-0.6,0.3-0.1,0.6c0.1,0.4-0.3,0.4-0.5,0.4c0.6,0.1,0.4,0.8,0.6,1.1l-0.3-0.1
		c0.2,0.1,0.2,0.2,0.3,0.2l0.2-0.3c0,0.1,0.1,0.2,0,0.3c0.3,0,0.4-0.5,0.8-0.5c0,0.3,0.5,0.3,0.2,0.7c-0.3-0.6-0.3,0.4-0.7,0
		c0.1,0,0.2,0.1,0.2,0.3c0,0-0.1,0-0.1,0c0.1,0.7,0.6-0.2,1,0.3c-0.2,0.1-0.3,0.5-0.1,0.5c-0.2-0.2,0.2-0.4,0.5-0.4
		c0.1,0.4,0.4,0.2,0.6,0.3l-0.1-0.2c0.2-0.1,0.4,0,0.6,0.2c0,0-0.1,0.1-0.1,0.1c0.3,0.1,0.1,0.8,0.5,0.9c0,0.3-0.3,0.4-0.3,0.6
		c0.6,0.1,0.1,0.6,0.7,0.7c0.1-0.4,0-0.3,0.5-0.3L32.9,91l0.8,0c-0.2-0.2-0.6-0.2-0.6-0.3c0.4,0,0.3,0,0.4-0.3
		c-0.1,0.6,0.7,0.2,0.8,0.7l-0.6,0.7c0.2,0.7,1.1,0.3,1.5,1L35,92.4c0.3-0.2,0.4,0.3,0.7,0.3c-0.2,0.2-0.2,0.4-0.2,0.6
		c0.1-0.2,0.4,0.4,0.8,0l0,0.5c0.4,0.5,1.1-0.2,1.5,0.2c-0.3,0.1-0.2,0.5-0.7,0.4c0.2,0.1,0.3,0.3,0.4,0.1c0,0.2,0.3,0.1,0.5,0.2
		c0,0.1,0.1,0.1,0.2,0.1c0,0,0,0,0,0c0,0,0.1,0.1,0.1,0.1c0.2-0.1,0.3-0.3,0.5-0.2c0,0.1-0.1,0.1-0.1,0.1c0.1-0.1,0.4,0,0.4-0.4
		c0.1,0.6,0.5,0.7,0.9,0.8c0.4,0.1,0.7,0.2,0.9,0.5c0,0-0.1,0-0.1,0l0.1,0.1c0,0,0,0,0,0c0.5,0,1,0,1.4,0c0,0.1,0,0.1-0.1,0.1
		c0.5,0.3,0.4-0.8,1-0.4c0.3,0.5-0.4,0.2-0.2,0.4c0,1,0.8-0.1,1.2,0.5l-0.1,0c0.3,0.3,0.8-0.3,1.3-0.3c0,0,0,0.1,0,0.1
		c0.3-0.5,1-0.7,1.5-0.8C47,96,47,95.9,47.1,96.3c0.2-0.1-0.1-0.6,0.4-0.7c0.2,0.2,0.5,0.4,0.5,0.8l-0.4,0c0.2,0.5,0.5,0,0.8,0
		l0,0.2c0.6-0.1,0.6-0.7,1.3-0.7l-0.1-0.2c0.3-0.6,0.3,0.3,0.7-0.1l0.1,0.6c0.2-0.2,0.8-0.6,1.3-0.8c-0.2,0.4-0.7,0.7-1,1
		c0.2,0,0.8-0.1,0.9-0.4c-0.1,0.1-0.2,0.2-0.3,0.1c0.3-0.5,0.6-0.7,1.1-0.8c0,1.2,1.3,0.2,1.7,1c0.8-0.5,1.8,0,2.8-0.2
		c-0.5-0.8,0.3-0.1,0.1-1c0.2-0.1,0.2-0.1,0.3-0.1c0,0.2-0.3,0.6,0.1,0.8c-0.3-0.2,0.1-0.5,0.1-0.7l0.7,0.4c0.2,0.2-0.2,0.2-0.1,0.4
		c0.5,0,0.3,0.3,0.7,0.5c-0.1-0.3,0.1-0.5,0.4-0.4l-0.5-0.3c0.6-0.6,0.8,0.6,1.4,0l-0.2,0.3c0.3-0.2,1.4-0.3,1.6-1.1
		c0.1,0.1,0.2,0.3,0.1,0.4c0.9-0.1,1.7-1.3,2.5-1.2l0,0.2c0.1-0.1,0.1-0.5,0.4-0.4c0,0.1,0,0.2,0.1,0.2c0.1-0.1,0.3-0.5,0.5-0.5
		l-0.1,0.3c1-0.1,1-1.1,1.6-1.6c0.3,0.6,1,0.5,1.4,0.4l0,0.1c1-0.5,1.3-1.4,2-2.1c0.9,0.2,1.9-1,2.8-1.3c-0.2,0-0.3-0.4-0.2-0.6
		c0.3-0.1,0.1-0.8,0.5-0.3L73,88.8c0.5,0.3,0.8-0.1,1.1-0.4l-0.5-0.6c0.8,0,1.1-0.5,1.4-1.1c0.3-0.5,0.5-1,1-1
		c0-0.3,0.1-0.5,0.1-0.9l0.3,0.2c0.4-0.5,0.7-0.8,1-1.6l0.2,0.3c0.2-0.4-0.8-1.1-0.7-1.5l0.6,0.2c0.3-0.7,1.1-1.3,0.9-2.2
		c0.1,0,0.2,0.1,0.2,0.2c0.2-0.3,0.9-1.2,0-1.4c0.6,0.2,0.3-0.8,0.1-1.2l0.4,0.2c-0.4-0.5-0.6-0.5-0.6-1c0.1-0.1,0.4,0,0.2,0.1
		c0.3-0.3-0.3-0.4,0-0.8l0.2,0.2c0.1-0.4,0-0.4-0.3-0.6c-0.1-0.3,0.2-0.7,0.6-0.7c-0.2-0.1-0.5-0.4-0.3-0.6c0.2,0,0.2,0.1,0.2,0.1
		c0.4-0.6-0.3-1,0.2-1.4c0.1,0,0.2,0,0.3,0c-0.1,0.5-0.2,0.9-0.2,0.9c0.4,0.1,0.5-0.3,1,0.1c-0.2-0.4-0.8-1-0.5-1.4c0,0,0.1,0,0.1,0
		l0,0c0.1-0.1,0-0.2,0-0.3c0.1-0.1,0.1-0.2,0.2-0.3C80.5,72.5,80.5,72,80.5,71.8z M61.2,34c0-0.1,0,0,0.1,0c0,0,0,0,0,0.1l0,0
		C61.3,34.1,61.2,34,61.2,34z M77.9,53.3l0.2,0C78,53.3,77.9,53.3,77.9,53.3C77.9,53.3,77.9,53.3,77.9,53.3z M72,46.2L72,46.2
		L72,46.2C71.9,46.2,71.9,46.2,72,46.2z M71.9,46.3C71.9,46.3,71.9,46.3,71.9,46.3C71.9,46.3,71.8,46.3,71.9,46.3z M71.4,46.6
		c0,0,0-0.1,0-0.1l0.4,0l-0.5-0.1c0,0,0,0,0,0c0.2,0,0.5,0,0.5,0c0,0,0,0,0,0c0,0.1,0,0.2-0.1,0.3c-0.1,0.1-0.2,0.1-0.3,0
		C71.7,46.7,71.6,46.6,71.4,46.6z M71.7,46.3c-0.1,0-0.3,0-0.4,0c0,0,0-0.1,0-0.1C71.5,46.2,71.6,46.2,71.7,46.3z M63.4,36
		C63.3,36,63.3,36,63.4,36c-0.2-0.1-0.2-0.2-0.2-0.2C63.2,35.9,63.3,35.9,63.4,36z M60.9,38.7c0,0,0.1,0.1,0.1,0.1c0,0,0,0-0.1,0
		C60.9,38.8,60.9,38.7,60.9,38.7C60.9,38.7,60.9,38.7,60.9,38.7z M60.6,35.9c0,0.1-0.1,0.1-0.2,0C60.5,36,60.6,35.9,60.6,35.9z
		 M60.6,39.2c0.1,0.1,0.1,0.1,0.2,0.2c0,0-0.1,0-0.1,0L60.6,39.2C60.5,39.2,60.5,39.2,60.6,39.2z M60.4,36C60.4,36,60.4,36,60.4,36
		c-0.1,0-0.2,0.1-0.3,0.2c0,0,0,0,0,0.1c-0.1,0-0.1,0,0-0.1c-0.3,0-0.5,0-0.7,0C59.8,36.1,60.1,36,60.4,36z M60,36.4
		C60,36.4,60,36.4,60,36.4C59.9,36.4,59.9,36.4,60,36.4z M59.8,36.6C59.8,36.6,59.8,36.6,59.8,36.6C59.8,36.6,59.8,36.6,59.8,36.6
		C59.8,36.6,59.8,36.6,59.8,36.6z M60.2,46l-0.2,0c0.2,0,0.2-0.1,0.5-0.1C60.4,45.8,60.2,45.8,60.2,46c0.1-0.1-0.1-0.2,0.1-0.3
		c0,0,0.1,0,0,0c0,0,0,0,0,0c0,0,0,0,0,0c-0.1,0-0.3,0-0.3,0c0.2-0.1-0.3-0.1-0.4-0.1c0.3,0,0.7,0,0.4,0c0.2,0,0.5,0,0.6,0
		c-0.3-0.1,0.2-0.1,0.3-0.2l0.1,0c-0.1,0-0.1,0-0.1-0.1l-0.4,0c0.1,0,0.1,0,0.2,0c-0.2,0-0.6,0-0.9-0.1c0.2,0-0.2-0.1,0.3-0.1
		c-0.2,0.1,0.5,0,0.6,0.1c-0.1,0-0.1,0,0,0c0.1,0,0.1,0,0.1,0c0.4-0.1-0.5-0.1-0.5-0.1c0.3,0,0.5,0,0.5,0c0,0-0.4,0-0.7,0
		C60.4,45,60,45,60,45L60,45c-0.3,0-0.2,0-0.3-0.1c0.1,0,0.1,0,0.1,0c-0.1,0,0.6-0.1,0.3-0.1c0.2,0,0.5,0,0.6,0
		c-0.3-0.1,0.4-0.1,0.1-0.1c-0.4,0-0.3,0-0.6,0l0.2,0.1l-0.5-0.1c0,0,0.2,0.1,0.2,0.1c-0.3,0-0.2,0-0.5,0c0.5,0-0.3-0.1,0-0.2l0.9,0
		c0.4-0.1-0.4-0.2-0.2-0.3l-0.2,0c-0.4,0-0.1-0.1-0.2-0.1c0.3,0,0.4,0,0.6,0c-0.2,0,0-0.1-0.6-0.1l0.4,0c0.2-0.1-0.8-0.1-0.7-0.2
		c0.3,0,0.5,0,0.8,0.1c0,0,0.1,0-0.2-0.1c0.2,0-0.4-0.1-0.1-0.1c-0.1,0-0.4,0-0.4-0.1c0.1,0,0.2,0,0.2,0c-0.2,0-0.2-0.1-0.5,0
		c0.9-0.1-0.1-0.2,0.7-0.3c-0.1-0.1-0.2-0.1-0.2-0.2c0.1,0,0.2,0,0.1,0c0.3-0.1-0.8-0.1-0.5-0.2c0.5,0,0.3,0.1,0.4,0
		c1,0-0.1-0.1,0.4-0.2l0.1,0c0.3,0-0.4-0.1-0.3-0.2c0,0,0.1,0,0.2,0c-0.5-0.1-0.7-0.2-0.8-0.2c0.4,0,0.2,0,0.6,0c0,0-0.6,0-0.7-0.1
		c0.2,0,0.4-0.1,0.8,0l0,0.1c0.5,0,0-0.1,0.1-0.1l0.2,0c-0.1-0.1-0.7-0.1-0.6-0.2l-0.2,0.1c-0.6-0.1,0.3,0-0.1-0.1h0.6
		c-0.1,0-0.6-0.1-0.7-0.2c0.4,0,0.7,0.1,0.9,0.2c0,0,0-0.1-0.3-0.2c0.1,0,0.2,0,0.1,0c-0.5,0-0.7-0.1-0.7-0.2c1.2,0,0.3-0.2,1.2-0.2
		c-0.4-0.1,0.2-0.2,0.1-0.4c-0.9,0,0,0-0.9,0c0,0,0,0,0,0h0l0.5-0.1c0.3,0,0.2,0,0.4,0c0.1-0.1,0.4,0,0.6-0.1c-0.3,0-0.5,0-0.3-0.1
		l-0.4,0c-0.5-0.1,0.8-0.1,0.3-0.2l0.3,0c-0.2-0.1,0-0.2-0.7-0.3c0.1,0,0.4,0,0.4,0c0.1-0.1-0.8-0.3-0.3-0.4l0.2,0
		c-0.1,0-0.4,0-0.2-0.1c0.1,0,0.2,0,0.2,0c-0.1,0-0.4-0.1-0.3-0.1l0.2,0c0.3-0.1-0.6-0.2-0.8-0.3c0.7,0,0.9-0.1,1-0.1h0.1
		c0-0.1-0.1-0.2-0.4-0.2c-0.1-0.1-0.1-0.2-0.2-0.2c0,0,0.1,0,0.1,0c0,0,0.1,0.1,0.1,0.1c0-0.1,0-0.1-0.1-0.2
		c0.1-0.1,0.1-0.1,0.1-0.2c0,0,0.1,0.1,0.2,0.2c0-0.1-0.1-0.2-0.2-0.2c0,0,0,0,0.1,0c0.2,0.2,0.1-0.2,0.5,0.3
		c-0.5-0.5-0.1-0.4-0.2-0.8c0,0,0.1,0.1,0.1,0.1c0.1,0,0.2,0.1,0.4,0.2c-0.4-0.4-0.4-0.6-0.6-0.9c0.5,0.4,0.4,0.5,0.8,0.9
		c-0.3-0.3-0.2-0.4-0.5-0.7c0.3,0.2,0.2,0.1,0.5,0.4c-0.5-0.5,0-0.1-0.3-0.5c0.3,0.2,0.5,0.5,0.4,0.3c0.2,0.1,0.3,0.4,0.3,0.4
		c0.1-0.1-0.3-0.4-0.5-0.7c0-0.2,0.3,0.3,0.5,0.4c-0.1-0.2-0.4-0.6-0.3-0.6c0.1,0.1,0.1,0.1,0.2,0.2c-0.2-0.4,0.1-0.2-0.2-0.6
		c0,0,0.1,0.1,0.1,0.1c-0.2-0.2-0.4-0.4-0.5-0.6c0,0-0.2-0.3,0.1-0.1c0,0,0.1,0.1,0.1,0.2l-0.1-0.1c0.4,0.4,0.1,0.2,0.3,0.5
		c0-0.2-0.2-0.6-0.1-0.5c0.3,0.4,0,0.2,0.4,0.5l-0.2-0.1c0.6,0.5-0.1,0,0.5,0.6c0.2,0-0.1-0.3,0.1-0.3c-0.2-0.2-0.3-0.3-0.5-0.5
		c-0.2-0.5,1,0.9,0.6,0.3c-0.2-0.3-0.6-0.8-0.3-0.6l0.3,0.5c0.1,0-0.5-0.7-0.1-0.5c0.1,0.2,0,0.2,0.1,0.2c0.4,0.3-0.2-0.3-0.1-0.3
		l0.3,0.4c0.1-0.1-0.1-0.5,0-0.7c0.1,0.1,0.2,0.3,0.3,0.4c0-0.3,0.4-0.2,0.7-0.1L64,36.1c0,0,0.1,0.1,0.2,0.2
		c0.2,0.1-0.2-0.2-0.2-0.4c0,0,0.2,0.2,0.2,0.3c-0.1-0.4-0.2-0.9,0.2-0.6l0,0.1c0.2,0.1-0.4-0.8-0.1-0.5l0,0.1
		c0.3,0,0.3-0.4,0.8,0.1c-0.3-0.6,0.3,0.2-0.1-0.6c0.3,0.3,0.3,0.5,0.6,0.7c0.1,0-0.2-0.5-0.2-0.6l0.2,0.4l-0.1-0.5l0.2,0.5v-0.1
		c0,0-0.1-0.2-0.2-0.3c0-0.2,0.3,0.2,0.3,0.5c0-0.1,0-0.3,0-0.4c0,0.2,0,0.2,0.1,0.4c-0.1-0.5,0.2,0.5,0.1,0c0-0.1-0.1-0.3-0.1-0.4
		c0.1,0.3,0.2,0.2,0.2,0.1l0.1,0.3c0.1,0.1,0.2-0.2,0.3-0.2c-0.1-0.1-0.1-0.7-0.1-0.8l0.1,0.5c0-0.3-0.1-0.2-0.1-0.5
		c0.1,0,0.1,0.5,0.1,0.7l0-0.2c0,0.1,0,0.2,0,0.4c0-0.3,0.1,0.5,0.1,0l0,0.1c0.1,0,0.2-0.2,0.3-0.2c0-0.4,0-0.3,0.1-0.7
		c0.1,0.1,0.2,0.5,0.2,0.4c0.1-0.2,0-0.4,0.1-0.6c0,0.4,0.1,0.4,0,0.6c0.1,0,0.1-0.1,0.3-0.3c0-0.2,0-0.2,0-0.4c0-0.1,0,0.2,0,0.3
		l0,0c0.1-0.3,0.2,0,0.2,0.3c0,0.3,0,0.5,0.2,0.2c0.1-0.1,0.2-0.2,0.3-0.3c0,0.1-0.1,0.3-0.2,0.5c0.4-0.5,0.1,0.2,0.4-0.2
		c-0.2,0.5-0.2,0.5-0.1,0.5c0.1,0,0.2-0.1,0,0.2l0.2-0.2c0.2-0.2-0.1,0.1-0.1,0.2c0.1-0.2,0.1-0.2,0.2-0.3c0.4-0.1,0,0.6-0.2,0.8
		c0,0.1,1.2-0.6,0.7-0.2l-0.5,0.2c0.6-0.1,0.1,0.3,0.6,0.3c-0.1,0-0.3,0.1-0.3,0c-0.3,0.1,0,0.2,0.3,0.1c0,0-0.3,0.1-0.4,0.1
		c-0.2,0.1,0.5,0,0.1,0.1c-0.1,0-0.1,0-0.1,0c0.2,0,0,0.1,0.4,0c-0.2,0.1,0.2,0.1,0,0.2c0.5,0-0.2,0.2,0.4,0.1
		c-0.7,0.1-0.5,0.2-0.2,0.2c-0.2,0-0.2,0.1-0.5,0.1c0,0.1,0.1,0.1,0.5,0.1c-0.8,0.2,0.7,0.2-0.4,0.3c0.4,0.2,0.6,0.4,0.8,0.6
		c-0.7,0-0.1-0.2-0.8-0.2c0.3,0.2,0.9,0.3,0.7,0.5c-0.1,0-0.3,0-0.4,0c0.3,0.2-0.1,0.4,0.3,0.5c-0.1,0-0.1,0-0.2,0
		c0,0-0.1,0.1,0.2,0.1l-0.1,0c0.5-0.1,0.9,0.1,1.2,0.1c-0.9,0-0.2,0.2-1.3,0.1c0.1,0,0.2,0,0.4,0c-0.1,0-0.2,0-0.4,0
		c0.2,0.1,0.5,0.1,0.5,0.2c-0.2,0-0.2,0-0.4,0c0.3,0.1,0.6,0.1,0.5,0.2c-0.1,0-0.2,0-0.2,0c0,0.2,0.8,0.3,0.5,0.4
		c-0.7,0-0.2,0.1-0.8,0.1l0.2,0.1l0.3,0c0,0.1,0.4,0.2,0.2,0.2l-0.2-0.1l0.1,0.2l0.2-0.1c0.3,0.1,0.7,0,0.5,0.1
		c-0.1,0,0,0.1-0.3,0.1c0.2,0,0.4,0.1,0.2,0.1c-0.2,0-0.6,0-0.7,0c0.5,0,0.1,0.2,0.6,0.2c-0.1,0-0.4,0-0.5,0l0.4,0
		c-0.1,0-0.2,0-0.4,0c-0.1,0.1,0.7,0,0.4,0.1c0,0-0.1,0-0.2,0c-0.2,0.1,0.2,0.3,0.1,0.4c-0.2,0-0.2,0-0.3,0l0,0l-0.1-0.1l0,0
		c0,0-0.1,0-0.2,0c0,0,0,0,0,0l0,0l0,0c0.2,0.2,0.6,0.4,0.5,0.5l0.1,0c0.8,0-0.4,0.1,0,0.2c-0.1,0-0.4,0-0.3,0
		c-0.1,0.1,0.2,0.2,0.5,0.4l-0.2,0c-0.2,0.1-0.1,0.2-0.2,0.3c0.2,0,0.2,0.1,0.5,0c-1.2,0.2,0.6,0.5-0.3,0.7c0,0-0.2-0.1-0.2,0
		l0.2,0.2c0.4,0,0.2,0,0.5-0.1c0.2,0,0.4,0.1,0.4,0.1c-0.2-0.1-0.6,0-0.8,0c0.1,0,0.2,0,0.3,0c-0.6,0.1,0.7,0,0.3,0.1l-0.2,0
		c0.1,0.1,0.3,0.1,0.3,0.2c-0.4,0-0.2,0-0.5-0.1c0,0.1,0.8,0.2,0.4,0.2c-0.1,0-0.1-0.1-0.2-0.1c-0.5,0.1-0.3,0.1-0.4,0.1l0,0
		l-0.2,0.1l0.1,0c1.1,0.1,0.2,0.2,0.9,0.3c-0.6-0.1-0.4,0-0.8,0c-0.1,0-0.3,0.1-0.4,0.1c0.4,0.1-0.3,0.1,0.2,0.2c-0.2,0,0,0.1-0.4,0
		c0.1,0.1,0.2,0,0.4,0c0.5,0.1-0.6,0.3,0.1,0.5c0.1,0,0.2,0.1,0.3,0.1c-0.1,0.1-0.1,0.3-0.2,0.4c0,0,0,0,0,0l0,0c0,0,0,0,0,0.1
		c-0.1,0-0.2,0-0.2,0c0,0,0.1,0,0.2,0.1c0,0,0,0.1-0.1,0.1c0,0-0.1,0-0.1,0c0,0,0,0-0.1-0.1l0-0.1c0,0,0,0,0,0c0,0,0,0,0,0l0,0
		c0,0,0.1,0,0.1,0c0,0-0.1,0-0.1,0l0.1-0.4c-0.1,0-0.2,0.1-0.3,0.2c-0.1,0-0.1,0-0.1,0.1h0c-0.1,0.2-0.2,0.3-0.3,0.1
		c0.1-0.2,0.3-0.1,0.3-0.2c-0.2-0.5-0.2,0.3-0.4,0.3l0-0.5c-0.4,0-0.9,0.3-1.4,0.4c0-0.1,0.1-0.3,0-0.5c-0.6,0.2-1.2-0.2-1.8-0.5
		l-0.2,0.4c0,0-0.1-0.2,0-0.3c-0.2-0.2,0,0.3-0.1,0.4c-0.1,0-0.2-0.2-0.1-0.4c-0.4,0.4-1.1,0.9-1.6,0.5l0.1-0.1
		c-0.4-0.1-0.2,0.9-0.6,0.6l0-0.1c-0.8,0-1.4,0.5-2.1,0.2c0.1,0.6-0.8,0-0.5,0.8c-0.6-0.2-0.5-0.4-1.2-0.4c-0.2,0,0.1,0.6,0,0.8
		l-0.2-0.4l0,0.5l-0.4-0.3c0.1,0,0.1,0,0.2,0c-0.1,0-0.1,0-0.2,0l0,0l0,0c-0.1,0-0.2,0-0.2,0c0-0.1,0.4,0,0.5,0c-0.2,0,0,0-0.4-0.1
		c0,0,0.2,0,0.3,0c-0.2,0,0-0.1-0.5-0.1l0,0c0,0,0,0,0,0c-0.4-0.1,0.3-0.2,0.1-0.3l0.2,0c-0.2-0.1-0.1-0.1-0.4-0.2c0,0,0.3,0,0.5,0
		c-0.1-0.1-0.3-0.1,0-0.1c0.3,0,0.2,0,0.2,0c0.1,0,0.4-0.1,0-0.1c0.4,0,0.5,0,0.4-0.1l-0.3,0c-0.1,0,0-0.1,0-0.1l0.5,0
		c0.6-0.1-1-0.2,0-0.3c-0.4,0-0.2,0.1-0.7,0c0.1,0,0.8-0.1,0.8-0.1c0.3-0.1-0.7-0.1-0.5-0.2c-0.2,0-0.7,0-0.8-0.1
		c0.1-0.1,0.8,0,0.9,0c0,0,0,0-0.1,0C60,45.9,60.1,46,60.2,46z M68.7,46.4c0,0-0.1,0-0.1,0v0C68.6,46.4,68.6,46.4,68.7,46.4z
		 M68,46.4c0.1,0,0.2,0,0.2,0c0,0.2,0,0.3-0.1,0.3C68.2,46.6,68,46.5,68,46.4z M59.9,48c0,0.1-0.1,0.1-0.1,0.1c0,0,0,0,0,0
		c0,0-0.1,0-0.2,0c0,0,0.1,0,0.1,0c-0.4,0-0.4-0.1-0.5-0.1C59.6,48,59.7,48,59.9,48L59.9,48c-0.3,0-0.3,0-0.4-0.1L59.9,48
		C59.9,48,59.9,48,59.9,48L59.9,48L59.9,48C59.9,48,59.9,48,59.9,48z M59.7,47.8c0,0,0.1,0,0.2,0.1C59.8,47.9,59.7,47.8,59.7,47.8z
		 M59.1,47.7C59,47.7,58.9,47.7,59.1,47.7h0.3C59.5,47.7,59,47.7,59.1,47.7c0.3,0,0.2-0.1,0.5,0c0,0-0.1,0,0,0c0,0,0.1,0,0.2,0
		l0,0.1c-0.4,0-1,0-1.2-0.1C58.6,47.7,59,47.7,59.1,47.7z M50.8,28.5c0,0,0.1,0,0.1,0C50.8,28.4,50.8,28.5,50.8,28.5L50.8,28.5z
		 M50.5,28.6c0.1,0.1,0.1,0.3,0,0.3c0-0.1-0.1-0.1-0.2-0.2C50.4,28.7,50.4,28.6,50.5,28.6z M47.8,57.5
		C47.9,57.6,47.8,57.6,47.8,57.5c0,0.1,0,0.1,0.2,0L47.8,57.5c0.2,0,0.2-0.2,0.5-0.2c-0.2-0.1-0.3,0-0.4,0.1c0.2-0.2,0-0.3,0.1-0.5
		c-0.1,0-0.3,0.1-0.3,0c0.2-0.3-0.3-0.1-0.4-0.3c0.3-0.1,0.7,0,0.4-0.2c0.2-0.1,0.5,0,0.6,0c-0.4-0.2,0.2-0.4,0.3-0.5l0.1,0.1
		c-0.1-0.1-0.1-0.1-0.1-0.2L48.4,56c0.1-0.1,0.1-0.1,0.2-0.1c-0.2-0.1-0.6,0-0.9-0.1c0.2-0.1-0.2-0.2,0.3-0.3
		c-0.2,0.3,0.5,0,0.5,0.2c-0.1,0,0-0.1,0-0.2c0,0,0.1,0,0.1,0c0.4-0.2-0.5-0.1-0.5-0.4c0.3,0,0.5-0.1,0.5-0.1c0,0.1-0.5,0-0.7-0.1
		c0.2-0.2-0.2-0.2-0.1-0.3l-0.1,0.1c-0.3,0-0.2-0.1-0.3-0.2c0.1,0,0.1,0,0.1,0c-0.1-0.1,0.6-0.3,0.3-0.4c0.2-0.1,0.5,0,0.6-0.1
		c-0.3-0.2,0.4-0.2,0.1-0.4c-0.4,0-0.3,0.1-0.6-0.1l0.2,0.4l-0.5-0.2c0,0.1,0.2,0.2,0.2,0.3C47.5,54,47.5,54,47.2,54
		c0.5-0.1-0.3-0.3,0.1-0.5l0.9,0c0.4-0.2-0.4-0.5-0.2-0.8l-0.2,0.1c-0.3-0.1,0-0.2-0.2-0.3c0.3,0,0.4,0,0.6-0.1
		c-0.2,0,0-0.2-0.6-0.3l0.4-0.1c0.2-0.3-0.8-0.4-0.7-0.6c0.3,0.1,0.5,0,0.8,0.2c0-0.1,0.1-0.2-0.1-0.2c0.2,0-0.4-0.3-0.1-0.3
		c-0.1,0-0.4-0.1-0.4-0.2c0.1,0,0.1,0,0.1,0c-0.1,0-0.1-0.1-0.2-0.1c0,0,0-0.1,0-0.1c0.4-0.2,0-0.5,0.3-0.7l0.2-0.1l0,0
		c0,0,0.1,0,0.1,0c0,0,0-0.1,0-0.1c0,0,0,0,0,0c0-0.1,0-0.3-0.1-0.5c0,0,0,0,0,0c0.1-0.1,0-0.1-0.1-0.2c0-0.1-0.1-0.1-0.1-0.2
		c0,0,0,0,0.1,0c1,0-0.1-0.3,0.5-0.5l0.1,0c0.3-0.1-0.4-0.4-0.3-0.6c0,0,0.1,0,0.2,0c-0.3-0.1-0.4-0.2-0.6-0.4
		c0.1,0.1,0.4,0.1,0.3,0.1c0-0.1,0-0.2,0-0.3c0,0,0,0,0,0l0,0c0-0.1-0.1-0.2-0.1-0.4c0.1,0,0.1,0,0.2,0l0,0.2c0.5-0.1,0-0.2,0.1-0.3
		l0.2,0c-0.1-0.2-0.5-0.3-0.6-0.5c0.1-0.1,0.1-0.3,0.1-0.4l0.2,0c0,0-0.1-0.1-0.2-0.1c0,0,0,0,0-0.1c-0.1,0-0.2-0.1-0.2-0.1
		c0,0-0.1-0.1-0.1-0.1c0,0,0.1-0.1,0.1-0.1c0.3,0.1,0.4,0.3,0.6,0.4c0-0.1,0-0.4-0.3-0.4c0,0,0.2,0.1,0.1,0.1
		c-0.2,0-0.3-0.1-0.4-0.2c0.1-0.1,0.1-0.3,0.1-0.4c0.5-0.1,0.1-0.5,0.8-0.6c-0.4-0.4,0.2-0.8,0.2-1.2c-0.9,0.1,0-0.1-0.9-0.2
		c0-0.1,0-0.1,0-0.2h0l0.1-0.1c0.2,0,0.6,0.2,0.8,0c-0.3,0.1-0.4-0.1-0.7-0.1l0.4-0.2c0.3-0.1,0.2,0.1,0.4,0.1
		c0.1-0.2,0.4-0.1,0.6-0.2c-0.3,0-0.5-0.1-0.3-0.2l-0.4,0.2c-0.5-0.3,0.8-0.2,0.3-0.6l0.3,0.1c-0.2-0.2,0-0.6-0.7-0.8
		c0.1,0,0.4,0,0.4,0c0.1-0.4-0.8-0.9-0.3-1.2l0.2,0c-0.1-0.1-0.4-0.1-0.2-0.2c0.1,0,0.2,0,0.2,0c-0.1,0-0.4-0.2-0.2-0.3l0.2,0.1
		c0.3-0.4-0.6-0.6-0.7-0.9c0.7,0,0.9-0.3,1-0.5l0.1,0c0.1-0.4-0.5-0.8-0.8-1.2c0.7-0.2,0.3-0.9,0.7-1.3c-0.1,0.1-0.5,0-0.6-0.1
		c0.1-0.1-0.5-0.3,0.2-0.3l0,0c0.6-0.1,0.4-0.3,0.5-0.4l-0.8,0c0.6-0.1,0.5-0.3,0.4-0.5c-0.1-0.2-0.2-0.4,0.3-0.3
		c-0.2-0.1-0.2-0.2-0.3-0.3l0.4,0.1c0.2-0.1,0.2-0.2,0.2-0.5l0.3,0.2c0.1-0.1-1-0.7-1-0.8l0.6,0.2c0.1-0.2,0.7-0.1,0.4-0.6
		c0.1,0.1,0.2,0.2,0.2,0.2c0.1-0.1,0.6-0.1-0.1-0.6c0.4,0.4,0.2-0.1,0.1-0.4l0.3,0.3c-0.3-0.5-0.4-0.6-0.4-0.8
		c0.1,0,0.2,0.2,0.1,0.2c0.2,0.1-0.2-0.4,0.1-0.3l0.1,0.2c0.1,0,0-0.2-0.1-0.5c0-0.2,0.3-0.1,0.5,0.3c-0.1-0.2-0.2-0.5-0.1-0.5
		c0.1,0.1,0.1,0.2,0.1,0.3c0.3,0.2,0.1-0.6,0.4-0.2c0,0.1,0.1,0.2,0.1,0.2c-0.2,0-0.3,0.1-0.3,0c0.2,0.3,0.3,0.4,0.4,0.9
		c-0.1-0.3-0.1-0.9,0-0.8c0,0,0,0.1,0,0.1v0c0,0,0,0,0-0.1c0,0,0.1,0.1,0.1,0.1c0.1,0.3,0.2,0.1,0.2,0.1c-0.1-0.4,0-0.4-0.1-0.7
		c0,0,0,0,0,0.1c0,0,0,0,0,0c0,0,0-0.1,0-0.1l0,0.1c0,0,0,0,0,0v0c0,0-0.1,0-0.2,0.1c0-0.2,0-0.4,0.2-0.2c0-0.3,0-0.6,0-0.7
		c0.2,0.6,0.4,0.9,0.4,1.2c0.2-0.2,0.4-0.2,0.7-0.9c0.1-0.1,0.1,0.2,0.1,0.4c0,0.1-0.1,0.1-0.1,0.2c0.2-0.2,0.4,0,0.5-0.6
		c0.1,0.3-0.2,0.5,0.1,0.4l-0.1,0.2c0.1,0.5,0.4,0.2,0.6-0.1c0.3-0.3,0.6-0.5,0.7,0.2c0-0.1,0-0.1,0-0.2c0.1,0.2,0.3,0.3,0.4,0.3
		c0.1,0,0.2,0,0.4,0.1c0.3,0.1,0.5,0.2,0.4,0.7c0,0.2,0.2,0,0.5-0.1L56,31.9c0.2-0.1,0.3-0.1,0.5-0.2c0.2,0,0.1,0.2-0.1,0.4
		c-0.2,0.2-0.3,0.3,0.1,0.3l0.3-0.1c0,0.1,0.3,0.3-0.1,0.3c0.1,0,0.3,0,0.2,0l-0.2,0.1c0.2,0,0.3,0.1,0.4,0.2
		c-0.1,0.2-0.9,0.1-1,0.2c0.1,0,0.7,0.2,0.8,0.2c0,0,0.2-0.1,0.4-0.1l0.1,0.1l-0.2,0l0.2,0.1l0,0c0.2,0,0.4,0.1,0.7,0.1
		c-0.4,0-0.8,0.1-1.1,0.2l0.4,0l-0.3,0.1l0-0.1c-0.3,0.1,0,0.1,0.2,0.1c-0.2,0-0.3,0-0.4,0.1h0.7c-0.3,0-0.5,0-0.7,0.1
		c0.3,0,0.6-0.1,0.8,0C57.4,34,57.1,34,57.4,34c-0.1,0-0.3,0-0.3,0c0.2,0,0.1,0.1,0.5,0.1c-0.4,0.1,0.1,0.1-0.5,0.2
		c0.2,0,0.5,0,0.5,0c-0.8,0,0,0.1-0.9,0.2c0.7,0,0.3,0.1,0.7,0.2c-0.1,0-0.2,0-0.1,0c-0.1,0-0.3,0.1-0.4,0.1c0.6,0,0.7,0,1.1,0
		c-0.6,0.1-0.7,0-1.2,0.1c0.5,0,0.5,0,0.9,0c-0.3,0.1-0.2,0-0.6,0.1c0.7,0,0.1,0,0.6,0c-0.4,0.1-0.7,0-0.5,0.1c-0.2,0-0.5,0-0.5,0
		c0,0.1,0.5,0,0.9,0C57.5,35,57,35,56.7,35c0.2,0,0.7,0,0.6,0.1c-0.1,0-0.1,0-0.2,0c0.4,0,0,0.1,0.6,0.2c0,0-0.1,0-0.1,0
		c0.3,0,0.6,0,0.8,0c0,0,0.4,0,0,0.1c0,0-0.1,0-0.2,0l0.2,0c-0.5,0-0.2,0-0.6,0c0.2,0,0.6,0.1,0.5,0.1c-0.5,0-0.2-0.1-0.6,0l0.2-0.1
		c-0.8,0.1,0,0-0.8,0c-0.1,0.1,0.3,0.1,0.1,0.2c0.3,0,0.4,0,0.7,0c0.5,0.1-1.3,0.2-0.6,0.2c0.3,0,1,0,0.7,0.1h-0.6
		c0,0.1,0.8,0,0.5,0.1c-0.2,0-0.2-0.1-0.3,0c-0.5,0.1,0.3,0,0.3,0.1l-0.5,0c0.1,0.1,0.5,0.2,0.5,0.3c-0.2,0-0.3,0-0.5,0
		c0.3,0.1-0.1,0.3-0.4,0.4l0.4,0c0,0-0.2,0-0.3,0c-0.2,0,0.3,0,0.5,0c0,0-0.2,0-0.4,0c0.4,0.1,0.8,0.2,0.3,0.3l-0.1,0
		c-0.2,0.1,0.9,0.1,0.5,0.1l-0.1,0c-0.2,0.2,0.2,0.3-0.5,0.4c0.6,0-0.3,0.2,0.6,0.2c-0.4,0.1-0.6,0.1-0.9,0.2c0,0,0.5,0,0.6,0.1
		h-0.5l0.5,0l-0.5,0l0.1,0c0,0,0.2,0,0.3,0c0.2,0.1-0.3,0.1-0.6,0.1l0.4,0.1c-0.1,0-0.2,0-0.3,0c0.1,0-0.5,0-0.2,0.1
		c0.1,0,0.3,0,0.4,0c-0.3,0-0.3,0.1-0.2,0.2l-0.3,0C56.8,38.8,57,38.9,57,39c0.2,0,0.7,0,0.8,0l-0.5,0c0.3,0,0.2,0,0.5,0
		c-0.1,0-0.6,0-0.7,0l0.2,0c-0.2,0-0.2,0-0.4,0c0.3,0-0.5,0.1,0,0.1h-0.2c0,0.1,0.2,0.2,0.2,0.3c0.4,0,0.3,0,0.7,0.1
		c-0.1,0.1-0.5,0.1-0.4,0.2c0.2,0.1,0.4,0,0.6,0c-0.4,0-0.3,0.1-0.6,0c0.1,0.1,0.1,0.1,0.4,0.3c0.2,0,0.2,0,0.4,0c0.1,0-0.2,0-0.3,0
		l0,0c0.6,0.1-1.1,0.3-0.4,0.4l0.4,0.1c-0.1,0-0.3,0-0.5,0c0.6,0.1-0.1,0.2,0.3,0.3c-1.1,0.1,0.1,0.3-0.7,0.4H57c0.3,0-0.2,0-0.2,0
		c0.2,0,0.2,0,0.4,0c0.3,0.2-0.4,0.5-0.7,0.7c-0.1,0.1,1.4,0.1,0.7,0.2l-0.5,0c0.6,0.2,0,0.4,0.5,0.6c-0.1,0-0.3,0-0.3,0
		c-0.4,0,0,0.1,0.3,0.2c0,0-0.3,0-0.4,0c-0.2,0,0.5,0.1,0.1,0.1c-0.1,0-0.1,0-0.1,0c0.2,0,0,0.1,0.4,0.1c-0.2,0.1,0.2,0.1-0.1,0.2
		c0.5,0-0.2,0.1,0.4,0.1c-0.7,0-0.5,0.1-0.2,0.2c-0.2,0-0.2,0-0.5,0c0,0,0.1,0.1,0.5,0.1c-0.8,0.1,0.7,0.2-0.4,0.2
		c0.4,0.1,0.6,0.3,0.8,0.4c-0.7,0-0.1-0.1-0.8-0.2c0.3,0.1,0.8,0.2,0.7,0.3c-0.1,0-0.3,0-0.4,0c0.3,0.1-0.1,0.2,0.3,0.4
		c-0.1,0-0.1,0-0.2,0c0,0-0.1,0.1,0.2,0.1l-0.1,0c0.5,0,0.9,0.1,1.2,0.1c-0.9-0.1-0.2,0.1-1.3,0c0.1,0,0.2,0,0.4,0
		c-0.1,0-0.2,0-0.4,0c0.2,0.1,0.5,0.1,0.5,0.1c-0.1,0-0.2,0-0.4,0c0.3,0,0.6,0.1,0.5,0.1c-0.1,0-0.2,0-0.2,0c0,0.1,0.8,0.2,0.5,0.3
		c-0.7-0.1-0.2,0-0.8,0l0.2,0.1l0.3,0c0,0.1,0.4,0.1,0.2,0.2l-0.2,0l0.1,0.1l0.2,0c0.3,0.1,0.7,0,0.5,0.1c-0.1,0,0,0-0.3,0.1
		c0.2,0,0.4,0.1,0.2,0.1c-0.2,0-0.6,0-0.7,0c0.5,0,0.1,0.1,0.6,0.2c-0.1,0-0.4,0-0.5,0l0.4,0c-0.1,0-0.2,0-0.4,0
		c-0.1,0.1,0.7,0,0.4,0.1c0,0-0.1,0-0.1,0c-0.2,0.1,0.2,0.2,0,0.2c-0.6,0-0.1-0.1-0.6-0.1c0.1,0.1,0.7,0.3,0.5,0.4l0.1,0
		c0.8,0-0.4,0.1,0,0.1c-0.1,0-0.4,0-0.3,0c-0.1,0.1,0.2,0.2,0.4,0.3l-0.2,0c-0.2,0-0.1,0.1-0.2,0.2c0.2,0,0.2,0,0.5,0
		c-1.2,0.1,0.6,0.3-0.4,0.4c0,0-0.2,0-0.2,0l0.2,0.1c0.3,0,0.2,0,0.5,0c0.2,0,0.4,0.1,0.4,0.1c-0.2-0.1-0.6,0-0.8,0
		c0.1,0,0.2,0,0.3,0c-0.6,0,0.7,0,0.3,0.1l-0.2,0c0.1,0,0.3,0.1,0.3,0.1c-0.4,0-0.2,0-0.5,0c0,0,0.8,0.1,0.4,0.1
		c-0.1,0-0.1-0.1-0.2-0.1c-0.5,0-0.4,0-0.4,0.1h0l-0.2,0.1l0.1,0c0.7,0.1,0.6,0.1,0.6,0.1c0,0,0,0,0,0c0,0,0,0,0,0
		c-0.3,0-0.2,0-0.6,0c-0.1,0-0.3,0-0.4,0c0.4,0.1-0.3,0.1,0.2,0.1c-0.2,0,0,0-0.4,0c0.1,0,0.2,0,0.4,0c0.5,0.1-0.6,0.2,0.1,0.3
		c0,0,0.1,0,0.2,0c-0.1,0.1-0.1,0.1-0.1,0.2L57.7,49c0,0-0.1,0.1-0.1,0.1c-0.1,0-0.2,0-0.2,0.1l0.1,0c0,0,0,0,0,0c0,0,0,0,0,0l0,0
		c-0.3,0.3-0.5,0.8-0.8,1.2c0.2-0.1,0.7,0.3,0.6,0.5l-0.4-0.2c0.2,0.3,0.2,0,0.4,0.4c-0.2,0.1-0.5-0.2-0.6-0.4l0,0.3
		c-0.1-0.1-0.2-0.2-0.3-0.3c0.2,0.3-0.7,0.1-0.3,0.5L55.9,51c-0.3,0.5-0.3,0.8-0.5,1.3c0.4,0.2,0.2,0.3,0.5,0.6
		c-0.2,0.2-0.7,0.5-0.8,0.9c0.1,0.4,0.3,0.2,0.5,0.4c-0.4-0.1-0.5,0.3-0.7,0c-0.1,0.5-0.1,0.7,0.1,1.4c0.2-0.1,0.2-0.1,0.4-0.1
		c0,0.1-0.2,0.3-0.4,0.2l0,0c0.3,0.4,0,0.8-0.2,1.4c-0.2,0.5-0.2,1.2,0.4,1.3l-0.1,0c0.2,0.2,0.5,0.3,0.8,0.4c0,0.1,0,0.1,0,0.2l0,0
		c-0.4-0.2-0.4-0.1-0.3,0.1c0,0,0,0,0,0c0,0,0,0.1,0,0.1c0,0,0,0,0.1,0c0,0.1,0.1,0.2,0,0.3l-0.4-0.4c0.1,0.1,0.2,0.3,0.3,0.5
		c-0.2-0.1-0.4-0.3-0.5-0.4c-0.3-0.1,0.1,0.2-0.2,0.1c0,0-0.1,0-0.1-0.1l0,0.2c-0.1-0.1-0.3-0.3-0.2-0.3c-0.4-0.1,0.1,0.6-0.3,0.3
		l0,0c-0.1,0.3,0.3,0.4,0.4,0.9c-0.3-0.3-0.5-0.5-0.8-0.8l0.2,0.4c0,0-0.1,0-0.2-0.1c0.1,0.3,0.1,0.1,0.2,0.4
		c-0.3-0.2-0.3,0.4-0.7-0.2c0.1,0.3,0.3,0.2,0.2,0.5c-0.4-0.7-0.1,0.2-0.4,0c-0.1-0.4,0.1-0.2-0.2-0.5c0.2,0.7-0.3,0-0.3,0.1
		c0.2,0.5-0.2,0.3-0.3,0.5c0-0.2-0.4-0.2-0.6-0.4l0-0.1c0.1,0.5-0.1,0.5-0.3,0.6c0-0.3,0-0.5,0-0.6l-0.1,0c0,0.2,0,0.3-0.1,0.3
		l0-0.4c-0.1,0-0.3,0.5-0.5,0.2c-0.1,0.4,0.1,1.1-0.2,1.3c0-0.2,0-0.6,0.1-0.6c0,0-0.1,0.2-0.1,0.1l0.1-0.3
		c-0.1-0.2-0.1,0.3-0.2,0.2c0-0.3,0-0.2,0-0.5c0,0,0,0.1,0.1,0c-0.1-0.1-0.2-0.3-0.1-0.5c0,0.2-0.1,0.4-0.1,0.4c-0.2,0,0-0.4,0-0.5
		c-0.1,0.2-0.1,0-0.2,0.4c0,0,0-0.2,0-0.3c-0.1,0.2-0.3-0.1-0.4,0.4l0,0c0,0,0,0,0,0c-0.4,0.3-0.4-0.4-0.7-0.4l0.1-0.1
		c-0.2,0.1-0.3-0.1-0.6,0.1c0,0,0.1-0.3,0.2-0.4c-0.2,0-0.3,0.1-0.3-0.2c0.3-0.1,0.1-0.2,0.2-0.1c0-0.2,0.1-0.4-0.3-0.2
		c0.3-0.2,0.3-0.4,0.1-0.4l-0.1,0.3c-0.1,0-0.1-0.1-0.1-0.2l0.4-0.3c0.1-0.3-0.1-0.2-0.4-0.2c-0.2,0-0.5,0,0-0.3
		c-0.3,0.1-0.2,0.2-0.5,0.4c0-0.1,0.1-0.2,0.2-0.3c0.2-0.1,0.4-0.2,0.4-0.3c0.2-0.2-0.7,0.2-0.6,0c-0.2,0-0.6,0.2-0.8,0.1
		C47,57.6,47.7,57.5,47.8,57.5z M51.8,31.1L51.8,31.1c0,0,0,0.1,0,0.2C51.8,31.3,51.8,31.2,51.8,31.1C51.8,31.1,51.8,31.1,51.8,31.1
		z M58.2,36.4c-0.1,0-0.2,0-0.3,0c0,0,0,0,0,0C58,36.4,58.2,36.4,58.2,36.4z M34.7,53.3C34.7,53.3,34.7,53.3,34.7,53.3L34.7,53.3
		c0.2-0.1,0.7,0.2,0.9-0.1C35.3,53.4,35.1,53,34.7,53.3l0.5-0.5c0.3-0.1,0.2,0.1,0.4,0.1c0.1-0.3,0.4-0.1,0.6-0.4
		c-0.3,0-0.5-0.1-0.3-0.3l-0.4,0.3c-0.5-0.4,0.8-0.4,0.3-0.8l0.3,0.1c-0.2-0.2,0-0.8-0.8-1c0.1,0,0.4-0.1,0.4,0
		c0.1-0.5-0.8-1.2-0.3-1.6l0.2,0c-0.1-0.1-0.4-0.2-0.2-0.3c0.1,0,0.2,0.1,0.2,0c-0.1-0.1-0.4-0.3-0.2-0.4l0.2,0.1
		c0.3-0.5-0.6-0.8-0.7-1.3c0.7,0,0.9-0.4,1-0.6l0.1,0c0.1-0.6-0.5-1.1-0.7-1.7c0.7-0.3,0.4-1.2,0.8-1.8c-0.1,0.1-0.5,0-0.6-0.2
		c0.1-0.1-0.4-0.4,0.2-0.3l0,0c0.6-0.1,0.5-0.4,0.5-0.6l-0.8-0.1c1.2-0.5-0.3-1.6,0.7-1.8c-0.2-0.2-0.2-0.3-0.4-0.5l0.4,0
		c0.1-0.4,0.2-0.6,0.1-1.1l0.3,0.1c0-0.3-1.2-0.4-1.2-0.6l0.6-0.1c0-0.5,0.6-0.9,0-1.4c0.1,0,0.3,0,0.3,0.1c0-0.2,0.4-0.9-0.4-0.8
		c0.6,0,0.1-0.4-0.2-0.7l0.4,0.1c-0.5-0.2-0.7-0.3-0.8-0.5c0.1-0.1,0.3,0,0.2,0.1c0.2-0.2-0.4-0.2-0.1-0.5l0.2,0.1
		c0.1-0.2-0.1-0.2-0.4-0.4c-0.1-0.2,0.2-0.5,0.6-0.4c-0.2-0.1-0.5-0.3-0.3-0.4c0.1,0,0.2,0.1,0.2,0.1c0.4-0.2-0.3-0.6,0.2-0.7
		c0.1,0,0.2,0.1,0.2,0.1c-0.1,0.2-0.2,0.4-0.2,0.4c0.4,0.1,0.5,0,1,0.3c-0.2-0.2-0.7-0.7-0.5-0.7c0,0,0.1,0,0.1,0l0,0c0,0,0,0,0-0.1
		c0.1,0,0.1,0,0.1,0c0.2,0.1,0.2,0.1,0.2,0.1c0,0,0,0,0,0c-0.3-0.3-0.1-0.3-0.5-0.5c0,0,0,0,0,0.1v0c0,0,0,0,0,0l0,0l0,0v0l0,0l0,0
		l-0.1,0l0.1,0.1c0,0,0,0.1-0.1,0.1c-0.2-0.2-0.2-0.4,0-0.2l-0.1-0.1c-0.1-0.2-0.2-0.4-0.2-0.5c0.5,0.3,0.8,0.5,1,0.9
		c0-0.3,0.2-0.2,0.3-1c0.1-0.1,0.1,0.2,0.2,0.3c-0.1,0.1-0.1,0.1-0.2,0.2c0.2-0.2,0.7-0.1,0.7-0.6c0.3,0.3-0.2,0.5,0.2,0.4l0,0.2
		c0.7,0.9,1.3-1.4,2-0.2c0-0.1-0.1-0.1-0.1-0.2c0.4,0.3,0.9,0.2,1.4,0.2c0.5,0,1,0.1,1.2,0.6c0.2,0.2,0.3-0.1,0.5-0.3l-0.1,0.4
		c0.1-0.1,0.3-0.3,0.4-0.4c0.2-0.1,0.3,0.2,0.3,0.5c0,0.3,0,0.5,0.4,0.3l0.1-0.3c0.1,0.1,0.5,0.2,0.3,0.4c0,0,0.2-0.2,0.2,0
		l-0.2,0.2c0.2,0,0.4,0,0.6,0c0,0.3-0.7,0.6-0.6,0.9c0.1,0,0.5,0,0.8-0.1c0.1,0.1,0.1,0.3,0.2,0.4c-0.2,0-0.2-0.1-0.4-0.2
		c0.5,0.3-0.5,0.1-0.1,0.4c0.1,0,0.3,0,0.4,0c-0.3,0.1-0.3,0.3-0.2,0.5l-0.3,0c-0.1,0.3,0.2,0.6,0.2,1c0.2-0.1,0.7-0.1,0.8,0l-0.5,0
		c0.3,0.1,0.2-0.1,0.5,0c-0.1,0.1-0.6,0.1-0.7,0l0.2,0.2c-0.2,0-0.2,0-0.4,0c0.3,0.1-0.5,0.3,0,0.4l-0.2,0c0,0.3,0.2,0.5,0.2,0.8
		c0.4,0,0.4,0.1,0.6,0.2c0,0,0,0.1,0,0.1c-0.2,0.2-0.4,0.4-0.4,0.6c0.2,0.2,0.4,0.1,0.6,0.2c-0.4,0-0.4,0.3-0.6,0.1
		c0,0.2,0.1,0.3,0.2,0.5c-0.2,0.2-0.1,0.2,0.1,0.1c0,0.1,0.1,0.1,0.1,0.2c0.1,0,0.1,0,0.1,0c0.1,0,0.1,0,0.2,0
		c0.1,0.1-0.2,0.2-0.4,0.1h0c0.6,0.5-1.2,1-0.4,1.4l0,0l0.4,0.4c-0.1,0.2-0.3-0.1-0.5,0c0.6,0.4-0.1,0.6,0.3,1
		c-1.1,0.2,0,0.9-0.7,1.2l0.3,0C45.4,44,45,44,45,44c0.2,0,0.2-0.1,0.4,0c0.3,0.8-0.5,1.5-0.8,2.3c-0.1,0.3,1.4,0.2,0.7,0.6
		l-0.5-0.1c0.6,0.6-0.1,1.2,0.4,1.7c-0.1,0-0.3,0-0.3-0.1c-0.4,0.1,0,0.4,0.2,0.5c0,0.1-0.3,0-0.4,0c-0.2,0.1,0.4,0.3,0.1,0.4
		c-0.1,0-0.1,0-0.1-0.1c0.2,0.1-0.1,0.4,0.3,0.3c0,0,0,0,0,0.1c-0.1,0.1-0.1,0.3,0,0.5c0,0,0,0,0,0c0,0-0.1,0-0.1,0l-0.2,0.1
		c0.1,0,0.2-0.1,0.3-0.1c0,0,0,0,0.1,0c0,0.1,0.1,0.1,0.1,0.2c0,0.1-0.1,0.2,0.1,0.2c0,0,0,0,0,0c-0.3,0-0.4,0.2-0.3,0.3
		c0,0,0,0-0.1,0c0,0,0.1,0,0.1,0c0,0,0.1,0.1,0.2,0.1c-0.2,0-0.2,0.1-0.5,0c0,0,0,0.1,0,0.1c0,0,0,0,0,0c-0.2,0.1,0,0.3,0.2,0.4
		c0,0.1,0.1,0.1,0.2,0.2c0,0,0,0.1,0,0.1c0,0,0,0,0,0c0,0-0.1,0-0.2,0.1c0,0-0.1,0-0.2,0l0.1,0c0,0,0,0-0.1,0c0,0,0,0.1,0.1,0.1
		c-0.1,0.1-0.2,0.3-0.4,0.2c0.1,0.2,0.3,0.2,0.4,0.1c-0.3,0.2-0.2,0.4-0.4,0.7c0.1,0,0.3,0,0.3,0.1c-0.3,0.4,0.2,0.3,0.2,0.7
		c-0.3,0.1-0.6-0.3-0.5,0.1c-0.2,0.2-0.5-0.1-0.6-0.2c0.2,0.4-0.4,0.5-0.5,0.7l-0.1-0.2c0.1,0.1,0,0.2,0,0.3l0.4,0
		c-0.1,0.1-0.1,0.2-0.2,0.1c0.2,0.2,0.6,0.1,0.9,0.3c-0.2,0.1,0.1,0.4-0.4,0.3c0.2-0.3-0.5-0.1-0.5-0.4c0,0.1,0,0.2-0.1,0.2
		c0,0-0.1,0-0.1-0.1c-0.5,0.3,0.5,0.3,0.4,0.7c-0.2-0.1-0.5,0-0.5,0c0-0.1,0.5,0,0.6,0.2c-0.3,0.2,0.1,0.3,0,0.4l0.1-0.1
		c0.2,0.1,0.2,0.2,0.2,0.4c-0.2,0-0.1-0.2-0.2-0.2c0.4,0.3-0.6,0.2-0.4,0.5c-0.2,0-0.5-0.2-0.6-0.1c0.2,0.3-0.4,0.1-0.2,0.3
		c0.3,0.1,0.3,0.1,0.5,0.4c0-0.2,0-0.3-0.1-0.4c0.1,0.1,0.2,0.3,0.4,0.5c0.1-0.1-0.1-0.3,0-0.4c0.2,0.2,0.1,0.2,0.4,0.2
		c-0.5-0.1,0.1,0.5-0.3,0.5l-0.8-0.5c-0.2,0-0.2,0.1-0.1,0.3c0,0.2,0.1,0.4-0.1,0.4l0.2,0c0.2,0.3-0.1,0.2-0.1,0.3
		c-0.2-0.2-0.3-0.3-0.4-0.4c0.1,0.2-0.2,0.1,0.1,0.6l-0.3-0.3c-0.3,0,0,0.9-0.3,1c0-0.3-0.2-0.5-0.1-0.8c-0.1,0-0.2,0-0.1,0.2
		c-0.1-0.2-0.1,0.5-0.3,0.2c0,0.1,0.1,0.4-0.1,0.4c0-0.1,0-0.1,0-0.1c0,0.1-0.1,0.2,0,0.5c-0.3-0.4-0.5-0.4-0.7-0.3
		c-0.2,0-0.4,0.1-0.6-0.3c-0.2,0.1-0.5,0.2-0.7,0.2c0-0.1,0-0.2,0.1-0.1c-0.2-0.3-0.3,0.8-0.6,0.4c0-0.5,0.2-0.2,0.2-0.4
		c0.2-1-0.4,0-0.4-0.6l0.1,0c0-0.3-0.5,0.2-0.7,0c0,0,0-0.1,0.1-0.1c-0.4,0.3-0.8,0.3-1.1,0.2c0.3-0.2,0.2-0.1,0.5-0.4
		c-0.1,0-0.4,0.5-0.6,0.4c0.1-0.2,0.1-0.5,0.4-0.7c0,0,0.1,0.1,0.1,0.1c0.3-0.4-0.2-0.2-0.2-0.3l0.2-0.1c-0.2-0.2-0.8,0.1-0.9-0.2
		l-0.1,0.1c-0.6,0.1,0.2-0.3-0.3-0.3l0.5-0.3c-0.2,0-0.7-0.2-1-0.4c0.5,0,0.8,0.1,1.1,0.1c-0.1-0.1-0.2-0.4-0.5-0.3
		c0.1,0,0.2,0,0.2,0.1c-0.5,0.1-0.8-0.1-0.9-0.3c1.1-0.4,0-0.8,0.8-1.2c-0.3-0.1-0.3-0.4-0.2-0.6c0-0.2,0.2-0.4,0.1-0.7
		c-0.9,0.3,0-0.2-1-0.1C34.6,53.3,34.6,53.3,34.7,53.3z M36.7,32.8c0.1,0.1,0.1,0.1,0.1,0.2c0,0,0,0-0.1,0
		C36.7,32.9,36.7,32.9,36.7,32.8L36.7,32.8z M45.5,56.1C45.5,56.1,45.4,56.1,45.5,56.1c-0.1,0-0.2,0-0.2-0.1
		C45.4,56.1,45.4,56.1,45.5,56.1z M34.2,31.5c0,0,0,0.1-0.1,0.2h0C34.2,31.7,34.2,31.6,34.2,31.5z M34,32.1c0.1,0,0.3,0.1,0.2,0.2
		c-0.1-0.1-0.2,0-0.4,0.1C33.9,32.3,34,32.2,34,32.1z M26.6,33C26.6,32.9,26.7,32.9,26.6,33C26.7,32.9,26.6,32.9,26.6,33L26.6,33z
		 M26.4,33.1c0.1,0.1,0.1,0.3,0.1,0.3c0-0.1-0.2-0.1-0.3-0.2C26.3,33.1,26.3,33.1,26.4,33.1z M23.6,57.5c0.4-0.4-0.4-0.1-0.2-0.4
		l0.8-0.4c0.3-0.3-0.6-0.1-0.5-0.5l-0.1,0.1c-0.3,0.1-0.1-0.1-0.3-0.2c0.3-0.1,0.4-0.2,0.5-0.3c-0.2,0.1,0-0.2-0.6,0l0.3-0.2
		c0.1-0.2-0.9,0-0.8-0.3c0.3,0,0.5-0.1,0.8,0c0-0.1,0-0.1-0.2-0.1c0.2-0.1-0.4-0.1-0.2-0.2c0.1,0,0.1,0,0,0.1c0,0,0.1,0,0-0.1
		c0,0,0,0,0,0c-0.1,0-0.4,0-0.4-0.1c0.1,0,0.2,0,0.2,0c-0.1,0-0.2-0.1-0.5,0c0.9-0.3-0.1-0.7,0.6-0.9l0,0l0.1-0.1c0,0,0,0-0.1,0
		c-0.1-0.2-0.2-0.4-0.2-0.5c0.1,0,0.2,0,0.1,0c0.3-0.2-0.9-0.1-0.5-0.4c0.5-0.1,0.3,0.1,0.4,0.1c1,0-0.1-0.3,0.5-0.5l0.1,0
		c0.3-0.1-0.3-0.3-0.3-0.5c0,0,0.1,0,0.2,0c-0.5-0.2-0.6-0.5-0.8-0.7c0.4,0.1,0.2,0.1,0.6,0.1c0-0.1-0.6,0-0.7-0.2
		c0.2,0,0.4-0.2,0.8-0.1l0,0.2c0.5,0,0-0.2,0.1-0.3l0.2,0c-0.1-0.3-0.6-0.3-0.6-0.6l-0.2,0c-0.6-0.2,0.3-0.1-0.1-0.3l0.6,0
		c-0.1-0.1-0.5-0.4-0.6-0.6c0.4,0.2,0.6,0.4,0.9,0.6c0-0.1,0-0.4-0.3-0.4c0,0,0.2,0.1,0.1,0.1c-0.5-0.2-0.7-0.4-0.6-0.6
		c1.1,0.2,0.3-0.5,1.3-0.6c-0.4-0.4,0.3-0.7,0.3-1.1c-0.9,0,0-0.1-0.9-0.2c0-0.1,0-0.1,0-0.1c0.2,0,0.6,0.3,0.9,0.1
		c-0.4,0.1-0.5-0.3-0.9-0.2l0.6-0.2c0.3,0,0.2,0.1,0.4,0.1c0.1-0.2,0.4,0,0.7-0.1c-0.3,0-0.5-0.1-0.3-0.2l-0.4,0.1
		c-0.4-0.4,0.8-0.1,0.4-0.5l0.3,0.1c-0.2-0.2,0.1-0.6-0.6-0.8c0.1,0,0.4,0,0.4,0.1c0.2-0.4-0.6-1-0.1-1.2l0.2,0.1
		c-0.1-0.1-0.4-0.2-0.2-0.2c0.1,0,0.2,0.1,0.2,0c-0.1,0-0.3-0.2-0.2-0.3l0.2,0.1c0.4-0.3-0.5-0.7-0.6-1c0.6,0.1,0.9-0.1,1-0.2l0.1,0
		c0.2-0.4-0.4-0.8-0.5-1.2c0.8-0.1,0.5-0.8,1-1.1c-0.1,0-0.5-0.1-0.5-0.2c0.1-0.1-0.4-0.3,0.2-0.2l0,0c0.6,0,0.5-0.2,0.5-0.3
		l-0.8-0.2c1.2-0.1-0.2-1.1,0.8-1.1c-0.2-0.1-0.1-0.2-0.3-0.4l0.4,0.1c0.2-0.2,0.2-0.3,0.2-0.6l0.3,0.1c0.1-0.2-1.1-0.5-1.1-0.7
		l0.6,0.1c0.1-0.3,0.7-0.3,0.2-0.8c0.1,0,0.2,0.1,0.3,0.2c0,0,0.2-0.1,0.2-0.2c0-0.1,0-0.2-0.5-0.3c0.5,0.2,0.1-0.2,0-0.4l0.3,0.2
		c-0.4-0.4-0.5-0.5-0.5-0.7c0.1,0,0.3,0.2,0.2,0.2c0,0,0.1,0,0.1,0c0,0-0.2-0.3,0-0.3l0.1,0.2c0.1-0.1,0-0.2-0.1-0.4
		c0-0.2,0.3-0.1,0.5,0.2c-0.1-0.2-0.2-0.5-0.1-0.5c0.1,0.1,0.1,0.2,0.1,0.2c0.3,0.1,0.1-0.6,0.4-0.3c0.1,0.1,0.1,0.2,0.1,0.2
		c-0.2,0.1-0.3,0.1-0.3,0.1c0.2,0.3,0.3,0.3,0.5,0.9c-0.1-0.3-0.2-0.9,0-0.8c0,0,0,0.1,0.1,0.1v0c0,0,0.1,0,0.1-0.1
		c0.1,0,0.1,0.1,0.1,0.1c0,0,0,0,0.1-0.1l0-0.1c0,0.1,0,0.2,0,0.2c0,0,0,0,0,0c0.1,0.1,0.2,0,0.2,0c-0.1-0.4,0-0.4-0.2-0.7
		c0,0,0,0.1,0,0.1c0,0,0,0,0,0l0,0l0,0c0,0,0,0,0,0c0,0,0-0.1,0-0.1l0,0.1c0,0-0.1,0-0.1,0.1c0-0.2,0-0.4,0.1-0.2
		c0-0.3-0.1-0.5-0.1-0.7c0.3,0.5,0.5,0.8,0.6,1.1c0.2-0.3,0.4-0.2,0.5-1c0-0.1,0.1,0.2,0.1,0.4c0,0.1-0.1,0.1-0.1,0.2
		c0-0.2,0.4-0.1,0.4-0.6c0.2,0.2-0.1,0.5,0.1,0.4l0,0.2c0.2,0.4,0.4,0.1,0.6-0.2c0.2-0.3,0.5-0.5,0.6,0.1c0-0.1,0-0.1,0-0.2
		c0.2,0.3,0.5,0.3,0.8,0.3c0.3,0,0.6,0.2,0.5,0.6c0,0.2,0.2,0,0.5-0.1L32,35.7c0.2-0.1,0.3-0.2,0.5-0.2c0.2,0,0.1,0.2-0.1,0.5
		c-0.1,0.2-0.3,0.4,0.1,0.3l0.2-0.2c0,0.1,0.3,0.2,0,0.4c0,0,0.3-0.1,0.2,0l-0.2,0.1c0.1,0,0.2,0,0.3,0.1c0,0.1,0,0.1,0,0.2
		c-0.3,0.1-0.7,0.2-0.6,0.4c0.1,0,0.4,0.1,0.6,0.1c0,0.4-0.1,0.7-0.4,1c0.6,0.1-0.3,0.6,0.6,0.7c-0.5,0.4-0.6,0.2-0.9,0.8
		c0,0.1,0.5,0.2,0.6,0.4l-0.5,0l0.5,0.3l-0.6,0.1l0.1,0.2c0-0.1,0.2-0.1,0.4-0.1c0.2,0.3-0.4,0.6-0.6,0.6l0.4,0.6
		c-0.2,0-0.2-0.1-0.4-0.2c0.5,0.4-0.5,0-0.1,0.4c0.1,0,0.3,0,0.4,0c-0.3,0.1-0.3,0.5-0.2,0.7L32,42.7c-0.1,0.5,0.1,1,0.1,1.5
		c0.2-0.2,0.7-0.1,0.8,0l-0.5,0c0.3,0.1,0.2-0.2,0.5,0.1c-0.1,0.2-0.6,0.1-0.7,0l0.2,0.2c-0.2,0-0.2,0-0.4-0.1
		c0.3,0.1-0.5,0.4,0,0.5l-0.1,0c0,0.5,0.1,0.8,0.1,1.2c0.4,0,0.3,0.2,0.7,0.3c-0.2,0.3-0.5,0.6-0.5,1c0.2,0.3,0.3,0.1,0.6,0.2
		c-0.4,0-0.4,0.4-0.6,0.2c0,0.5,0.1,0.6,0.4,1.2c0.2-0.1,0.2-0.1,0.4-0.1c0.1,0.1-0.2,0.2-0.3,0.2l0,0c0.6,0.7-1.1,1.5-0.3,2l0,0
		l0.4,0.5c-0.1,0.2-0.3-0.1-0.5,0c0.7,0.6-0.1,0.9,0.4,1.4c-0.5,0.2-0.5,0.5-0.4,1c0.1,0.4,0.3,0.8,0,1.2l0.2-0.1
		c0.3,0.1-0.1,0.2-0.1,0.3c0.2-0.1,0.2-0.2,0.4-0.2c0,0.1,0.1,0.1,0.1,0.2c0,0,0,0-0.1,0l0,0c0,0.1,0.1,0.1,0.2,0.2
		c0,0.1,0.1,0.2,0.1,0.2l-0.4,0l0.5,0v0c0,0-0.1,0.1-0.2,0.1c0.2,0.1,0.2,0.1,0.3,0.1c0,0.1,0,0.1,0.1,0.2c0,0.1,0.1,0.3-0.4,0.3
		c0.3,0.1,0.3-0.1,0.5,0.1c0,0,0,0,0,0c-0.7,0,0.1,0.2-0.2,0.3c-0.4-0.1-0.2-0.2-0.5-0.1c0.6,0.2-0.1,0.2-0.1,0.3c0,0,0,0,0,0
		c-0.1,0-0.2,0-0.3-0.1c0,0,0.3,0.1,0.5,0.2c0.2,0.1,0,0.2,0.1,0.4c-0.2-0.1-0.4,0.1-0.7,0l-0.1-0.1c0.4,0.4,0.2,0.4,0.2,0.6
		c-0.2-0.2-0.3-0.4-0.3-0.5l-0.1,0c0.1,0.2,0.1,0.2,0.1,0.3L31.3,58c0,0.1,0,0.6-0.2,0.4c0.2,0.3,0.7,0.8,0.6,1.2
		c-0.1-0.2-0.3-0.5-0.3-0.6c0,0,0,0.2-0.1,0.1l-0.1-0.3c-0.2-0.1,0.1,0.3,0,0.3c-0.1-0.3-0.1-0.2-0.2-0.4c0,0,0.1,0.1,0.1,0
		c-0.1,0-0.3-0.1-0.4-0.3c0.1,0.2,0.2,0.4,0.1,0.4c-0.1,0.1-0.2-0.3-0.3-0.4c0,0.2-0.1,0,0,0.5c0,0-0.1-0.2-0.2-0.3
		c0,0.2-0.3,0.2-0.1,0.6l0,0c0,0,0,0,0,0c0,0,0,0,0,0c-0.2,0.5-0.6-0.1-0.8,0.1l0-0.2c-0.1,0.2-0.3,0.1-0.5,0.5c0,0-0.1-0.3-0.1-0.4
		c-0.1,0.1-0.1,0.3-0.3,0c0.1-0.3,0-0.2,0.1-0.2c-0.2-0.1-0.2-0.4-0.4,0c0.1-0.4-0.1-0.5-0.2-0.4l0.1,0.3c-0.1,0-0.2,0-0.2,0
		l0.1-0.5c-0.3-0.6-0.7,1-0.8-0.1c-0.2,0.3,0.2,0.3,0,0.7c-0.2-0.1-0.3-0.8-0.3-0.8c-0.2-0.3-0.3,0.7-0.5,0.5c0,0.2,0,0.7-0.2,0.8
		c-0.2-0.1-0.1-0.8,0-0.9c0,0,0,0,0,0.1c0.1-0.1,0.1-0.1,0.1-0.3l0,0.2C26.2,58.3,26,58.3,26,58c-0.1,0.2-0.1,0.3,0,0.4
		c-0.2-0.3-0.3,0-0.4-0.2c0,0.1,0,0.3,0,0.3c-0.2-0.3-0.2,0.3-0.4,0.3c0-0.3,0.2-0.6,0-0.4c0-0.2,0.1-0.5,0.2-0.6
		c-0.2,0.3-0.1-0.3,0-0.3l0.1-0.1c0,0.1-0.1,0.1-0.1,0.1l-0.2,0.3c0-0.1,0-0.1,0.1-0.2c-0.1,0.2-0.3,0.5-0.5,0.8
		c0-0.1-0.1-0.1-0.1-0.1v0c0,0,0-0.1,0.1-0.2c0,0.2,0.3-0.4,0.4-0.4c0,0-0.1,0,0,0c0,0,0.1-0.1,0.1-0.1c0.2-0.4-0.4,0.4-0.5,0.3
		c0.2-0.2,0.3-0.4,0.3-0.4c0,0-0.3,0.3-0.5,0.4c0.1-0.2-0.2,0-0.2,0l0,0.1c-0.2,0.2-0.2,0.1-0.4,0.1c0.2-0.1,0.2,0,0.2-0.1
		c-0.4,0.2,0.2-0.5-0.1-0.4c0.1-0.2,0.4-0.3,0.5-0.4c-0.4,0.1,0.2-0.3-0.1-0.3c-0.3,0.2-0.2,0.2-0.6,0.2c0.1,0,0.2,0.1,0.3,0.1
		c-0.2,0-0.3,0.1-0.5,0.1c0,0.1,0.3,0,0.3,0.1C23.7,57.4,23.8,57.3,23.6,57.5z M32.2,57.5c0,0-0.1,0-0.1-0.1
		C32.2,57.5,32.2,57.5,32.2,57.5z M30.2,59.1C30.2,59.1,30.2,59.1,30.2,59.1L30.2,59.1C30.2,59.1,30.2,59.1,30.2,59.1z M24,60.3
		C24,60.4,24,60.4,24,60.3c-0.1,0-0.1,0-0.1-0.1C23.9,60.2,24,60.3,24,60.3z M38.1,94.7c0.1,0,0.1,0,0.1,0.1
		C38.2,94.8,38.2,94.8,38.1,94.7z M77.2,73.5c0-0.1,0.1-0.2,0.1-0.4c0.2,0,0.3,0,0.3,0.1C77.4,73.2,77.3,73.4,77.2,73.5z M78.5,66.1
		c0-0.1-0.1-0.1-0.2-0.2L78.5,66.1c-0.6,0.2-0.3-0.3-0.7-0.3c0.2,0.4,0.6,0.9,0.4,1.2c-0.5,0-0.1-0.7-0.6-0.3l0.2-0.5
		c-0.8,0.3,0.1-0.3-0.8,0c-0.2,0.6,0.2,0.7,0,1.3c0.3,0.2,0.4,0,0.7,0.1c0.4,0.9-1.3,0.6-0.7,1.2c0.3,0.2,1,0.3,0.6,0.7l-0.6-0.2
		c-0.1,0.6,0.8,0.4,0.3,1c-0.2-0.1-0.1-0.5-0.2-0.4c-0.5,0.3,0.3,0.3,0.2,0.6h-0.5c0,0.6,0.3,1.4,0.2,2.1c-0.1-0.1-0.3-0.2-0.5-0.1
		c0.1,0.9-0.4,1.8-0.9,2.6l0.4,0.4c0,0.1-0.2,0.1-0.3,0c-0.2,0.3,0.3,0.1,0.4,0.3c0,0.2-0.3,0.2-0.4,0c0.2,0.6,0.4,1.8-0.2,2.2
		L75.6,78c-0.3,0.4,0.7,0.8,0.2,1.1l-0.1-0.1c-0.5,0.9-0.5,2.1-1.5,2.5c0.5,0.4-0.7,0.7,0.1,1.2c-0.7,0.3-0.7,0.1-1.4,0.6
		c-0.2,0.1,0.3,0.5,0.2,0.8l-0.4-0.3c0.1,0.2,0.1,0.4,0.2,0.6l-0.6-0.2l0,0.3c0.1-0.1,0.3,0,0.4,0.1c-0.1,0.4-0.8,0.5-1,0.4
		c-0.1,0.3-0.2,0.6-0.3,0.9c-0.1-0.1-0.1-0.3-0.1-0.5c0,0.7-0.4-0.3-0.4,0.3c0.1,0,0.2,0.2,0.2,0.3c-0.3,0-0.7,0.3-0.9,0.6l-0.2-0.3
		c-0.5,0.4-0.9,1-1.5,1.5c0.3,0,0.6,0.4,0.4,0.6l-0.4-0.3c0.1,0.3,0.3,0,0.3,0.5c-0.3,0.1-0.5-0.3-0.4-0.6l-0.2,0.3
		c-0.1-0.1-0.1-0.2-0.2-0.4c0.1,0.3-0.8-0.1-0.6,0.5l-0.1-0.1c-0.6,0.4-0.8,0.7-1.3,1c0.2,0.4-0.1,0.4-0.1,0.8
		c-0.5,0.1-1.1,0-1.5,0.3c-0.3,0.3,0,0.4,0,0.7c-0.2-0.3-0.7-0.1-0.5-0.5c-0.6,0.3-0.7,0.4-1.4,1c0.1,0.1,0.3,0.1,0.2,0.3
		c-0.1,0.1-0.4,0-0.4-0.2l0-0.1C61.7,92.3,60,91,59.5,92l0,0c-0.2,0.2-0.4,0.4-0.7,0.6c-0.4,0,0.2-0.3-0.2-0.5
		c-0.7,0.8-1.3,0.2-1.9,0.7c-0.7-1-1.9,0.4-2.7-0.3l0.1,0.3c-0.2,0.3-0.2-0.1-0.4-0.2c0,0.2,0.2,0.2,0.1,0.4
		c-1.6,0.5-3.4-0.1-5.1-0.3c-0.6,0-0.3,1.4-1.1,0.8l0.2-0.5c-1.2,0.6-2.5,0.1-3.7,0.5c0.1-0.1,0.1-0.3,0.2-0.2
		c-0.2-0.4-0.9-0.1-0.9,0.2c-0.2-0.1,0-0.3-0.1-0.4c-0.2-0.2-0.6,0.4-0.7,0c0-0.1,0.1-0.1,0.1-0.1c-0.2,0.2-0.7-0.1-0.6,0.3
		c-0.3-0.3-0.8,0-1-0.3c-0.3,0.4-0.5-0.4-0.8,0.2c0.3-0.6-0.4-0.7-0.7-0.6c0.2-0.1-0.1-0.3,0.2-0.5c-0.2-0.1-0.5-0.2-0.7,0.1
		c0.1-0.9-1.3-0.1-0.9-1.2c-0.5-0.2-1-0.4-1.4-0.6c-0.4-0.2-0.8-0.4-1.2-0.6c0.5-0.5,0.8,0.6,1.2,0c-0.8-0.3-1.5-0.2-2-0.9
		c-0.1-0.2,0.3-0.1,0.4-0.2c-0.8-0.3-1.1-1.1-1.9-1.4c0.1,0,0.2,0,0.2,0c-0.1-0.1-0.2-0.3-0.4-0.1l0.2,0c-0.2,0.5-1.1,0.3-1.3,0.4
		c0.8-0.4-0.3-0.7,0.7-1.2c-0.1,0-0.3,0-0.4,0.1c0-0.2,0-0.3,0.3-0.3c-0.5-0.3-0.6,0.1-0.9-0.3c0.1-0.1,0.2-0.1,0.4-0.1
		c-0.4,0-0.8,0-0.9-0.3c0.1,0,0.1-0.2,0.2-0.1c-0.5-0.5-1.4-0.4-1.6-1.2c0.6-0.2,0-0.3,0.4-0.7l-0.4-0.2l-0.1,0.3
		c-0.2-0.3-0.7-0.3-0.8-0.6c0.1,0,0.2,0,0.3,0.1c-0.2-0.2-0.3-0.3-0.5-0.5l0,0.4c-0.4-0.1-0.5,0.5-0.7,0c0.1,0-0.2-0.3,0-0.6
		c-0.2,0-0.5-0.1-0.5-0.4c0.1-0.1,0.5-0.3,0.6-0.4c-0.5,0.1-0.6-0.6-1.1-0.6c0.1,0,0.4-0.1,0.4-0.2L27.3,81c0-0.2,0.1-0.3,0.3-0.4
		c-0.2-0.5-0.5,0.5-0.6-0.2c0,0,0.1,0,0.2,0c-0.1-0.6-0.8-0.9-0.8-1.4c0.4-0.4,0.3,0.4,0.7,0c-0.4-0.6-1.3-1.2-1.5-1.9
		c0,0,0,0.1,0,0.2c-0.8,0.2,0.2-0.7-0.3-0.9c0.1,0.1,0.5,0,0.4,0c0-0.5-0.6-0.9-1-1.6l0.2,0c0.1-0.3-0.1-0.8-0.1-1.1
		c-0.2,0-0.2-0.2-0.5,0c0.4-0.6,0.2-1-0.1-1.5c-0.3-0.4-0.6-0.8-0.2-1.4c0,0.1,0.2,0.2,0.2,0.1l-0.3-0.7c-0.3,0.1-0.2,0.1-0.4,0.3
		c-0.2-0.1-0.4-0.3-0.4-0.5c0.3,0.3,0.6-0.1,0.7-0.2c-0.1,0-0.2,0-0.3,0c0.6-0.5-0.7,0-0.4-0.6l0.2,0c-0.1-0.2-0.4-0.4-0.3-0.6
		c0.4-0.1,0.2,0.2,0.5,0.2c0-0.3-0.8-0.6-0.4-0.9c0.1,0.1,0.1,0.3,0.2,0.4c0.5-0.3,0.3-0.4,0.4-0.6l0,0l0.1-0.2l0.1-0.1
		c0,0,0,0,0,0.1l0.1-0.3l-0.1,0.1c-1.1-0.3-0.2-0.8-0.9-1.3c0.6,0.5,0.4,0.1,0.8,0.1c0.1-0.1,0.3-0.3,0.4-0.3
		c-0.4-0.2,0.3-0.4-0.2-0.8c0.2,0,0-0.3,0.4-0.2c-0.1-0.3-0.3,0.1-0.4,0c-0.5-0.5,0.7-1.1,0-1.9c-0.2-0.6-0.7-0.8-0.9-1.4
		c0.3-0.2,0.5,0.2,0.5,0.2c0.3-0.3,0.2-0.5,0.1-0.8c0.1,0.1,0.2,0,0.4,0c0-0.2-0.5-0.2-0.2-0.5c0.1,0.1,0.4,0.2,0.5,0.3
		c0,0,0,0.1,0,0.1c0,0,0,0,0.1,0c0-0.1-0.1-0.1-0.1-0.2c0,0,0,0,0,0c0-0.2-0.1-0.3-0.2-0.5c0.4,0,0.8-0.5,1.1-0.1
		c-0.2,0.6,0.1,0.2,0,0.8c0.1,0,0.2-0.1,0.2-0.1l0-0.3c0.2,0,0.4-0.4,0.5-0.2l-0.2,0.2l0.3-0.1l-0.2-0.2c0.2-0.3,0.1-0.7,0.3-0.5
		c0,0,0.2,0,0.2,0.4c0.1-0.2,0.2-0.3,0.3-0.2c0,0.2-0.1,0.6-0.1,0.7c0.1-0.5,0.4-0.1,0.5-0.6c0,0.1-0.1,0.4-0.1,0.5l0.1-0.4
		c0.1,0.1,0.1,0.2,0,0.4c0.2,0.1,0-0.7,0.2-0.4c0,0,0,0.1-0.1,0.1c0.3,0.2,0.6-0.2,0.8,0c0.1,0.6-0.2,0.1-0.2,0.6
		c0.4-0.1,0.8-0.7,1.2-0.6l-0.1-0.1c0-0.8,0.3,0.4,0.5,0c0,0.1,0,0.5,0,0.4c0.3,0.1,0.5-0.3,0.8-0.6v0.2c0.2,0.1,0.4,0,0.6,0
		c0-0.2,0.1-0.2-0.1-0.5c0.4,0.5,0.6,0.2,0.8-0.1c0.2-0.3,0.2-0.5,0.7-0.3c0,0,0,0.2,0,0.2c0.1-0.1,0.2-0.3,0.3-0.4
		c-0.2-0.2-0.2-0.1-0.4-0.3c-0.1-0.2-0.1-0.4,0-0.4c0,0.3,0.4,0.4,0.6,0.5c-0.1-0.1-0.1-0.2-0.2-0.2c0.6,0.3-0.5-0.5,0-0.4l0.1,0.1
		c0-0.1-0.1-0.3,0-0.4c0.4,0.2,0.1,0.2,0.4,0.4c0.1-0.2-0.5-0.6-0.1-0.6c0.1,0.1,0,0.2,0.1,0.3c0,0,0.1,0,0.1,0
		c0.1,0.3,0.2,0.7,0.3,1c0.2,0.5,1.2-0.6,1.2,0.3c-0.2,0.1-0.3,0.1-0.5,0.2c0.6,0.3,1,0.7,1.5,1c0.5,0.3,1,0.7,1.6,0.6
		c-0.1,0.1-0.2,0.2-0.2,0.2c0.1,0.4,0.8,0.3,0.9,0c0.1,0.1,0,0.3,0,0.4c0.2,0.3,0.7-0.3,0.7,0c0,0.1-0.1,0.1-0.1,0.1
		c0.2-0.1,0.7,0.1,0.6-0.3c0.4,0.2,0.7-0.2,1.1,0.1c0.2-0.5,0.7,0.2,0.7-0.5c0.1,0.7,0.8,0.4,0.9,0.1c0,0.2,0.3,0.1,0.2,0.4
		c0.3-0.1,0.5-0.3,0.3-0.6c0.4,0.3,0.6,0,0.7-0.2c0.2-0.2,0.3-0.4,0.7,0c0.6-0.8,1.1-1.5,1.4-2.2c0.6,0.4-0.5,0.7,0,1.2
		c0.4-0.8,0.1-1.5,0.5-2c0.2-0.1,0.2,0.2,0.3,0.3c0-0.1,0-0.2,0.1-0.3c0,0,0.1,0,0.1,0c0,0-0.1,0-0.1,0c0-0.2,0.1-0.3,0.1-0.4
		c0.2,0,0.4-0.1,0.3,0.1c-0.1,0,0,0.2-0.3,0.4c0.2,0,0.4,0.1,0.3,0.2c-0.2,0.1-0.6,0.2-0.7,0.3c0.2,0,0.3,0.1,0.4,0.1
		c0.1,0.1,0.2,0.2,0.5,0.1c-0.1,0-0.4,0.2-0.4,0.2c0.1,0,0.2-0.1,0.4-0.1c0,0.1-0.1,0.2-0.3,0.3c0.1,0.3,0.5-0.5,0.4,0
		c0,0-0.1,0-0.1,0c0,0.4,0.5,0.3,0.6,0.6c-0.3,0.5-0.3-0.1-0.6,0.3c0.4,0.3,1.1,0.1,1.3,0.5l0-0.1c0.5-0.6,0,0.5,0.4,0.3
		c-0.1,0-0.3,0.3-0.2,0.3c0.2,0.2,0.6,0.2,1.1,0l-0.1,0.2c0.1,0.2,0.4,0.2,0.5,0.4c0.1-0.2,0.2-0.1,0.2-0.4c0.1,0.6,0.5,0.5,0.7,0.4
		c0.3-0.2,0.5-0.4,0.7,0.1c-0.1,0-0.1,0.2-0.1,0.2c0.1,0,0.3-0.1,0.4-0.2c0-0.3-0.1-0.2-0.2-0.5c0-0.2,0.1-0.4,0.2-0.4
		c-0.1,0.2,0,0.6,0.1,0.7c0-0.1,0-0.2,0-0.3c0.3,0.6,0-0.7,0.3-0.3l0,0.2c0.1-0.1,0.1-0.4,0.2-0.3c0.1,0.4-0.1,0.2,0,0.5
		c0.2-0.1,0.1-0.8,0.4-0.5c0,0.1-0.1,0.1-0.2,0.3c0.2,0.4,0.2,0.3,0.4,0.4l0,0c0.1,0,0.2,0.1,0.3,0.1l-0.1-0.1
		c-0.1-1.1,0.3-0.3,0.3-1.1c0,0.7,0.1,0.4,0.3,0.8c0.1,0.1,0.3,0.2,0.3,0.3c0-0.4,0.3,0.1,0.3-0.4c0.1,0.1,0.1-0.1,0.3,0.3
		c0.1-0.2-0.2-0.2-0.2-0.4c0-0.5,0.9,0.2,0.8-0.6c0.1-0.4-0.2-0.8-0.2-1.2c0.2,0.1,0.3,0.4,0.3,0.4c0.3,0.1,0.3-0.1,0.3-0.3
		c0.1,0.1,0.2,0.2,0.3,0.2c0-0.1-0.4-0.4-0.1-0.4c0.1,0.1,0.3,0.3,0.4,0.5c0-0.1,0-0.2-0.1-0.4c0.1,0.1,0.2,0.2,0.3,0.3
		c0.2,0.2,0.4,0.5,0.8,0.5c-0.1,0.6,0.4,0.8,0.8,0.9c0.5,0.1,0.9,0.1,1.1,0.5l0-0.3c0.2-0.2,0.2,0.2,0.2,0.3c0-0.2-0.1-0.3,0-0.4
		c0.2,0,0.3,0,0.5,0H60c0,0,0,0,0,0c0.1,0,0.1,0.1,0.1,0.2c0,0.2-0.1,0.4-0.3,0.5c0.2-0.2,1.7-1.3,1.1-0.7l-0.8,0.5
		c0.4-0.2,0.5-0.3,0.6-0.3c0.1,0,0,0,0.2,0c0.1,0,0.2-0.1,0.6-0.2c-0.3,0.1-0.4,0.2-0.6,0.3c-0.8,0.4,0,0,0.8-0.3c0,0-0.7,0.3-1,0.4
		c-0.6,0.2,1.3-0.5,0.3-0.1c-0.1,0-0.1,0-0.2,0.1c0.1,0,0,0,0.9-0.3c-0.5,0.2,0.7-0.2,0,0.1c1.6-0.4-0.6,0.2,1.6-0.3
		c-2.3,0.6-1.8,0.5-0.6,0.4C62,61.6,62,61.6,61,61.8c0,0,0.5,0,1.8-0.2c-1.5,0.3-0.9,0.2-0.4,0.2c0.5,0,0.9,0.1-1,0.1
		c1.3,0,2,0.3,2.3,0.5c-2.2-0.2,0-0.2-2.4-0.4c0.9,0.1,2.6,0.5,1.8,0.5c-0.3,0-0.8-0.2-1.2-0.2c0.3,0.1,0.2,0.1,0.1,0.1
		c-0.1,0-0.1,0,0.2,0.1c-0.1,0-0.3-0.1-0.4-0.1c0,0-0.3-0.1,0.4,0.1l-0.2-0.1c1.2,0.3,2,0.6,2.4,0.7c-1.9-0.5-0.8-0.1-3-0.8
		c0.2,0.1,0.5,0.1,0.8,0.3c-0.2,0-0.4-0.1-0.9-0.3c0.2,0.1,0.9,0.3,0.8,0.3c-0.2-0.1-0.4-0.1-0.7-0.2c0.5,0.2,0.9,0.4,0.6,0.3
		c-0.1-0.1-0.4-0.1-0.3-0.1c0,0,0.2,0.2,0.3,0.3c0.1,0.1,0.1,0.2-0.2,0.2c-0.7-0.5-0.4-0.1-1-0.6c0,0,0.1,0.1,0.1,0.1l0.3,0.2
		c-0.1,0,0.2,0.4-0.1,0.2c0-0.1-0.1-0.1-0.1-0.2c0,0-0.1,0.1-0.1,0.1c0.1,0.1,0.2,0.1,0.3,0.1c0.1,0.3,0.6,0.6,0.2,0.5
		c0-0.1-0.2,0-0.5-0.2c0,0.2,0,0.4-0.2,0.3c-0.1-0.1-0.2-0.6-0.3-0.7c0.1,0.2,0,0.3-0.1,0.3c-0.1,0.1-0.2,0.1-0.2,0.4
		c0-0.1-0.1-0.4-0.1-0.5l0,0.4c-0.1-0.1-0.2-0.1-0.2-0.4c-0.3,0,0.3,0.6-0.1,0.5c0,0,0-0.1,0-0.2c-0.4,0-0.6,0.5-1,0.4
		c-0.3-0.5,0.2-0.2,0-0.6c-0.5,0.3-0.7,1-1.2,1.1l0.1,0c0.3,0.7-0.5-0.2-0.5,0.2c0-0.1-0.1-0.4-0.1-0.3c-0.3,0-0.5,0.5-0.8,1
		l-0.1-0.2c-0.3-0.1-0.5,0.2-0.7,0.2c0,0.2-0.1,0.2,0.2,0.5c-1.2-0.6-0.7,1.2-1.7,0.8c0,0,0-0.2,0-0.2L53.5,67
		c0.2,0.2,0.2,0.1,0.4,0.3c0.1,0.2,0.1,0.4,0,0.5c0-0.3-0.3-0.4-0.5-0.5c0.1,0.1,0.1,0.2,0.2,0.3C53,67.1,54,68,53.5,67.9l-0.1-0.1
		c0,0.2,0,0.4-0.1,0.5C53,68,53.2,68,53,67.7c-0.1,0.2,0.2,0.8-0.2,0.6c0-0.1,0.1-0.2,0.1-0.4c-0.5-0.2-0.4-0.1-0.6-0.1h0
		c0,0-0.1,0-0.1,0l-0.1,0c0,0,0.1,0,0.1,0c-0.1,0-0.2,0-0.2,0l0.1,0c0.5,0.9-0.2,0.5,0,1.2c-0.2-0.7-0.2-0.3-0.5-0.6
		c-0.1,0-0.3,0-0.4-0.1c0.2,0.4-0.4,0-0.2,0.5c-0.1-0.1-0.1,0.1-0.4-0.1c0,0.2,0.2,0.1,0.4,0.3c0.2,0.6-1,0.2-0.7,1
		c0,0.5,0.3,0.8,0.3,1.3c-0.3,0-0.4-0.4-0.4-0.4c-0.3,0-0.3,0.2-0.3,0.4c-0.1-0.1-0.2-0.1-0.4-0.2c0,0.2,0.4,0.4,0.1,0.4
		c-0.1-0.1-0.3-0.3-0.4-0.4c0,0.2,0.1,0.5,0.2,0.8c-0.2-0.1-0.3-0.3-0.4-0.4c0,0.2-0.1,0.6,0.2,0.8l0.2,0c0,0.1-0.3-0.1-0.3-0.2
		c-0.2-0.3,0.3-0.1,0.4-0.1l0,0.2c0.8,0.3,0.2-0.5,0.4-0.7l0.5,0.4L50,71.5c0.2,0,0.5,0.2,0.5,0.4c0.4,0-0.1-0.3,0.3-0.2
		c0,0,0.1,0,0.1,0.1l0-0.2c0.1,0.1,0.4,0.2,0.2,0.3c0.5,0-0.1-0.7,0.4-0.5l0,0c0.1-0.5-0.3-0.3-0.6-0.9l1,0.5l-0.3-0.3
		c0,0,0.1-0.1,0.3,0.1c-0.1-0.3-0.2-0.1-0.3-0.4c0.5,0.1,0.2-0.6,0.8-0.1c-0.2-0.3-0.3,0-0.4-0.4c0.6,0.5,0.1-0.3,0.5-0.2
		c0.2,0.3,0,0.3,0.4,0.4c-0.4-0.6,0.4-0.2,0.4-0.4c-0.1-0.1-0.1-0.2-0.1-0.3c0.1,0.1,0.1,0.2,0.1,0.3c0.1,0.1,0.1,0.1,0.2,0.2
		c0,0-0.2-0.3-0.4-0.5c0-0.2,0.3-0.2,0.3-0.5c0.1,0.2,0.6-0.1,0.9-0.1l0,0.1c-0.3-0.5,0-0.5,0-0.8c0.2,0.3,0.2,0.4,0.3,0.6l0.1-0.1
		c-0.1-0.2-0.1-0.3,0-0.4l0.2,0.4c0.2-0.2,0.1-0.7,0.5-0.6c-0.2-0.3-0.8-0.7-0.7-1.1c0.1,0.2,0.3,0.5,0.3,0.6c0,0,0-0.2,0.1-0.2
		l0.1,0.4c0.2,0-0.1-0.3,0-0.3c0.2,0.2,0.2,0.1,0.3,0.3c0,0-0.2,0-0.1,0.1c0.1,0,0.4,0,0.5,0.2c-0.1-0.1-0.2-0.3-0.2-0.4
		c0.2-0.2,0.3,0.2,0.5,0.3c-0.1-0.2,0.2-0.1-0.1-0.5c0.1,0,0.2,0.1,0.3,0.2c0-0.2,0.5-0.3,0.1-0.7l0,0c0,0,0,0,0,0c0,0,0,0,0,0l0,0
		c0,0,0,0,0,0c0.1-0.6,0.9-0.2,1.1-0.5l0.1,0.1c0.1-0.3,0.4-0.3,0.5-0.7c0.1,0,0.3,0.2,0.3,0.4c0.1-0.2,0.1-0.3,0.4-0.2
		c-0.1,0.3,0.2,0.2-0.1,0.2c0.3,0,0.4,0.2,0.5-0.2c0.1,0.4,0.3,0.4,0.4,0.2l-0.2-0.2c0.1-0.1,0.2-0.1,0.3-0.1l0.1,0.5
		c0.6,0.4,0.5-1.3,1.1-0.4c0-0.4-0.3-0.2-0.3-0.6c0.1,0,0.9,0.5,1,0.5c0.7,0.1,0.1-0.8,0.7-0.7c-0.2-0.1-0.6-0.6-0.4-0.8
		c0.3,0,1,0.6,0.9,0.7c-0.1,0-0.2,0-0.2-0.1c-0.1,0.1-0.2,0.2,0.1,0.3L62.8,65c0.3,0.1,0.8,0,1,0.3c0.1-0.2-0.2-0.3-0.5-0.3
		c0.7,0.1,0.8-0.1,1.5,0c-0.2-0.1-0.6-0.2-0.5-0.2c1,0.1-0.2-0.3,0.1-0.5c0.7,0.2,1,0.5,1,0.3c0.5,0.1,0.8,0.3,1,0.5
		c-0.2-0.4,1,0,1.3-0.1l0.1,0.2c0-0.1,0.1-0.1,0.1-0.2l-0.7-0.2c0.2,0,0.3,0,0.6,0.1c-0.3-0.2-1.1-0.4-1.5-0.6c0.5,0.1,0-0.2,0.9,0
		c-0.6,0,0.9,0.2,0.7,0.4c0-0.1,0-0.1,0.2-0.1c0.1,0,0.2,0.1,0.2,0.1c1,0.1-0.8-0.4-0.5-0.5c0.4,0.2,0.9,0.2,0.9,0.2
		c-0.1,0.1-0.8-0.2-1.1-0.3c0.4,0,0.1-0.1,0.1-0.1h0.1c-0.1,0-0.1,0-0.1,0c0,0,0,0,0,0h-0.3c-0.4-0.1-0.2-0.1-0.2-0.2
		c0.3,0.1,0.1,0.1,0.3,0.1c-0.6-0.2,1.1,0.1,0.8-0.1c0.3,0,0.7,0.1,1,0.1c-0.3-0.2,0.7-0.1,0.5-0.3c-0.5,0-0.4,0-0.8-0.2
		c0,0.1,0,0.2,0,0.3l-0.5-0.3c-0.1,0.1,0.1,0.2-0.1,0.2c-0.3-0.1-0.2-0.1-0.7-0.2c0.9,0.1-0.1-0.2,0.6-0.2l1.1,0.2
		c0.7-0.2-0.2-0.5,0.3-0.8l-0.2,0.1c-0.4-0.1,0.1-0.2,0-0.4c0.3,0,0.5-0.1,0.7-0.1c-0.2,0,0.1-0.4-0.5-0.4c0.1-0.1,0.3-0.1,0.4-0.2
		c0.2-0.4-0.8-0.4-0.7-0.8c0.3,0.1,0.5-0.1,0.8,0.1c0-0.1,0-0.3-0.2-0.2c0.2-0.1-0.4-0.3-0.2-0.4c0.1,0,0.1,0,0,0.1
		c0,0,0.1-0.1,0-0.1c0,0,0,0,0,0c0,0,0,0,0,0c-0.2,0-0.5,0-0.5-0.1c0,0,0.1,0,0.1,0c-0.1,0-0.3-0.1-0.6,0c0.4-0.3,0.2-0.5,0-0.6
		c-0.2-0.1-0.5-0.1-0.1-0.3h0.1l0,0c0,0-0.1,0-0.1,0c-0.3,0-0.6,0-0.9,0c0.1,0,0.2-0.1,0.2-0.1c0.2-0.2-1.4,0.4-1.3,0.2
		c0.6-0.3,0.6-0.1,0.8-0.3c0.7-0.3,0.6-0.3,0.4-0.3c-0.2,0-0.6,0.1-0.2-0.1l0.1,0c0.3-0.2-0.2-0.1-0.6,0c-0.3,0.1-0.5,0.1-0.6,0.1
		c0,0,0.2-0.1,0.2-0.1c-1.1,0.4-1.8,0.5-2.3,0.7c0.7-0.3,0.5-0.2,0.9-0.5c-0.2,0-0.9,0.5-1.3,0.7c0.2-0.2,0.2-0.4,0.7-0.8l0.4,0
		c0.6-0.5-0.5,0-0.5-0.1l0.3-0.2c-0.6,0-1.3,0.6-1.8,0.5l-0.1,0.2c-0.9,0.6,0.1-0.3-0.6,0.1l0.5-0.6c-0.4,0.2-1.2,0.6-1.6,0.7
		c0.4-0.4,1-0.7,1.6-0.9c-0.2,0-0.8,0.1-1.1,0.4c0.1-0.1,0.3-0.2,0.4-0.1c-0.6,0.5-1,0.7-1.3,0.7c0.5-1.1-1.1-0.4-0.9-1.3
		c-0.5,0.4-0.8-0.3-1.1-0.4c-0.2,0.9-0.1,0-0.5,0.8c-0.1,0-0.1,0-0.1-0.1v0c0,0,0,0,0,0c0.1-0.2,0.4-0.5,0.4-0.8
		c-0.1,0.4-0.4,0.3-0.4,0.7c0-0.2,0-0.4,0.1-0.5c0.1-0.2,0.2-0.1,0.3-0.3c-0.1-0.1,0.2-0.3,0.3-0.6c-0.2,0.3-0.3,0.3-0.3,0.2
		c-0.1,0.1-0.2,0.2-0.2,0.4c-0.2,0.1-0.1-0.1,0-0.2c0.1-0.2,0.3-0.3,0-0.2c0.1,0,0.2-0.1,0.3-0.1c-0.2,0-0.1-0.1-0.8,0
		c0.1,0,0.3-0.1,0.4-0.1c0-0.1-0.2-0.2-0.3-0.4c-0.2-0.2-0.3-0.4,0-0.5l0.2,0c-0.1-0.1-0.4-0.2-0.2-0.2c0.1,0,0.2,0.1,0.2,0
		c-0.1,0-0.4-0.3-0.2-0.3l0.2,0.1c0.4-0.3-0.4-0.7-0.4-1.1c0.6,0.2,0.9,0,1.1-0.1l0.1,0c0.3-0.4-0.1-1,0-1.5
		c0.7,0.2,0.8-0.6,1.5-0.7c-0.1,0-0.4-0.4-0.3-0.5c0.2,0-0.1-0.5,0.3-0.1l-0.1,0.1c0.5,0.4,0.5,0.1,0.7,0l-0.5-0.6
		c0.6,0.3,0.7,0,0.9-0.2c0.2-0.3,0.3-0.5,0.7-0.1c0-0.2,0.1-0.3,0.1-0.5l0.2,0.4c0.3-0.1,0.5-0.1,0.8-0.3l0,0.3c0.2,0-0.2-1.2,0-1.3
		l0.3,0.6c0.4-0.1,0.8,0.3,1.1-0.3c0,0.1,0,0.3,0,0.3c0.2,0,0.7,0.3,0.5-0.5c0.1,0.6,0.4,0,0.6-0.3l0,0.4c0.1-0.5,0.1-0.7,0.4-0.9
		c0.1,0,0.1,0.3,0,0.2c0.2,0.2,0.1-0.4,0.4-0.2l-0.1,0.3c0.2,0,0.2-0.1,0.3-0.4c0.1-0.2,0.4,0.1,0.4,0.5c0-0.2,0.2-0.5,0.3-0.4
		c0,0.1,0,0.2-0.1,0.3c0.3,0.3,0.6-0.5,0.8,0c0,0.1,0,0.2,0,0.2c-0.3,0-0.5-0.1-0.5-0.1c0,0.4,0.2,0.5,0,1c0.2-0.3,0.5-0.9,0.8-0.7
		c0,0,0,0.1,0,0.1l0,0c0.1,0,0.1,0,0.2,0c0.1,0.1,0.1,0.1,0.2,0.1c0,0.3,0.2,0.2,0.4,0.2c0-0.4,0.2-0.3,0.1-0.7c0,0,0,0-0.1,0.1
		c0,0,0,0,0,0c0,0,0-0.1,0-0.1l0,0.1h0c0,0,0,0,0,0l0,0c-0.1,0-0.2,0-0.3,0c0.1-0.2,0.2-0.4,0.3-0.1c0.1-0.3,0.2-0.5,0.2-0.7
		c0.1,0.6,0.4,1,0.4,1.3c0.4-0.2,0.9,0,1.2-0.8c0.1-0.1,0.1,0.2,0.1,0.4c-0.1,0.1-0.1,0-0.2,0.2c0.3-0.2,0.5,0,0.7-0.5
		c0.2,0.3-0.2,0.5,0.1,0.5l-0.1,0.2c0.1,0.5,0.4,0.2,0.8,0c0.4-0.2,0.8-0.3,0.8,0.4c0-0.1,0-0.1,0-0.2c0.2,0.4,0.6,0.6,1,0.8
		c0.4,0.2,0.8,0.5,0.8,1.1c0.1,0.3,0.3,0,0.6,0l-0.3,0.4l0.6-0.2c0.5,0-0.4,1.2,0.5,1.1l0.2-0.2c0.1,0.2,0.5,0.3,0.2,0.5
		c0,0,0.3-0.2,0.2,0l-0.2,0.2l0.6,0.1c0,0.3-0.5,0.5-0.5,0.7c-0.1,0.1-0.2,0.2-0.2,0.3l0.5,0.4l-0.3,0.2l-0.1-0.4
		c-0.3,0.2,0,0.4,0.2,0.5c-0.2,0.1-0.3,0.1-0.3,0.2l0.7,0.4c-0.3,0.1-0.6-0.2-0.7,0.2c0.3,0.2,0.6-0.3,0.8,0.1
		c-0.3,0.2-0.6,0.2-0.3,0.4c-0.2,0.1-0.3,0-0.4-0.1c0.2,0.2,0.2,0.6,0.5,0.7c-0.4,0.3,0.2,0.8-0.5,0.8c0.2,0.1,0.6,0.3,0.6,0.6
		c-0.8-0.3,0,0.8-0.8,0.8c0.7,0.2,0.4,1,0.8,1.4c-0.1,0-0.2-0.1-0.1-0.1c0,0.3-0.2,0.4-0.4,0.6c0.6,0,0.8,0.4,1.1,0.6
		c-0.5,0.4-0.7-0.2-1.2,0c0.5,0,0.5,0.6,0.9,0.4c-0.3,0.3-0.1,0.2-0.6,0.4c0.7,0,0.1,0.2,0.6,0.4c-0.3,0.4-0.7,0.1-0.4,0.5
		c-0.2,0.2-0.5-0.2-0.5-0.2c0,0.4,0.5,0.2,0.9,0.2c0.2,0.5-0.4,0.2-0.7,0.4c0.1,0.3,0.7,0.5,0.6,0.8c-0.1,0-0.1,0.1-0.2,0
		c0.4,0.3,0,1,0.6,1.4c0,0-0.1,0-0.1,0c0.3-0.1,0.6-0.1,0.8,0C78.5,65.9,78.8,66.1,78.5,66.1z M68.7,49.3c0,0,0.1,0,0.1,0
		c0,0.1,0,0.1,0,0.2C68.7,49.5,68.7,49.4,68.7,49.3z M80.2,72.1c0.1,0,0.1,0,0.2,0.1c0,0.1,0,0.2-0.1,0.2
		C80.2,72.3,80.2,72.3,80.2,72.1C80.2,72.1,80.2,72.1,80.2,72.1z"/>
	<path class="st0" d="M60.9,61.6c0,0-0.1,0-0.2,0.1C60.7,61.7,60.8,61.6,60.9,61.6z"/>
	<path class="st0" d="M28,35.6c0,0,0,0-0.1-0.1c0,0,0,0,0,0C27.9,35.5,27.9,35.5,28,35.6C27.9,35.5,27.9,35.6,28,35.6z"/>
	<path class="st0" d="M57.1,38.5c0,0,0,0-0.1,0C57.1,38.4,57.1,38.5,57.1,38.5z"/>
	<path class="st0" d="M59.7,48.1C59.7,48.1,59.7,48.1,59.7,48.1C59.7,48.1,59.8,48.1,59.7,48.1C59.8,48.1,59.8,48.1,59.7,48.1
		L59.7,48.1z"/>
	<path class="st0" d="M72.5,39.3C72.5,39.3,72.5,39.3,72.5,39.3C72.5,39.3,72.5,39.3,72.5,39.3z"/>
	<path class="st0" d="M59.8,44.9C59.8,44.9,59.8,44.9,59.8,44.9C59.8,44.9,59.8,44.9,59.8,44.9z"/>
	<polygon class="st0" points="72.7,83.6 72.8,83.7 72.8,83.6 	"/>
	<path class="st0" d="M33.7,87.3C33.8,87.3,33.7,87.3,33.7,87.3C33.6,87.3,33.6,87.3,33.7,87.3z"/>
	<path class="st0" d="M28.3,82.4c0.1,0,0.2,0,0.3,0.1C28.5,82.3,28.5,82.3,28.3,82.4z"/>
	<polygon class="st0" points="39.9,91.9 39.9,91.9 39.9,91.9 	"/>
	<path class="st0" d="M28.5,82.5c0,0.1,0.1,0.2,0.2,0.3C28.7,82.6,28.7,82.5,28.5,82.5z"/>
	<path class="st0" d="M24.1,62.4c0.1-0.1,0.4-0.3,0.3-0.5l-0.1,0C24.5,61.9,23.8,62.2,24.1,62.4z"/>
	<path class="st0" d="M22,64.8c0.1-0.2,0.1-0.4,0.1-0.5c-0.2,0.1-0.4,0.2-0.4,0C21.2,64.9,22.1,64.1,22,64.8z"/>
	<path class="st0" d="M21.7,66.5c-0.1-0.3-0.2,0-0.3,0C21.5,66.7,21.6,66.7,21.7,66.5z"/>
	<path class="st0" d="M24.2,78.4l-0.4,0.1C24,78.7,24,78.4,24.2,78.4z"/>
	<polygon class="st0" points="27,79.5 27.1,79.2 26.7,79.3 	"/>
	<polygon class="st0" points="25.2,82 25.5,82.2 25.2,82 	"/>
	<path class="st0" d="M40.5,96.1l0.1-0.5C40.3,95.7,40.2,96.2,40.5,96.1z"/>
	<path class="st0" d="M49.5,96.1c0.1,0.2,0.3,0.4,0.5,0.1C49.7,96.2,49.5,96,49.5,96.1z"/>
	<polygon class="st0" points="74.2,88 74.4,87.6 74.3,87.8 	"/>
</g>
</svg>
